<?xml version="1.0" encoding="UTF-8"?> <svg xmlns="http://www.w3.org/2000/svg" width="40" height="40" viewBox="0 0 40 40" fill="none"><path d="M19.6998 23.0005C19.4287 22.8233 19.0654 22.8992 18.8882 23.1702C18.7109 23.4412 18.7869 23.8045 19.0579 23.9818C19.7931 24.4627 20.2962 24.6077 20.9433 24.6452V25.2589C20.9433 25.5827 21.2058 25.8452 21.5296 25.8452C21.8534 25.8452 22.1159 25.5828 22.1159 25.2589V24.5982C23.4087 24.3409 24.1637 23.2731 24.3314 22.2757C24.5475 20.9902 23.8751 19.8726 22.6185 19.4283C22.4533 19.3699 22.2844 19.3088 22.1159 19.2451V16.5394C22.5349 16.6427 22.7844 16.8543 22.8066 16.8737C23.0448 17.0894 23.4127 17.0731 23.631 16.8365C23.8506 16.5985 23.8357 16.2276 23.5975 16.0081C23.5648 15.9779 23.0155 15.4828 22.1159 15.3451V14.7972C22.1159 14.4734 21.8534 14.2109 21.5296 14.2109C21.2058 14.2109 20.9433 14.4733 20.9433 14.7972V15.39C20.86 15.4085 20.7756 15.4297 20.6893 15.4556C19.8614 15.705 19.2427 16.4135 19.0747 17.3045C18.9215 18.1173 19.1821 18.9012 19.7549 19.3505C20.0563 19.5869 20.4309 19.8034 20.9433 20.0318V23.4708C20.5053 23.4371 20.1992 23.3271 19.6998 23.0005ZM20.4786 18.4277C20.2517 18.2498 20.1552 17.9025 20.2271 17.5216C20.2909 17.1832 20.5123 16.7769 20.9433 16.6077V18.7263C20.7687 18.6308 20.6106 18.5314 20.4786 18.4277ZM22.2276 20.5338C23.2853 20.9077 23.2201 21.8128 23.1749 22.0813C23.0874 22.602 22.7268 23.1536 22.1158 23.3784V20.4938C22.1531 20.5072 22.1894 20.5203 22.2276 20.5338Z" fill="#795824"></path><path d="M19.6998 23.0005C19.4287 22.8233 19.0654 22.8992 18.8882 23.1702C18.7109 23.4412 18.7869 23.8045 19.0579 23.9818C19.7931 24.4627 20.2962 24.6077 20.9433 24.6452V25.2589C20.9433 25.5827 21.2058 25.8452 21.5296 25.8452C21.8534 25.8452 22.1159 25.5828 22.1159 25.2589V24.5982C23.4087 24.3409 24.1637 23.2731 24.3314 22.2757C24.5475 20.9902 23.8751 19.8726 22.6185 19.4283C22.4533 19.3699 22.2844 19.3088 22.1159 19.2451V16.5394C22.5349 16.6427 22.7844 16.8543 22.8066 16.8737C23.0448 17.0894 23.4127 17.0731 23.631 16.8365C23.8506 16.5985 23.8357 16.2276 23.5975 16.0081C23.5648 15.9779 23.0155 15.4828 22.1159 15.3451V14.7972C22.1159 14.4734 21.8534 14.2109 21.5296 14.2109C21.2058 14.2109 20.9433 14.4733 20.9433 14.7972V15.39C20.86 15.4085 20.7756 15.4297 20.6893 15.4556C19.8614 15.705 19.2427 16.4135 19.0747 17.3045C18.9215 18.1173 19.1821 18.9012 19.7549 19.3505C20.0563 19.5869 20.4309 19.8034 20.9433 20.0318V23.4708C20.5053 23.4371 20.1992 23.3271 19.6998 23.0005ZM20.4786 18.4277C20.2517 18.2498 20.1552 17.9025 20.2271 17.5216C20.2909 17.1832 20.5123 16.7769 20.9433 16.6077V18.7263C20.7687 18.6308 20.6106 18.5314 20.4786 18.4277ZM22.2276 20.5338C23.2853 20.9077 23.2201 21.8128 23.1749 22.0813C23.0874 22.602 22.7268 23.1536 22.1158 23.3784V20.4938C22.1531 20.5072 22.1894 20.5203 22.2276 20.5338Z" fill="#FFB64C"></path><path d="M19.6998 23.0005C19.4287 22.8233 19.0654 22.8992 18.8882 23.1702C18.7109 23.4412 18.7869 23.8045 19.0579 23.9818C19.7931 24.4627 20.2962 24.6077 20.9433 24.6452V25.2589C20.9433 25.5827 21.2058 25.8452 21.5296 25.8452C21.8534 25.8452 22.1159 25.5828 22.1159 25.2589V24.5982C23.4087 24.3409 24.1637 23.2731 24.3314 22.2757C24.5475 20.9902 23.8751 19.8726 22.6185 19.4283C22.4533 19.3699 22.2844 19.3088 22.1159 19.2451V16.5394C22.5349 16.6427 22.7844 16.8543 22.8066 16.8737C23.0448 17.0894 23.4127 17.0731 23.631 16.8365C23.8506 16.5985 23.8357 16.2276 23.5975 16.0081C23.5648 15.9779 23.0155 15.4828 22.1159 15.3451V14.7972C22.1159 14.4734 21.8534 14.2109 21.5296 14.2109C21.2058 14.2109 20.9433 14.4733 20.9433 14.7972V15.39C20.86 15.4085 20.7756 15.4297 20.6893 15.4556C19.8614 15.705 19.2427 16.4135 19.0747 17.3045C18.9215 18.1173 19.1821 18.9012 19.7549 19.3505C20.0563 19.5869 20.4309 19.8034 20.9433 20.0318V23.4708C20.5053 23.4371 20.1992 23.3271 19.6998 23.0005ZM20.4786 18.4277C20.2517 18.2498 20.1552 17.9025 20.2271 17.5216C20.2909 17.1832 20.5123 16.7769 20.9433 16.6077V18.7263C20.7687 18.6308 20.6106 18.5314 20.4786 18.4277ZM22.2276 20.5338C23.2853 20.9077 23.2201 21.8128 23.1749 22.0813C23.0874 22.602 22.7268 23.1536 22.1158 23.3784V20.4938C22.1531 20.5072 22.1894 20.5203 22.2276 20.5338Z" fill="#FFA727"></path><path d="M19.6998 23.0005C19.4287 22.8233 19.0654 22.8992 18.8882 23.1702C18.7109 23.4412 18.7869 23.8045 19.0579 23.9818C19.7931 24.4627 20.2962 24.6077 20.9433 24.6452V25.2589C20.9433 25.5827 21.2058 25.8452 21.5296 25.8452C21.8534 25.8452 22.1159 25.5828 22.1159 25.2589V24.5982C23.4087 24.3409 24.1637 23.2731 24.3314 22.2757C24.5475 20.9902 23.8751 19.8726 22.6185 19.4283C22.4533 19.3699 22.2844 19.3088 22.1159 19.2451V16.5394C22.5349 16.6427 22.7844 16.8543 22.8066 16.8737C23.0448 17.0894 23.4127 17.0731 23.631 16.8365C23.8506 16.5985 23.8357 16.2276 23.5975 16.0081C23.5648 15.9779 23.0155 15.4828 22.1159 15.3451V14.7972C22.1159 14.4734 21.8534 14.2109 21.5296 14.2109C21.2058 14.2109 20.9433 14.4733 20.9433 14.7972V15.39C20.86 15.4085 20.7756 15.4297 20.6893 15.4556C19.8614 15.705 19.2427 16.4135 19.0747 17.3045C18.9215 18.1173 19.1821 18.9012 19.7549 19.3505C20.0563 19.5869 20.4309 19.8034 20.9433 20.0318V23.4708C20.5053 23.4371 20.1992 23.3271 19.6998 23.0005ZM20.4786 18.4277C20.2517 18.2498 20.1552 17.9025 20.2271 17.5216C20.2909 17.1832 20.5123 16.7769 20.9433 16.6077V18.7263C20.7687 18.6308 20.6106 18.5314 20.4786 18.4277ZM22.2276 20.5338C23.2853 20.9077 23.2201 21.8128 23.1749 22.0813C23.0874 22.602 22.7268 23.1536 22.1158 23.3784V20.4938C22.1531 20.5072 22.1894 20.5203 22.2276 20.5338Z" fill="#FFA900"></path><path d="M19.6998 23.0005C19.4287 22.8233 19.0654 22.8992 18.8882 23.1702C18.7109 23.4412 18.7869 23.8045 19.0579 23.9818C19.7931 24.4627 20.2962 24.6077 20.9433 24.6452V25.2589C20.9433 25.5827 21.2058 25.8452 21.5296 25.8452C21.8534 25.8452 22.1159 25.5828 22.1159 25.2589V24.5982C23.4087 24.3409 24.1637 23.2731 24.3314 22.2757C24.5475 20.9902 23.8751 19.8726 22.6185 19.4283C22.4533 19.3699 22.2844 19.3088 22.1159 19.2451V16.5394C22.5349 16.6427 22.7844 16.8543 22.8066 16.8737C23.0448 17.0894 23.4127 17.0731 23.631 16.8365C23.8506 16.5985 23.8357 16.2276 23.5975 16.0081C23.5648 15.9779 23.0155 15.4828 22.1159 15.3451V14.7972C22.1159 14.4734 21.8534 14.2109 21.5296 14.2109C21.2058 14.2109 20.9433 14.4733 20.9433 14.7972V15.39C20.86 15.4085 20.7756 15.4297 20.6893 15.4556C19.8614 15.705 19.2427 16.4135 19.0747 17.3045C18.9215 18.1173 19.1821 18.9012 19.7549 19.3505C20.0563 19.5869 20.4309 19.8034 20.9433 20.0318V23.4708C20.5053 23.4371 20.1992 23.3271 19.6998 23.0005ZM20.4786 18.4277C20.2517 18.2498 20.1552 17.9025 20.2271 17.5216C20.2909 17.1832 20.5123 16.7769 20.9433 16.6077V18.7263C20.7687 18.6308 20.6106 18.5314 20.4786 18.4277ZM22.2276 20.5338C23.2853 20.9077 23.2201 21.8128 23.1749 22.0813C23.0874 22.602 22.7268 23.1536 22.1158 23.3784V20.4938C22.1531 20.5072 22.1894 20.5203 22.2276 20.5338Z" fill="#FF674B"></path><path d="M39.5297 30.0846C38.7512 28.879 37.235 28.4132 35.9156 28.9703L34.3401 29.4906V28.6986C34.3401 27.5865 33.4354 26.6818 32.3233 26.6818C32.0592 26.6818 31.8443 26.4669 31.8443 26.2027V15.4681C31.8443 13.3021 30.7247 11.3149 28.8493 10.1525L25.3564 7.98731V6.07865C25.9521 5.6646 27.2086 4.55409 27.9271 2.19829C28.0864 1.67604 27.9917 1.12517 27.6672 0.686896C27.3438 0.250422 26.847 0 26.3037 0H16.8592C16.3159 0 15.8191 0.250422 15.4957 0.686896C15.1712 1.12517 15.0765 1.67604 15.2358 2.19829C15.9542 4.55409 17.2108 5.6646 17.8065 6.07865V7.98731L14.3136 10.1525C12.4382 11.3149 11.3186 13.3021 11.3186 15.4681V18.1306C11.3186 18.4544 11.581 18.7169 11.9049 18.7169C12.2288 18.7169 12.4912 18.4544 12.4912 18.1306V15.4681C12.4912 13.7108 13.4035 12.0963 14.9314 11.1492L18.553 8.90417H24.61L28.2317 11.1492C29.7596 12.0962 30.6718 13.7108 30.6718 15.4681V26.2029C30.6718 27.1136 31.4127 27.8545 32.3234 27.8545C32.7889 27.8545 33.1676 28.2332 33.1676 28.6986V29.8779L27.0877 31.8858C27.1069 31.8055 27.1222 31.7234 27.1333 31.6398C27.22 30.9894 27.0482 30.3443 26.6498 29.8232C26.2551 29.3071 25.6849 28.9738 25.0423 28.8832C25.0423 28.8832 15.3643 26.9705 14.9246 26.9999C13.7785 27.0734 12.8196 27.768 11.9735 28.3808C11.8727 28.4539 11.7737 28.5256 11.6763 28.5946C11.1249 28.9859 10.5709 29.2156 9.99547 29.3197V28.6986C9.99547 28.2332 10.3742 27.8545 10.8396 27.8545C11.7504 27.8545 12.4912 27.1136 12.4912 26.2029V20.8362C12.4912 20.5124 12.2288 20.2499 11.9049 20.2499C11.581 20.2499 11.3186 20.5124 11.3186 20.8362V26.2029C11.3186 26.467 11.1037 26.6819 10.8395 26.6819C9.72749 26.6819 8.82279 27.5866 8.82279 28.6987V29.371C8.19124 29.3226 7.52379 29.1653 6.79926 28.9371V28.4822C6.79926 27.4951 5.99617 26.692 5.00899 26.692H1.79035C0.803169 26.6919 0 27.495 0 28.4822V37.8883C0 38.8755 0.803169 39.6785 1.79035 39.6785H5.00899C5.99617 39.6785 6.79926 38.8755 6.79926 37.8883V37.1438L10.975 36.8999C10.9802 36.8996 10.9855 36.8992 10.9907 36.8987C11.8999 36.8212 12.8331 36.9467 13.6895 37.2622C18.1572 38.9078 18.213 38.9283 18.213 38.9283C19.1299 39.2661 20.0153 39.4021 20.8772 39.4021C22.7098 39.4021 24.4346 38.7865 26.12 38.1849C26.5036 38.048 26.9 37.9065 27.2911 37.7747C28.8407 37.2527 30.4123 36.78 31.8893 36.3405C32.1996 36.2482 32.3764 35.9217 32.284 35.6113C32.1918 35.301 31.8655 35.1246 31.5549 35.2166C30.0677 35.659 28.4846 36.1352 26.9167 36.6634C26.5156 36.7985 26.1141 36.9419 25.7258 37.0804C23.3394 37.9322 21.0855 38.7366 18.6178 37.8277C18.5921 37.8183 14.0947 36.1617 14.0947 36.1617C13.0805 35.7882 11.9753 35.6387 10.8987 35.7296L6.7991 35.9689V30.1645C8.51772 30.6723 10.4391 30.9101 12.3547 29.5507C12.455 29.4796 12.5571 29.4056 12.661 29.3303C13.3784 28.8107 14.1915 28.2218 14.9994 28.17C15.3701 28.1453 17.5205 28.5877 18.3302 28.7538C18.566 28.8021 24.8323 30.0369 24.8323 30.0369C24.8441 30.0392 24.8561 30.0411 24.8681 30.0428C25.2079 30.088 25.5098 30.2629 25.718 30.5353C25.9263 30.8077 26.016 31.1448 25.9707 31.4847C25.8772 32.1862 25.2309 32.6812 24.5288 32.5873C24.5236 32.5866 24.5185 32.586 24.5131 32.5855L19.335 32.0363C19.0138 32.0021 18.7243 32.2354 18.6901 32.5574C18.656 32.8794 18.8893 33.1681 19.2113 33.2023L24.3823 33.7508C24.7362 33.7969 25.0824 33.7641 25.4039 33.6671C25.4366 33.6622 36.3066 30.076 36.3066 30.076C36.3232 30.0705 36.3397 30.0643 36.3558 30.0573C37.1528 29.7122 38.0734 29.9911 38.5444 30.7208C38.8177 31.144 38.8976 31.6653 38.7635 32.151C38.6325 32.6256 38.3087 33.0246 37.8724 33.2506C36.7962 33.6218 35.6335 33.9938 34.1098 34.4545C33.7999 34.5482 33.6246 34.8754 33.7184 35.1854C33.795 35.4388 34.0277 35.6021 34.2793 35.6021C34.3356 35.6021 34.3927 35.5939 34.4492 35.5769C36.0056 35.1063 37.1911 34.7267 38.2927 34.3461C38.316 34.3381 38.3387 34.3285 38.3607 34.3176C39.112 33.9468 39.6708 33.2708 39.8938 32.4631C40.1171 31.6553 39.9842 30.7884 39.5297 30.0846ZM24.1838 7.73164H18.9791V6.33966H24.1838V7.73164ZM24.6121 5.16705H18.5511C18.4073 5.07469 18.1283 4.87288 17.8061 4.52265C17.3724 4.05113 16.7689 3.2057 16.3573 1.85621C16.3075 1.69305 16.337 1.52119 16.4381 1.38469C16.538 1.24991 16.6914 1.17253 16.8592 1.17253H26.3037C26.4715 1.17253 26.6249 1.24984 26.7248 1.38469C26.8259 1.52119 26.8554 1.69313 26.8056 1.85621C26.394 3.2057 25.7905 4.05105 25.3567 4.52265C25.0336 4.87382 24.7539 5.07587 24.6121 5.16705ZM5.62665 37.8883C5.62665 38.2289 5.34957 38.5059 5.00899 38.5059H1.79035C1.44969 38.5059 1.17261 38.2289 1.17261 37.8883V28.4822C1.17261 28.1416 1.44969 27.8645 1.79035 27.8645H5.00899C5.34957 27.8645 5.62665 28.1416 5.62665 28.4822V37.8883Z" fill="#393533"></path></svg> 