<?xml version="1.0" encoding="UTF-8"?> <svg xmlns="http://www.w3.org/2000/svg" width="35" height="40" viewBox="0 0 35 40" fill="none"><path d="M31.0431 9.17099C28.3718 8.2687 26.2342 6.14897 25.3249 3.50068C25.1995 3.13548 24.8572 2.89009 24.4733 2.89009H10.0985C9.71464 2.89009 9.37243 3.13548 9.24692 3.50076C8.33759 6.14897 6.19996 8.2687 3.52884 9.17091C3.16098 9.29509 2.91386 9.63793 2.91386 10.0239V16.8382C2.91386 21.4819 4.38694 25.8987 7.17388 29.6109C9.63558 32.8901 13.1155 35.4822 16.9727 36.9096C17.1747 36.9843 17.3971 36.9843 17.5989 36.9096C20.9367 35.6744 23.9521 33.6077 26.3192 30.933C26.5339 30.6904 26.5113 30.3198 26.2687 30.1051C26.026 29.8904 25.6554 29.913 25.4408 30.1556C23.2236 32.6609 20.4056 34.6021 17.2858 35.7745C13.6748 34.4171 10.4199 31.9812 8.11191 28.9067C5.47863 25.3991 4.0868 21.2259 4.0868 16.8382V10.2186C6.95406 9.18874 9.25333 6.90784 10.292 4.06303H24.2796C25.3182 6.90784 27.6175 9.18874 30.4848 10.2186V16.8382C30.4848 20.8395 29.3132 24.7023 27.0969 28.0091C26.9165 28.2782 26.9884 28.6426 27.2575 28.8229C27.5266 29.0033 27.8909 28.9314 28.0712 28.6623C30.4176 25.1616 31.6578 21.0729 31.6578 16.8383V10.024C31.6579 9.63801 31.4108 9.29517 31.0431 9.17099ZM33.3408 6.72954C30.4238 6.43277 28.0882 4.11926 27.7874 1.22839C27.7144 0.528094 27.1295 0 26.4267 0H8.14506C7.44227 0 6.85732 0.528094 6.78452 1.22839C6.4836 4.11918 4.14804 6.43277 1.23105 6.72954C0.529267 6.80094 0 7.38596 0 8.0904V16.8383C0 22.0633 1.64653 27.0421 4.7616 31.2364C6.26033 33.2543 8.05615 35.0251 10.0992 36.4995C12.1674 37.9921 14.4437 39.1476 16.8648 39.9338C17.1363 40.0221 17.4355 40.0221 17.707 39.9338C20.128 39.1475 22.4043 37.992 24.4726 36.4995C26.5156 35.0251 28.3114 33.2543 29.8101 31.2364C32.9252 27.0421 34.5717 22.0633 34.5717 16.8383V8.0904C34.5717 7.38596 34.0425 6.80086 33.3408 6.72954ZM33.3987 16.8383C33.3987 21.8096 31.8322 26.5465 28.8684 30.537C25.9622 34.45 21.9773 37.3136 17.3446 38.8182C17.3067 38.8305 17.265 38.8305 17.2271 38.8182C12.5943 37.3136 8.60942 34.45 5.7033 30.537C2.73963 26.5465 1.17302 21.8096 1.17302 16.8383V8.0904C1.17302 7.99007 1.24895 7.90671 1.34976 7.89654C4.81674 7.54385 7.59304 4.79054 7.9512 1.34983C7.96168 1.24903 8.04504 1.17302 8.14506 1.17302H26.4267C26.5267 1.17302 26.61 1.24903 26.6205 1.34983C26.9787 4.79054 29.755 7.54385 33.2221 7.89654C33.3228 7.90678 33.3987 7.99015 33.3987 8.0904V16.8383Z" fill="#393533"></path><path d="M26.3921 17.1907C26.6127 16.932 26.7465 16.5955 26.7465 16.2277C26.7465 15.4133 26.0915 14.7508 25.2863 14.7508L20.5493 14.745C20.5486 14.7431 20.4962 14.5893 20.4629 14.5174L20.4624 14.5162C20.3904 14.3607 20.3637 14.191 20.3851 14.0253C20.4545 13.4878 20.4717 12.9297 20.4855 12.4812C20.5211 11.331 20.2941 10.4909 19.7916 9.91287C19.2867 9.33206 18.5608 9 17.7974 9C17.7917 9 17.7859 9 17.7802 9.00004C17.3513 9.00285 17.0024 9.36174 17.0024 9.80008V11.1984C17.0024 12.0881 16.86 13.3262 16.1816 14.1715C15.4619 15.0682 14.8404 15.0604 13.8111 15.0476C13.7758 15.0472 13.7402 15.0467 13.7042 15.0464V14.6685C13.7042 14.042 13.2002 13.5322 12.5808 13.5322H10.4095C9.79013 13.5322 9.28613 14.0419 9.28613 14.6685V17.8298C9.28613 18.0036 9.42544 18.1446 9.59737 18.1446C9.76929 18.1446 9.9086 18.0036 9.9086 17.8298V14.6685C9.9086 14.3891 10.1333 14.1618 10.4095 14.1618H12.5807C12.857 14.1618 13.0817 14.3891 13.0817 14.6685V23.8637C13.0817 24.1431 12.857 24.3704 12.5807 24.3704H10.4095C10.1333 24.3704 9.9086 24.1431 9.9086 23.8637V19.2661C9.9086 19.0922 9.76929 18.9513 9.59737 18.9513C9.42544 18.9513 9.28613 19.0922 9.28613 19.2661V23.8637C9.28613 24.4903 9.79013 25 10.4095 25H12.5807C13.2002 25 13.7041 24.4903 13.7041 23.8637V23.3882H14.1249C14.3285 23.3882 14.53 23.4602 14.6923 23.5909C14.7343 23.6246 14.7831 23.6669 14.8398 23.7158C15.229 24.0519 15.9534 24.6775 16.9903 24.6775L24.6301 24.6776C25.4353 24.6776 26.0903 24.0151 26.0903 23.2007C26.0903 22.8489 25.9679 22.5257 25.7642 22.2717C26.3353 22.071 26.7465 21.5215 26.7465 20.8764C26.7465 20.5088 26.6127 20.1723 26.3921 19.9135C26.9169 19.6894 27.2861 19.1636 27.2861 18.5522C27.2861 17.9407 26.9168 17.4149 26.3921 17.1907ZM22.6298 15.3805H25.2863C25.7483 15.3805 26.1241 15.7606 26.1241 16.2278C26.1241 16.695 25.7483 17.0751 25.2863 17.0751H22.6298C22.1679 17.0751 21.7921 16.695 21.7921 16.2278C21.7921 15.7606 22.1679 15.3805 22.6298 15.3805ZM20.7787 24.0479H16.9904C16.183 24.0479 15.618 23.5599 15.244 23.237C15.1856 23.1865 15.1304 23.1388 15.08 23.0983C14.808 22.8793 14.4688 22.7587 14.125 22.7587H13.7042V15.676C13.7376 15.6764 13.7707 15.6768 13.8035 15.6772C14.8939 15.6906 15.7554 15.7015 16.6649 14.5683C17.1029 14.0226 17.6249 12.995 17.6249 11.1984V9.80013C17.6249 9.70673 17.6964 9.6303 17.7843 9.62971C17.7885 9.62967 17.7926 9.62967 17.7968 9.62967C18.373 9.62967 18.9432 9.89037 19.3242 10.3287C19.7175 10.781 19.8938 11.4787 19.8634 12.4616C19.85 12.8962 19.8333 13.4372 19.7679 13.9438C19.7311 14.2287 19.7763 14.519 19.8987 14.7832L19.9007 14.7879C19.9018 14.7902 19.9027 14.7923 19.904 14.7953L19.9046 14.7969C20.0041 15.033 20.0799 15.2902 20.0917 15.5488C20.1063 15.871 20.0422 16.1954 19.9002 16.5149C19.8973 16.5214 19.6028 17.1779 18.7917 17.542C18.6346 17.6125 18.5637 17.7985 18.6334 17.9574C18.8744 18.5071 19.7693 17.6807 19.9902 17.4492C20.1775 17.2529 20.3586 17.0231 20.4687 16.7713C20.6503 16.3628 20.7327 15.9417 20.7135 15.5199C20.7113 15.473 20.7071 15.4243 20.7014 15.3747H21.439C21.2697 15.6159 21.1697 15.9102 21.1697 16.2278C21.1697 16.8393 21.5389 17.3651 22.0638 17.5892C21.8432 17.848 21.7093 18.1844 21.7093 18.5522C21.7093 18.9198 21.8432 19.2563 22.0637 19.5151C21.5389 19.7392 21.1697 20.265 21.1697 20.8764C21.1697 21.2282 21.2921 21.5515 21.4958 21.8054C20.9247 22.0061 20.5135 22.5556 20.5135 23.2007C20.5135 23.5157 20.6118 23.8078 20.7787 24.0479ZM24.6301 24.048L21.9721 24.0479C21.5109 24.047 21.136 23.6673 21.136 23.2007C21.136 22.7334 21.5118 22.3534 21.9737 22.3534H24.6302C25.0921 22.3534 25.4679 22.7334 25.4679 23.2007C25.4679 23.6679 25.092 24.048 24.6301 24.048ZM25.2863 21.7237H22.6298C22.1679 21.7237 21.7921 21.3436 21.7921 20.8763C21.7921 20.4092 22.1679 20.029 22.6298 20.029H25.2863C25.7483 20.029 26.1241 20.4092 26.1241 20.8763C26.124 21.3436 25.7482 21.7237 25.2863 21.7237ZM25.8259 19.3995H23.1694C22.7075 19.3995 22.3317 19.0193 22.3317 18.5521C22.3317 18.0849 22.7075 17.7048 23.1694 17.7048H25.8259C26.2879 17.7048 26.6637 18.0849 26.6637 18.5521C26.6637 19.0193 26.2879 19.3995 25.8259 19.3995Z" fill="#795824"></path><path d="M26.3921 17.1907C26.6127 16.932 26.7465 16.5955 26.7465 16.2277C26.7465 15.4133 26.0915 14.7508 25.2863 14.7508L20.5493 14.745C20.5486 14.7431 20.4962 14.5893 20.4629 14.5174L20.4624 14.5162C20.3904 14.3607 20.3637 14.191 20.3851 14.0253C20.4545 13.4878 20.4717 12.9297 20.4855 12.4812C20.5211 11.331 20.2941 10.4909 19.7916 9.91287C19.2867 9.33206 18.5608 9 17.7974 9C17.7917 9 17.7859 9 17.7802 9.00004C17.3513 9.00285 17.0024 9.36174 17.0024 9.80008V11.1984C17.0024 12.0881 16.86 13.3262 16.1816 14.1715C15.4619 15.0682 14.8404 15.0604 13.8111 15.0476C13.7758 15.0472 13.7402 15.0467 13.7042 15.0464V14.6685C13.7042 14.042 13.2002 13.5322 12.5808 13.5322H10.4095C9.79013 13.5322 9.28613 14.0419 9.28613 14.6685V17.8298C9.28613 18.0036 9.42544 18.1446 9.59737 18.1446C9.76929 18.1446 9.9086 18.0036 9.9086 17.8298V14.6685C9.9086 14.3891 10.1333 14.1618 10.4095 14.1618H12.5807C12.857 14.1618 13.0817 14.3891 13.0817 14.6685V23.8637C13.0817 24.1431 12.857 24.3704 12.5807 24.3704H10.4095C10.1333 24.3704 9.9086 24.1431 9.9086 23.8637V19.2661C9.9086 19.0922 9.76929 18.9513 9.59737 18.9513C9.42544 18.9513 9.28613 19.0922 9.28613 19.2661V23.8637C9.28613 24.4903 9.79013 25 10.4095 25H12.5807C13.2002 25 13.7041 24.4903 13.7041 23.8637V23.3882H14.1249C14.3285 23.3882 14.53 23.4602 14.6923 23.5909C14.7343 23.6246 14.7831 23.6669 14.8398 23.7158C15.229 24.0519 15.9534 24.6775 16.9903 24.6775L24.6301 24.6776C25.4353 24.6776 26.0903 24.0151 26.0903 23.2007C26.0903 22.8489 25.9679 22.5257 25.7642 22.2717C26.3353 22.071 26.7465 21.5215 26.7465 20.8764C26.7465 20.5088 26.6127 20.1723 26.3921 19.9135C26.9169 19.6894 27.2861 19.1636 27.2861 18.5522C27.2861 17.9407 26.9168 17.4149 26.3921 17.1907ZM22.6298 15.3805H25.2863C25.7483 15.3805 26.1241 15.7606 26.1241 16.2278C26.1241 16.695 25.7483 17.0751 25.2863 17.0751H22.6298C22.1679 17.0751 21.7921 16.695 21.7921 16.2278C21.7921 15.7606 22.1679 15.3805 22.6298 15.3805ZM20.7787 24.0479H16.9904C16.183 24.0479 15.618 23.5599 15.244 23.237C15.1856 23.1865 15.1304 23.1388 15.08 23.0983C14.808 22.8793 14.4688 22.7587 14.125 22.7587H13.7042V15.676C13.7376 15.6764 13.7707 15.6768 13.8035 15.6772C14.8939 15.6906 15.7554 15.7015 16.6649 14.5683C17.1029 14.0226 17.6249 12.995 17.6249 11.1984V9.80013C17.6249 9.70673 17.6964 9.6303 17.7843 9.62971C17.7885 9.62967 17.7926 9.62967 17.7968 9.62967C18.373 9.62967 18.9432 9.89037 19.3242 10.3287C19.7175 10.781 19.8938 11.4787 19.8634 12.4616C19.85 12.8962 19.8333 13.4372 19.7679 13.9438C19.7311 14.2287 19.7763 14.519 19.8987 14.7832L19.9007 14.7879C19.9018 14.7902 19.9027 14.7923 19.904 14.7953L19.9046 14.7969C20.0041 15.033 20.0799 15.2902 20.0917 15.5488C20.1063 15.871 20.0422 16.1954 19.9002 16.5149C19.8973 16.5214 19.6028 17.1779 18.7917 17.542C18.6346 17.6125 18.5637 17.7985 18.6334 17.9574C18.8744 18.5071 19.7693 17.6807 19.9902 17.4492C20.1775 17.2529 20.3586 17.0231 20.4687 16.7713C20.6503 16.3628 20.7327 15.9417 20.7135 15.5199C20.7113 15.473 20.7071 15.4243 20.7014 15.3747H21.439C21.2697 15.6159 21.1697 15.9102 21.1697 16.2278C21.1697 16.8393 21.5389 17.3651 22.0638 17.5892C21.8432 17.848 21.7093 18.1844 21.7093 18.5522C21.7093 18.9198 21.8432 19.2563 22.0637 19.5151C21.5389 19.7392 21.1697 20.265 21.1697 20.8764C21.1697 21.2282 21.2921 21.5515 21.4958 21.8054C20.9247 22.0061 20.5135 22.5556 20.5135 23.2007C20.5135 23.5157 20.6118 23.8078 20.7787 24.0479ZM24.6301 24.048L21.9721 24.0479C21.5109 24.047 21.136 23.6673 21.136 23.2007C21.136 22.7334 21.5118 22.3534 21.9737 22.3534H24.6302C25.0921 22.3534 25.4679 22.7334 25.4679 23.2007C25.4679 23.6679 25.092 24.048 24.6301 24.048ZM25.2863 21.7237H22.6298C22.1679 21.7237 21.7921 21.3436 21.7921 20.8763C21.7921 20.4092 22.1679 20.029 22.6298 20.029H25.2863C25.7483 20.029 26.1241 20.4092 26.1241 20.8763C26.124 21.3436 25.7482 21.7237 25.2863 21.7237ZM25.8259 19.3995H23.1694C22.7075 19.3995 22.3317 19.0193 22.3317 18.5521C22.3317 18.0849 22.7075 17.7048 23.1694 17.7048H25.8259C26.2879 17.7048 26.6637 18.0849 26.6637 18.5521C26.6637 19.0193 26.2879 19.3995 25.8259 19.3995Z" fill="#FFB64C"></path><path d="M26.3921 17.1907C26.6127 16.932 26.7465 16.5955 26.7465 16.2277C26.7465 15.4133 26.0915 14.7508 25.2863 14.7508L20.5493 14.745C20.5486 14.7431 20.4962 14.5893 20.4629 14.5174L20.4624 14.5162C20.3904 14.3607 20.3637 14.191 20.3851 14.0253C20.4545 13.4878 20.4717 12.9297 20.4855 12.4812C20.5211 11.331 20.2941 10.4909 19.7916 9.91287C19.2867 9.33206 18.5608 9 17.7974 9C17.7917 9 17.7859 9 17.7802 9.00004C17.3513 9.00285 17.0024 9.36174 17.0024 9.80008V11.1984C17.0024 12.0881 16.86 13.3262 16.1816 14.1715C15.4619 15.0682 14.8404 15.0604 13.8111 15.0476C13.7758 15.0472 13.7402 15.0467 13.7042 15.0464V14.6685C13.7042 14.042 13.2002 13.5322 12.5808 13.5322H10.4095C9.79013 13.5322 9.28613 14.0419 9.28613 14.6685V17.8298C9.28613 18.0036 9.42544 18.1446 9.59737 18.1446C9.76929 18.1446 9.9086 18.0036 9.9086 17.8298V14.6685C9.9086 14.3891 10.1333 14.1618 10.4095 14.1618H12.5807C12.857 14.1618 13.0817 14.3891 13.0817 14.6685V23.8637C13.0817 24.1431 12.857 24.3704 12.5807 24.3704H10.4095C10.1333 24.3704 9.9086 24.1431 9.9086 23.8637V19.2661C9.9086 19.0922 9.76929 18.9513 9.59737 18.9513C9.42544 18.9513 9.28613 19.0922 9.28613 19.2661V23.8637C9.28613 24.4903 9.79013 25 10.4095 25H12.5807C13.2002 25 13.7041 24.4903 13.7041 23.8637V23.3882H14.1249C14.3285 23.3882 14.53 23.4602 14.6923 23.5909C14.7343 23.6246 14.7831 23.6669 14.8398 23.7158C15.229 24.0519 15.9534 24.6775 16.9903 24.6775L24.6301 24.6776C25.4353 24.6776 26.0903 24.0151 26.0903 23.2007C26.0903 22.8489 25.9679 22.5257 25.7642 22.2717C26.3353 22.071 26.7465 21.5215 26.7465 20.8764C26.7465 20.5088 26.6127 20.1723 26.3921 19.9135C26.9169 19.6894 27.2861 19.1636 27.2861 18.5522C27.2861 17.9407 26.9168 17.4149 26.3921 17.1907ZM22.6298 15.3805H25.2863C25.7483 15.3805 26.1241 15.7606 26.1241 16.2278C26.1241 16.695 25.7483 17.0751 25.2863 17.0751H22.6298C22.1679 17.0751 21.7921 16.695 21.7921 16.2278C21.7921 15.7606 22.1679 15.3805 22.6298 15.3805ZM20.7787 24.0479H16.9904C16.183 24.0479 15.618 23.5599 15.244 23.237C15.1856 23.1865 15.1304 23.1388 15.08 23.0983C14.808 22.8793 14.4688 22.7587 14.125 22.7587H13.7042V15.676C13.7376 15.6764 13.7707 15.6768 13.8035 15.6772C14.8939 15.6906 15.7554 15.7015 16.6649 14.5683C17.1029 14.0226 17.6249 12.995 17.6249 11.1984V9.80013C17.6249 9.70673 17.6964 9.6303 17.7843 9.62971C17.7885 9.62967 17.7926 9.62967 17.7968 9.62967C18.373 9.62967 18.9432 9.89037 19.3242 10.3287C19.7175 10.781 19.8938 11.4787 19.8634 12.4616C19.85 12.8962 19.8333 13.4372 19.7679 13.9438C19.7311 14.2287 19.7763 14.519 19.8987 14.7832L19.9007 14.7879C19.9018 14.7902 19.9027 14.7923 19.904 14.7953L19.9046 14.7969C20.0041 15.033 20.0799 15.2902 20.0917 15.5488C20.1063 15.871 20.0422 16.1954 19.9002 16.5149C19.8973 16.5214 19.6028 17.1779 18.7917 17.542C18.6346 17.6125 18.5637 17.7985 18.6334 17.9574C18.8744 18.5071 19.7693 17.6807 19.9902 17.4492C20.1775 17.2529 20.3586 17.0231 20.4687 16.7713C20.6503 16.3628 20.7327 15.9417 20.7135 15.5199C20.7113 15.473 20.7071 15.4243 20.7014 15.3747H21.439C21.2697 15.6159 21.1697 15.9102 21.1697 16.2278C21.1697 16.8393 21.5389 17.3651 22.0638 17.5892C21.8432 17.848 21.7093 18.1844 21.7093 18.5522C21.7093 18.9198 21.8432 19.2563 22.0637 19.5151C21.5389 19.7392 21.1697 20.265 21.1697 20.8764C21.1697 21.2282 21.2921 21.5515 21.4958 21.8054C20.9247 22.0061 20.5135 22.5556 20.5135 23.2007C20.5135 23.5157 20.6118 23.8078 20.7787 24.0479ZM24.6301 24.048L21.9721 24.0479C21.5109 24.047 21.136 23.6673 21.136 23.2007C21.136 22.7334 21.5118 22.3534 21.9737 22.3534H24.6302C25.0921 22.3534 25.4679 22.7334 25.4679 23.2007C25.4679 23.6679 25.092 24.048 24.6301 24.048ZM25.2863 21.7237H22.6298C22.1679 21.7237 21.7921 21.3436 21.7921 20.8763C21.7921 20.4092 22.1679 20.029 22.6298 20.029H25.2863C25.7483 20.029 26.1241 20.4092 26.1241 20.8763C26.124 21.3436 25.7482 21.7237 25.2863 21.7237ZM25.8259 19.3995H23.1694C22.7075 19.3995 22.3317 19.0193 22.3317 18.5521C22.3317 18.0849 22.7075 17.7048 23.1694 17.7048H25.8259C26.2879 17.7048 26.6637 18.0849 26.6637 18.5521C26.6637 19.0193 26.2879 19.3995 25.8259 19.3995Z" fill="#FFA727"></path><path d="M26.3921 17.1907C26.6127 16.932 26.7465 16.5955 26.7465 16.2277C26.7465 15.4133 26.0915 14.7508 25.2863 14.7508L20.5493 14.745C20.5486 14.7431 20.4962 14.5893 20.4629 14.5174L20.4624 14.5162C20.3904 14.3607 20.3637 14.191 20.3851 14.0253C20.4545 13.4878 20.4717 12.9297 20.4855 12.4812C20.5211 11.331 20.2941 10.4909 19.7916 9.91287C19.2867 9.33206 18.5608 9 17.7974 9C17.7917 9 17.7859 9 17.7802 9.00004C17.3513 9.00285 17.0024 9.36174 17.0024 9.80008V11.1984C17.0024 12.0881 16.86 13.3262 16.1816 14.1715C15.4619 15.0682 14.8404 15.0604 13.8111 15.0476C13.7758 15.0472 13.7402 15.0467 13.7042 15.0464V14.6685C13.7042 14.042 13.2002 13.5322 12.5808 13.5322H10.4095C9.79013 13.5322 9.28613 14.0419 9.28613 14.6685V17.8298C9.28613 18.0036 9.42544 18.1446 9.59737 18.1446C9.76929 18.1446 9.9086 18.0036 9.9086 17.8298V14.6685C9.9086 14.3891 10.1333 14.1618 10.4095 14.1618H12.5807C12.857 14.1618 13.0817 14.3891 13.0817 14.6685V23.8637C13.0817 24.1431 12.857 24.3704 12.5807 24.3704H10.4095C10.1333 24.3704 9.9086 24.1431 9.9086 23.8637V19.2661C9.9086 19.0922 9.76929 18.9513 9.59737 18.9513C9.42544 18.9513 9.28613 19.0922 9.28613 19.2661V23.8637C9.28613 24.4903 9.79013 25 10.4095 25H12.5807C13.2002 25 13.7041 24.4903 13.7041 23.8637V23.3882H14.1249C14.3285 23.3882 14.53 23.4602 14.6923 23.5909C14.7343 23.6246 14.7831 23.6669 14.8398 23.7158C15.229 24.0519 15.9534 24.6775 16.9903 24.6775L24.6301 24.6776C25.4353 24.6776 26.0903 24.0151 26.0903 23.2007C26.0903 22.8489 25.9679 22.5257 25.7642 22.2717C26.3353 22.071 26.7465 21.5215 26.7465 20.8764C26.7465 20.5088 26.6127 20.1723 26.3921 19.9135C26.9169 19.6894 27.2861 19.1636 27.2861 18.5522C27.2861 17.9407 26.9168 17.4149 26.3921 17.1907ZM22.6298 15.3805H25.2863C25.7483 15.3805 26.1241 15.7606 26.1241 16.2278C26.1241 16.695 25.7483 17.0751 25.2863 17.0751H22.6298C22.1679 17.0751 21.7921 16.695 21.7921 16.2278C21.7921 15.7606 22.1679 15.3805 22.6298 15.3805ZM20.7787 24.0479H16.9904C16.183 24.0479 15.618 23.5599 15.244 23.237C15.1856 23.1865 15.1304 23.1388 15.08 23.0983C14.808 22.8793 14.4688 22.7587 14.125 22.7587H13.7042V15.676C13.7376 15.6764 13.7707 15.6768 13.8035 15.6772C14.8939 15.6906 15.7554 15.7015 16.6649 14.5683C17.1029 14.0226 17.6249 12.995 17.6249 11.1984V9.80013C17.6249 9.70673 17.6964 9.6303 17.7843 9.62971C17.7885 9.62967 17.7926 9.62967 17.7968 9.62967C18.373 9.62967 18.9432 9.89037 19.3242 10.3287C19.7175 10.781 19.8938 11.4787 19.8634 12.4616C19.85 12.8962 19.8333 13.4372 19.7679 13.9438C19.7311 14.2287 19.7763 14.519 19.8987 14.7832L19.9007 14.7879C19.9018 14.7902 19.9027 14.7923 19.904 14.7953L19.9046 14.7969C20.0041 15.033 20.0799 15.2902 20.0917 15.5488C20.1063 15.871 20.0422 16.1954 19.9002 16.5149C19.8973 16.5214 19.6028 17.1779 18.7917 17.542C18.6346 17.6125 18.5637 17.7985 18.6334 17.9574C18.8744 18.5071 19.7693 17.6807 19.9902 17.4492C20.1775 17.2529 20.3586 17.0231 20.4687 16.7713C20.6503 16.3628 20.7327 15.9417 20.7135 15.5199C20.7113 15.473 20.7071 15.4243 20.7014 15.3747H21.439C21.2697 15.6159 21.1697 15.9102 21.1697 16.2278C21.1697 16.8393 21.5389 17.3651 22.0638 17.5892C21.8432 17.848 21.7093 18.1844 21.7093 18.5522C21.7093 18.9198 21.8432 19.2563 22.0637 19.5151C21.5389 19.7392 21.1697 20.265 21.1697 20.8764C21.1697 21.2282 21.2921 21.5515 21.4958 21.8054C20.9247 22.0061 20.5135 22.5556 20.5135 23.2007C20.5135 23.5157 20.6118 23.8078 20.7787 24.0479ZM24.6301 24.048L21.9721 24.0479C21.5109 24.047 21.136 23.6673 21.136 23.2007C21.136 22.7334 21.5118 22.3534 21.9737 22.3534H24.6302C25.0921 22.3534 25.4679 22.7334 25.4679 23.2007C25.4679 23.6679 25.092 24.048 24.6301 24.048ZM25.2863 21.7237H22.6298C22.1679 21.7237 21.7921 21.3436 21.7921 20.8763C21.7921 20.4092 22.1679 20.029 22.6298 20.029H25.2863C25.7483 20.029 26.1241 20.4092 26.1241 20.8763C26.124 21.3436 25.7482 21.7237 25.2863 21.7237ZM25.8259 19.3995H23.1694C22.7075 19.3995 22.3317 19.0193 22.3317 18.5521C22.3317 18.0849 22.7075 17.7048 23.1694 17.7048H25.8259C26.2879 17.7048 26.6637 18.0849 26.6637 18.5521C26.6637 19.0193 26.2879 19.3995 25.8259 19.3995Z" fill="#FFA900"></path><path d="M26.3921 17.1907C26.6127 16.932 26.7465 16.5955 26.7465 16.2277C26.7465 15.4133 26.0915 14.7508 25.2863 14.7508L20.5493 14.745C20.5486 14.7431 20.4962 14.5893 20.4629 14.5174L20.4624 14.5162C20.3904 14.3607 20.3637 14.191 20.3851 14.0253C20.4545 13.4878 20.4717 12.9297 20.4855 12.4812C20.5211 11.331 20.2941 10.4909 19.7916 9.91287C19.2867 9.33206 18.5608 9 17.7974 9C17.7917 9 17.7859 9 17.7802 9.00004C17.3513 9.00285 17.0024 9.36174 17.0024 9.80008V11.1984C17.0024 12.0881 16.86 13.3262 16.1816 14.1715C15.4619 15.0682 14.8404 15.0604 13.8111 15.0476C13.7758 15.0472 13.7402 15.0467 13.7042 15.0464V14.6685C13.7042 14.042 13.2002 13.5322 12.5808 13.5322H10.4095C9.79013 13.5322 9.28613 14.0419 9.28613 14.6685V17.8298C9.28613 18.0036 9.42544 18.1446 9.59737 18.1446C9.76929 18.1446 9.9086 18.0036 9.9086 17.8298V14.6685C9.9086 14.3891 10.1333 14.1618 10.4095 14.1618H12.5807C12.857 14.1618 13.0817 14.3891 13.0817 14.6685V23.8637C13.0817 24.1431 12.857 24.3704 12.5807 24.3704H10.4095C10.1333 24.3704 9.9086 24.1431 9.9086 23.8637V19.2661C9.9086 19.0922 9.76929 18.9513 9.59737 18.9513C9.42544 18.9513 9.28613 19.0922 9.28613 19.2661V23.8637C9.28613 24.4903 9.79013 25 10.4095 25H12.5807C13.2002 25 13.7041 24.4903 13.7041 23.8637V23.3882H14.1249C14.3285 23.3882 14.53 23.4602 14.6923 23.5909C14.7343 23.6246 14.7831 23.6669 14.8398 23.7158C15.229 24.0519 15.9534 24.6775 16.9903 24.6775L24.6301 24.6776C25.4353 24.6776 26.0903 24.0151 26.0903 23.2007C26.0903 22.8489 25.9679 22.5257 25.7642 22.2717C26.3353 22.071 26.7465 21.5215 26.7465 20.8764C26.7465 20.5088 26.6127 20.1723 26.3921 19.9135C26.9169 19.6894 27.2861 19.1636 27.2861 18.5522C27.2861 17.9407 26.9168 17.4149 26.3921 17.1907ZM22.6298 15.3805H25.2863C25.7483 15.3805 26.1241 15.7606 26.1241 16.2278C26.1241 16.695 25.7483 17.0751 25.2863 17.0751H22.6298C22.1679 17.0751 21.7921 16.695 21.7921 16.2278C21.7921 15.7606 22.1679 15.3805 22.6298 15.3805ZM20.7787 24.0479H16.9904C16.183 24.0479 15.618 23.5599 15.244 23.237C15.1856 23.1865 15.1304 23.1388 15.08 23.0983C14.808 22.8793 14.4688 22.7587 14.125 22.7587H13.7042V15.676C13.7376 15.6764 13.7707 15.6768 13.8035 15.6772C14.8939 15.6906 15.7554 15.7015 16.6649 14.5683C17.1029 14.0226 17.6249 12.995 17.6249 11.1984V9.80013C17.6249 9.70673 17.6964 9.6303 17.7843 9.62971C17.7885 9.62967 17.7926 9.62967 17.7968 9.62967C18.373 9.62967 18.9432 9.89037 19.3242 10.3287C19.7175 10.781 19.8938 11.4787 19.8634 12.4616C19.85 12.8962 19.8333 13.4372 19.7679 13.9438C19.7311 14.2287 19.7763 14.519 19.8987 14.7832L19.9007 14.7879C19.9018 14.7902 19.9027 14.7923 19.904 14.7953L19.9046 14.7969C20.0041 15.033 20.0799 15.2902 20.0917 15.5488C20.1063 15.871 20.0422 16.1954 19.9002 16.5149C19.8973 16.5214 19.6028 17.1779 18.7917 17.542C18.6346 17.6125 18.5637 17.7985 18.6334 17.9574C18.8744 18.5071 19.7693 17.6807 19.9902 17.4492C20.1775 17.2529 20.3586 17.0231 20.4687 16.7713C20.6503 16.3628 20.7327 15.9417 20.7135 15.5199C20.7113 15.473 20.7071 15.4243 20.7014 15.3747H21.439C21.2697 15.6159 21.1697 15.9102 21.1697 16.2278C21.1697 16.8393 21.5389 17.3651 22.0638 17.5892C21.8432 17.848 21.7093 18.1844 21.7093 18.5522C21.7093 18.9198 21.8432 19.2563 22.0637 19.5151C21.5389 19.7392 21.1697 20.265 21.1697 20.8764C21.1697 21.2282 21.2921 21.5515 21.4958 21.8054C20.9247 22.0061 20.5135 22.5556 20.5135 23.2007C20.5135 23.5157 20.6118 23.8078 20.7787 24.0479ZM24.6301 24.048L21.9721 24.0479C21.5109 24.047 21.136 23.6673 21.136 23.2007C21.136 22.7334 21.5118 22.3534 21.9737 22.3534H24.6302C25.0921 22.3534 25.4679 22.7334 25.4679 23.2007C25.4679 23.6679 25.092 24.048 24.6301 24.048ZM25.2863 21.7237H22.6298C22.1679 21.7237 21.7921 21.3436 21.7921 20.8763C21.7921 20.4092 22.1679 20.029 22.6298 20.029H25.2863C25.7483 20.029 26.1241 20.4092 26.1241 20.8763C26.124 21.3436 25.7482 21.7237 25.2863 21.7237ZM25.8259 19.3995H23.1694C22.7075 19.3995 22.3317 19.0193 22.3317 18.5521C22.3317 18.0849 22.7075 17.7048 23.1694 17.7048H25.8259C26.2879 17.7048 26.6637 18.0849 26.6637 18.5521C26.6637 19.0193 26.2879 19.3995 25.8259 19.3995Z" fill="#FF674B"></path><path d="M26.3921 17.1907C26.6127 16.932 26.7465 16.5955 26.7465 16.2277C26.7465 15.4133 26.0915 14.7508 25.2863 14.7508L20.5493 14.745C20.5486 14.7431 20.4962 14.5893 20.4629 14.5174L20.4624 14.5162C20.3904 14.3607 20.3637 14.191 20.3851 14.0253C20.4545 13.4878 20.4717 12.9297 20.4855 12.4812C20.5211 11.331 20.2941 10.4909 19.7916 9.91287C19.2867 9.33206 18.5608 9 17.7974 9C17.7917 9 17.7859 9 17.7802 9.00004C17.3513 9.00285 17.0024 9.36174 17.0024 9.80008V11.1984C17.0024 12.0881 16.86 13.3262 16.1816 14.1715C15.4619 15.0682 14.8404 15.0604 13.8111 15.0476C13.7758 15.0472 13.7402 15.0467 13.7042 15.0464V14.6685C13.7042 14.042 13.2002 13.5322 12.5808 13.5322H10.4095C9.79013 13.5322 9.28613 14.0419 9.28613 14.6685V17.8298C9.28613 18.0036 9.42544 18.1446 9.59737 18.1446C9.76929 18.1446 9.9086 18.0036 9.9086 17.8298V14.6685C9.9086 14.3891 10.1333 14.1618 10.4095 14.1618H12.5807C12.857 14.1618 13.0817 14.3891 13.0817 14.6685V23.8637C13.0817 24.1431 12.857 24.3704 12.5807 24.3704H10.4095C10.1333 24.3704 9.9086 24.1431 9.9086 23.8637V19.2661C9.9086 19.0922 9.76929 18.9513 9.59737 18.9513C9.42544 18.9513 9.28613 19.0922 9.28613 19.2661V23.8637C9.28613 24.4903 9.79013 25 10.4095 25H12.5807C13.2002 25 13.7041 24.4903 13.7041 23.8637V23.3882H14.1249C14.3285 23.3882 14.53 23.4602 14.6923 23.5909C14.7343 23.6246 14.7831 23.6669 14.8398 23.7158C15.229 24.0519 15.9534 24.6775 16.9903 24.6775L24.6301 24.6776C25.4353 24.6776 26.0903 24.0151 26.0903 23.2007C26.0903 22.8489 25.9679 22.5257 25.7642 22.2717C26.3353 22.071 26.7465 21.5215 26.7465 20.8764C26.7465 20.5088 26.6127 20.1723 26.3921 19.9135C26.9169 19.6894 27.2861 19.1636 27.2861 18.5522C27.2861 17.9407 26.9168 17.4149 26.3921 17.1907ZM22.6298 15.3805H25.2863C25.7483 15.3805 26.1241 15.7606 26.1241 16.2278C26.1241 16.695 25.7483 17.0751 25.2863 17.0751H22.6298C22.1679 17.0751 21.7921 16.695 21.7921 16.2278C21.7921 15.7606 22.1679 15.3805 22.6298 15.3805ZM20.7787 24.0479H16.9904C16.183 24.0479 15.618 23.5599 15.244 23.237C15.1856 23.1865 15.1304 23.1388 15.08 23.0983C14.808 22.8793 14.4688 22.7587 14.125 22.7587H13.7042V15.676C13.7376 15.6764 13.7707 15.6768 13.8035 15.6772C14.8939 15.6906 15.7554 15.7015 16.6649 14.5683C17.1029 14.0226 17.6249 12.995 17.6249 11.1984V9.80013C17.6249 9.70673 17.6964 9.6303 17.7843 9.62971C17.7885 9.62967 17.7926 9.62967 17.7968 9.62967C18.373 9.62967 18.9432 9.89037 19.3242 10.3287C19.7175 10.781 19.8938 11.4787 19.8634 12.4616C19.85 12.8962 19.8333 13.4372 19.7679 13.9438C19.7311 14.2287 19.7763 14.519 19.8987 14.7832L19.9007 14.7879C19.9018 14.7902 19.9027 14.7923 19.904 14.7953L19.9046 14.7969C20.0041 15.033 20.0799 15.2902 20.0917 15.5488C20.1063 15.871 20.0422 16.1954 19.9002 16.5149C19.8973 16.5214 19.6028 17.1779 18.7917 17.542C18.6346 17.6125 18.5637 17.7985 18.6334 17.9574C18.8744 18.5071 19.7693 17.6807 19.9902 17.4492C20.1775 17.2529 20.3586 17.0231 20.4687 16.7713C20.6503 16.3628 20.7327 15.9417 20.7135 15.5199C20.7113 15.473 20.7071 15.4243 20.7014 15.3747H21.439C21.2697 15.6159 21.1697 15.9102 21.1697 16.2278C21.1697 16.8393 21.5389 17.3651 22.0638 17.5892C21.8432 17.848 21.7093 18.1844 21.7093 18.5522C21.7093 18.9198 21.8432 19.2563 22.0637 19.5151C21.5389 19.7392 21.1697 20.265 21.1697 20.8764C21.1697 21.2282 21.2921 21.5515 21.4958 21.8054C20.9247 22.0061 20.5135 22.5556 20.5135 23.2007C20.5135 23.5157 20.6118 23.8078 20.7787 24.0479ZM24.6301 24.048L21.9721 24.0479C21.5109 24.047 21.136 23.6673 21.136 23.2007C21.136 22.7334 21.5118 22.3534 21.9737 22.3534H24.6302C25.0921 22.3534 25.4679 22.7334 25.4679 23.2007C25.4679 23.6679 25.092 24.048 24.6301 24.048ZM25.2863 21.7237H22.6298C22.1679 21.7237 21.7921 21.3436 21.7921 20.8763C21.7921 20.4092 22.1679 20.029 22.6298 20.029H25.2863C25.7483 20.029 26.1241 20.4092 26.1241 20.8763C26.124 21.3436 25.7482 21.7237 25.2863 21.7237ZM25.8259 19.3995H23.1694C22.7075 19.3995 22.3317 19.0193 22.3317 18.5521C22.3317 18.0849 22.7075 17.7048 23.1694 17.7048H25.8259C26.2879 17.7048 26.6637 18.0849 26.6637 18.5521C26.6637 19.0193 26.2879 19.3995 25.8259 19.3995Z" stroke="#795824" stroke-width="0.5"></path><path d="M26.3921 17.1907C26.6127 16.932 26.7465 16.5955 26.7465 16.2277C26.7465 15.4133 26.0915 14.7508 25.2863 14.7508L20.5493 14.745C20.5486 14.7431 20.4962 14.5893 20.4629 14.5174L20.4624 14.5162C20.3904 14.3607 20.3637 14.191 20.3851 14.0253C20.4545 13.4878 20.4717 12.9297 20.4855 12.4812C20.5211 11.331 20.2941 10.4909 19.7916 9.91287C19.2867 9.33206 18.5608 9 17.7974 9C17.7917 9 17.7859 9 17.7802 9.00004C17.3513 9.00285 17.0024 9.36174 17.0024 9.80008V11.1984C17.0024 12.0881 16.86 13.3262 16.1816 14.1715C15.4619 15.0682 14.8404 15.0604 13.8111 15.0476C13.7758 15.0472 13.7402 15.0467 13.7042 15.0464V14.6685C13.7042 14.042 13.2002 13.5322 12.5808 13.5322H10.4095C9.79013 13.5322 9.28613 14.0419 9.28613 14.6685V17.8298C9.28613 18.0036 9.42544 18.1446 9.59737 18.1446C9.76929 18.1446 9.9086 18.0036 9.9086 17.8298V14.6685C9.9086 14.3891 10.1333 14.1618 10.4095 14.1618H12.5807C12.857 14.1618 13.0817 14.3891 13.0817 14.6685V23.8637C13.0817 24.1431 12.857 24.3704 12.5807 24.3704H10.4095C10.1333 24.3704 9.9086 24.1431 9.9086 23.8637V19.2661C9.9086 19.0922 9.76929 18.9513 9.59737 18.9513C9.42544 18.9513 9.28613 19.0922 9.28613 19.2661V23.8637C9.28613 24.4903 9.79013 25 10.4095 25H12.5807C13.2002 25 13.7041 24.4903 13.7041 23.8637V23.3882H14.1249C14.3285 23.3882 14.53 23.4602 14.6923 23.5909C14.7343 23.6246 14.7831 23.6669 14.8398 23.7158C15.229 24.0519 15.9534 24.6775 16.9903 24.6775L24.6301 24.6776C25.4353 24.6776 26.0903 24.0151 26.0903 23.2007C26.0903 22.8489 25.9679 22.5257 25.7642 22.2717C26.3353 22.071 26.7465 21.5215 26.7465 20.8764C26.7465 20.5088 26.6127 20.1723 26.3921 19.9135C26.9169 19.6894 27.2861 19.1636 27.2861 18.5522C27.2861 17.9407 26.9168 17.4149 26.3921 17.1907ZM22.6298 15.3805H25.2863C25.7483 15.3805 26.1241 15.7606 26.1241 16.2278C26.1241 16.695 25.7483 17.0751 25.2863 17.0751H22.6298C22.1679 17.0751 21.7921 16.695 21.7921 16.2278C21.7921 15.7606 22.1679 15.3805 22.6298 15.3805ZM20.7787 24.0479H16.9904C16.183 24.0479 15.618 23.5599 15.244 23.237C15.1856 23.1865 15.1304 23.1388 15.08 23.0983C14.808 22.8793 14.4688 22.7587 14.125 22.7587H13.7042V15.676C13.7376 15.6764 13.7707 15.6768 13.8035 15.6772C14.8939 15.6906 15.7554 15.7015 16.6649 14.5683C17.1029 14.0226 17.6249 12.995 17.6249 11.1984V9.80013C17.6249 9.70673 17.6964 9.6303 17.7843 9.62971C17.7885 9.62967 17.7926 9.62967 17.7968 9.62967C18.373 9.62967 18.9432 9.89037 19.3242 10.3287C19.7175 10.781 19.8938 11.4787 19.8634 12.4616C19.85 12.8962 19.8333 13.4372 19.7679 13.9438C19.7311 14.2287 19.7763 14.519 19.8987 14.7832L19.9007 14.7879C19.9018 14.7902 19.9027 14.7923 19.904 14.7953L19.9046 14.7969C20.0041 15.033 20.0799 15.2902 20.0917 15.5488C20.1063 15.871 20.0422 16.1954 19.9002 16.5149C19.8973 16.5214 19.6028 17.1779 18.7917 17.542C18.6346 17.6125 18.5637 17.7985 18.6334 17.9574C18.8744 18.5071 19.7693 17.6807 19.9902 17.4492C20.1775 17.2529 20.3586 17.0231 20.4687 16.7713C20.6503 16.3628 20.7327 15.9417 20.7135 15.5199C20.7113 15.473 20.7071 15.4243 20.7014 15.3747H21.439C21.2697 15.6159 21.1697 15.9102 21.1697 16.2278C21.1697 16.8393 21.5389 17.3651 22.0638 17.5892C21.8432 17.848 21.7093 18.1844 21.7093 18.5522C21.7093 18.9198 21.8432 19.2563 22.0637 19.5151C21.5389 19.7392 21.1697 20.265 21.1697 20.8764C21.1697 21.2282 21.2921 21.5515 21.4958 21.8054C20.9247 22.0061 20.5135 22.5556 20.5135 23.2007C20.5135 23.5157 20.6118 23.8078 20.7787 24.0479ZM24.6301 24.048L21.9721 24.0479C21.5109 24.047 21.136 23.6673 21.136 23.2007C21.136 22.7334 21.5118 22.3534 21.9737 22.3534H24.6302C25.0921 22.3534 25.4679 22.7334 25.4679 23.2007C25.4679 23.6679 25.092 24.048 24.6301 24.048ZM25.2863 21.7237H22.6298C22.1679 21.7237 21.7921 21.3436 21.7921 20.8763C21.7921 20.4092 22.1679 20.029 22.6298 20.029H25.2863C25.7483 20.029 26.1241 20.4092 26.1241 20.8763C26.124 21.3436 25.7482 21.7237 25.2863 21.7237ZM25.8259 19.3995H23.1694C22.7075 19.3995 22.3317 19.0193 22.3317 18.5521C22.3317 18.0849 22.7075 17.7048 23.1694 17.7048H25.8259C26.2879 17.7048 26.6637 18.0849 26.6637 18.5521C26.6637 19.0193 26.2879 19.3995 25.8259 19.3995Z" stroke="#FFB64C" stroke-width="0.5"></path><path d="M26.3921 17.1907C26.6127 16.932 26.7465 16.5955 26.7465 16.2277C26.7465 15.4133 26.0915 14.7508 25.2863 14.7508L20.5493 14.745C20.5486 14.7431 20.4962 14.5893 20.4629 14.5174L20.4624 14.5162C20.3904 14.3607 20.3637 14.191 20.3851 14.0253C20.4545 13.4878 20.4717 12.9297 20.4855 12.4812C20.5211 11.331 20.2941 10.4909 19.7916 9.91287C19.2867 9.33206 18.5608 9 17.7974 9C17.7917 9 17.7859 9 17.7802 9.00004C17.3513 9.00285 17.0024 9.36174 17.0024 9.80008V11.1984C17.0024 12.0881 16.86 13.3262 16.1816 14.1715C15.4619 15.0682 14.8404 15.0604 13.8111 15.0476C13.7758 15.0472 13.7402 15.0467 13.7042 15.0464V14.6685C13.7042 14.042 13.2002 13.5322 12.5808 13.5322H10.4095C9.79013 13.5322 9.28613 14.0419 9.28613 14.6685V17.8298C9.28613 18.0036 9.42544 18.1446 9.59737 18.1446C9.76929 18.1446 9.9086 18.0036 9.9086 17.8298V14.6685C9.9086 14.3891 10.1333 14.1618 10.4095 14.1618H12.5807C12.857 14.1618 13.0817 14.3891 13.0817 14.6685V23.8637C13.0817 24.1431 12.857 24.3704 12.5807 24.3704H10.4095C10.1333 24.3704 9.9086 24.1431 9.9086 23.8637V19.2661C9.9086 19.0922 9.76929 18.9513 9.59737 18.9513C9.42544 18.9513 9.28613 19.0922 9.28613 19.2661V23.8637C9.28613 24.4903 9.79013 25 10.4095 25H12.5807C13.2002 25 13.7041 24.4903 13.7041 23.8637V23.3882H14.1249C14.3285 23.3882 14.53 23.4602 14.6923 23.5909C14.7343 23.6246 14.7831 23.6669 14.8398 23.7158C15.229 24.0519 15.9534 24.6775 16.9903 24.6775L24.6301 24.6776C25.4353 24.6776 26.0903 24.0151 26.0903 23.2007C26.0903 22.8489 25.9679 22.5257 25.7642 22.2717C26.3353 22.071 26.7465 21.5215 26.7465 20.8764C26.7465 20.5088 26.6127 20.1723 26.3921 19.9135C26.9169 19.6894 27.2861 19.1636 27.2861 18.5522C27.2861 17.9407 26.9168 17.4149 26.3921 17.1907ZM22.6298 15.3805H25.2863C25.7483 15.3805 26.1241 15.7606 26.1241 16.2278C26.1241 16.695 25.7483 17.0751 25.2863 17.0751H22.6298C22.1679 17.0751 21.7921 16.695 21.7921 16.2278C21.7921 15.7606 22.1679 15.3805 22.6298 15.3805ZM20.7787 24.0479H16.9904C16.183 24.0479 15.618 23.5599 15.244 23.237C15.1856 23.1865 15.1304 23.1388 15.08 23.0983C14.808 22.8793 14.4688 22.7587 14.125 22.7587H13.7042V15.676C13.7376 15.6764 13.7707 15.6768 13.8035 15.6772C14.8939 15.6906 15.7554 15.7015 16.6649 14.5683C17.1029 14.0226 17.6249 12.995 17.6249 11.1984V9.80013C17.6249 9.70673 17.6964 9.6303 17.7843 9.62971C17.7885 9.62967 17.7926 9.62967 17.7968 9.62967C18.373 9.62967 18.9432 9.89037 19.3242 10.3287C19.7175 10.781 19.8938 11.4787 19.8634 12.4616C19.85 12.8962 19.8333 13.4372 19.7679 13.9438C19.7311 14.2287 19.7763 14.519 19.8987 14.7832L19.9007 14.7879C19.9018 14.7902 19.9027 14.7923 19.904 14.7953L19.9046 14.7969C20.0041 15.033 20.0799 15.2902 20.0917 15.5488C20.1063 15.871 20.0422 16.1954 19.9002 16.5149C19.8973 16.5214 19.6028 17.1779 18.7917 17.542C18.6346 17.6125 18.5637 17.7985 18.6334 17.9574C18.8744 18.5071 19.7693 17.6807 19.9902 17.4492C20.1775 17.2529 20.3586 17.0231 20.4687 16.7713C20.6503 16.3628 20.7327 15.9417 20.7135 15.5199C20.7113 15.473 20.7071 15.4243 20.7014 15.3747H21.439C21.2697 15.6159 21.1697 15.9102 21.1697 16.2278C21.1697 16.8393 21.5389 17.3651 22.0638 17.5892C21.8432 17.848 21.7093 18.1844 21.7093 18.5522C21.7093 18.9198 21.8432 19.2563 22.0637 19.5151C21.5389 19.7392 21.1697 20.265 21.1697 20.8764C21.1697 21.2282 21.2921 21.5515 21.4958 21.8054C20.9247 22.0061 20.5135 22.5556 20.5135 23.2007C20.5135 23.5157 20.6118 23.8078 20.7787 24.0479ZM24.6301 24.048L21.9721 24.0479C21.5109 24.047 21.136 23.6673 21.136 23.2007C21.136 22.7334 21.5118 22.3534 21.9737 22.3534H24.6302C25.0921 22.3534 25.4679 22.7334 25.4679 23.2007C25.4679 23.6679 25.092 24.048 24.6301 24.048ZM25.2863 21.7237H22.6298C22.1679 21.7237 21.7921 21.3436 21.7921 20.8763C21.7921 20.4092 22.1679 20.029 22.6298 20.029H25.2863C25.7483 20.029 26.1241 20.4092 26.1241 20.8763C26.124 21.3436 25.7482 21.7237 25.2863 21.7237ZM25.8259 19.3995H23.1694C22.7075 19.3995 22.3317 19.0193 22.3317 18.5521C22.3317 18.0849 22.7075 17.7048 23.1694 17.7048H25.8259C26.2879 17.7048 26.6637 18.0849 26.6637 18.5521C26.6637 19.0193 26.2879 19.3995 25.8259 19.3995Z" stroke="#FFA727" stroke-width="0.5"></path><path d="M26.3921 17.1907C26.6127 16.932 26.7465 16.5955 26.7465 16.2277C26.7465 15.4133 26.0915 14.7508 25.2863 14.7508L20.5493 14.745C20.5486 14.7431 20.4962 14.5893 20.4629 14.5174L20.4624 14.5162C20.3904 14.3607 20.3637 14.191 20.3851 14.0253C20.4545 13.4878 20.4717 12.9297 20.4855 12.4812C20.5211 11.331 20.2941 10.4909 19.7916 9.91287C19.2867 9.33206 18.5608 9 17.7974 9C17.7917 9 17.7859 9 17.7802 9.00004C17.3513 9.00285 17.0024 9.36174 17.0024 9.80008V11.1984C17.0024 12.0881 16.86 13.3262 16.1816 14.1715C15.4619 15.0682 14.8404 15.0604 13.8111 15.0476C13.7758 15.0472 13.7402 15.0467 13.7042 15.0464V14.6685C13.7042 14.042 13.2002 13.5322 12.5808 13.5322H10.4095C9.79013 13.5322 9.28613 14.0419 9.28613 14.6685V17.8298C9.28613 18.0036 9.42544 18.1446 9.59737 18.1446C9.76929 18.1446 9.9086 18.0036 9.9086 17.8298V14.6685C9.9086 14.3891 10.1333 14.1618 10.4095 14.1618H12.5807C12.857 14.1618 13.0817 14.3891 13.0817 14.6685V23.8637C13.0817 24.1431 12.857 24.3704 12.5807 24.3704H10.4095C10.1333 24.3704 9.9086 24.1431 9.9086 23.8637V19.2661C9.9086 19.0922 9.76929 18.9513 9.59737 18.9513C9.42544 18.9513 9.28613 19.0922 9.28613 19.2661V23.8637C9.28613 24.4903 9.79013 25 10.4095 25H12.5807C13.2002 25 13.7041 24.4903 13.7041 23.8637V23.3882H14.1249C14.3285 23.3882 14.53 23.4602 14.6923 23.5909C14.7343 23.6246 14.7831 23.6669 14.8398 23.7158C15.229 24.0519 15.9534 24.6775 16.9903 24.6775L24.6301 24.6776C25.4353 24.6776 26.0903 24.0151 26.0903 23.2007C26.0903 22.8489 25.9679 22.5257 25.7642 22.2717C26.3353 22.071 26.7465 21.5215 26.7465 20.8764C26.7465 20.5088 26.6127 20.1723 26.3921 19.9135C26.9169 19.6894 27.2861 19.1636 27.2861 18.5522C27.2861 17.9407 26.9168 17.4149 26.3921 17.1907ZM22.6298 15.3805H25.2863C25.7483 15.3805 26.1241 15.7606 26.1241 16.2278C26.1241 16.695 25.7483 17.0751 25.2863 17.0751H22.6298C22.1679 17.0751 21.7921 16.695 21.7921 16.2278C21.7921 15.7606 22.1679 15.3805 22.6298 15.3805ZM20.7787 24.0479H16.9904C16.183 24.0479 15.618 23.5599 15.244 23.237C15.1856 23.1865 15.1304 23.1388 15.08 23.0983C14.808 22.8793 14.4688 22.7587 14.125 22.7587H13.7042V15.676C13.7376 15.6764 13.7707 15.6768 13.8035 15.6772C14.8939 15.6906 15.7554 15.7015 16.6649 14.5683C17.1029 14.0226 17.6249 12.995 17.6249 11.1984V9.80013C17.6249 9.70673 17.6964 9.6303 17.7843 9.62971C17.7885 9.62967 17.7926 9.62967 17.7968 9.62967C18.373 9.62967 18.9432 9.89037 19.3242 10.3287C19.7175 10.781 19.8938 11.4787 19.8634 12.4616C19.85 12.8962 19.8333 13.4372 19.7679 13.9438C19.7311 14.2287 19.7763 14.519 19.8987 14.7832L19.9007 14.7879C19.9018 14.7902 19.9027 14.7923 19.904 14.7953L19.9046 14.7969C20.0041 15.033 20.0799 15.2902 20.0917 15.5488C20.1063 15.871 20.0422 16.1954 19.9002 16.5149C19.8973 16.5214 19.6028 17.1779 18.7917 17.542C18.6346 17.6125 18.5637 17.7985 18.6334 17.9574C18.8744 18.5071 19.7693 17.6807 19.9902 17.4492C20.1775 17.2529 20.3586 17.0231 20.4687 16.7713C20.6503 16.3628 20.7327 15.9417 20.7135 15.5199C20.7113 15.473 20.7071 15.4243 20.7014 15.3747H21.439C21.2697 15.6159 21.1697 15.9102 21.1697 16.2278C21.1697 16.8393 21.5389 17.3651 22.0638 17.5892C21.8432 17.848 21.7093 18.1844 21.7093 18.5522C21.7093 18.9198 21.8432 19.2563 22.0637 19.5151C21.5389 19.7392 21.1697 20.265 21.1697 20.8764C21.1697 21.2282 21.2921 21.5515 21.4958 21.8054C20.9247 22.0061 20.5135 22.5556 20.5135 23.2007C20.5135 23.5157 20.6118 23.8078 20.7787 24.0479ZM24.6301 24.048L21.9721 24.0479C21.5109 24.047 21.136 23.6673 21.136 23.2007C21.136 22.7334 21.5118 22.3534 21.9737 22.3534H24.6302C25.0921 22.3534 25.4679 22.7334 25.4679 23.2007C25.4679 23.6679 25.092 24.048 24.6301 24.048ZM25.2863 21.7237H22.6298C22.1679 21.7237 21.7921 21.3436 21.7921 20.8763C21.7921 20.4092 22.1679 20.029 22.6298 20.029H25.2863C25.7483 20.029 26.1241 20.4092 26.1241 20.8763C26.124 21.3436 25.7482 21.7237 25.2863 21.7237ZM25.8259 19.3995H23.1694C22.7075 19.3995 22.3317 19.0193 22.3317 18.5521C22.3317 18.0849 22.7075 17.7048 23.1694 17.7048H25.8259C26.2879 17.7048 26.6637 18.0849 26.6637 18.5521C26.6637 19.0193 26.2879 19.3995 25.8259 19.3995Z" stroke="#FFA900" stroke-width="0.5"></path><path d="M26.3921 17.1907C26.6127 16.932 26.7465 16.5955 26.7465 16.2277C26.7465 15.4133 26.0915 14.7508 25.2863 14.7508L20.5493 14.745C20.5486 14.7431 20.4962 14.5893 20.4629 14.5174L20.4624 14.5162C20.3904 14.3607 20.3637 14.191 20.3851 14.0253C20.4545 13.4878 20.4717 12.9297 20.4855 12.4812C20.5211 11.331 20.2941 10.4909 19.7916 9.91287C19.2867 9.33206 18.5608 9 17.7974 9C17.7917 9 17.7859 9 17.7802 9.00004C17.3513 9.00285 17.0024 9.36174 17.0024 9.80008V11.1984C17.0024 12.0881 16.86 13.3262 16.1816 14.1715C15.4619 15.0682 14.8404 15.0604 13.8111 15.0476C13.7758 15.0472 13.7402 15.0467 13.7042 15.0464V14.6685C13.7042 14.042 13.2002 13.5322 12.5808 13.5322H10.4095C9.79013 13.5322 9.28613 14.0419 9.28613 14.6685V17.8298C9.28613 18.0036 9.42544 18.1446 9.59737 18.1446C9.76929 18.1446 9.9086 18.0036 9.9086 17.8298V14.6685C9.9086 14.3891 10.1333 14.1618 10.4095 14.1618H12.5807C12.857 14.1618 13.0817 14.3891 13.0817 14.6685V23.8637C13.0817 24.1431 12.857 24.3704 12.5807 24.3704H10.4095C10.1333 24.3704 9.9086 24.1431 9.9086 23.8637V19.2661C9.9086 19.0922 9.76929 18.9513 9.59737 18.9513C9.42544 18.9513 9.28613 19.0922 9.28613 19.2661V23.8637C9.28613 24.4903 9.79013 25 10.4095 25H12.5807C13.2002 25 13.7041 24.4903 13.7041 23.8637V23.3882H14.1249C14.3285 23.3882 14.53 23.4602 14.6923 23.5909C14.7343 23.6246 14.7831 23.6669 14.8398 23.7158C15.229 24.0519 15.9534 24.6775 16.9903 24.6775L24.6301 24.6776C25.4353 24.6776 26.0903 24.0151 26.0903 23.2007C26.0903 22.8489 25.9679 22.5257 25.7642 22.2717C26.3353 22.071 26.7465 21.5215 26.7465 20.8764C26.7465 20.5088 26.6127 20.1723 26.3921 19.9135C26.9169 19.6894 27.2861 19.1636 27.2861 18.5522C27.2861 17.9407 26.9168 17.4149 26.3921 17.1907ZM22.6298 15.3805H25.2863C25.7483 15.3805 26.1241 15.7606 26.1241 16.2278C26.1241 16.695 25.7483 17.0751 25.2863 17.0751H22.6298C22.1679 17.0751 21.7921 16.695 21.7921 16.2278C21.7921 15.7606 22.1679 15.3805 22.6298 15.3805ZM20.7787 24.0479H16.9904C16.183 24.0479 15.618 23.5599 15.244 23.237C15.1856 23.1865 15.1304 23.1388 15.08 23.0983C14.808 22.8793 14.4688 22.7587 14.125 22.7587H13.7042V15.676C13.7376 15.6764 13.7707 15.6768 13.8035 15.6772C14.8939 15.6906 15.7554 15.7015 16.6649 14.5683C17.1029 14.0226 17.6249 12.995 17.6249 11.1984V9.80013C17.6249 9.70673 17.6964 9.6303 17.7843 9.62971C17.7885 9.62967 17.7926 9.62967 17.7968 9.62967C18.373 9.62967 18.9432 9.89037 19.3242 10.3287C19.7175 10.781 19.8938 11.4787 19.8634 12.4616C19.85 12.8962 19.8333 13.4372 19.7679 13.9438C19.7311 14.2287 19.7763 14.519 19.8987 14.7832L19.9007 14.7879C19.9018 14.7902 19.9027 14.7923 19.904 14.7953L19.9046 14.7969C20.0041 15.033 20.0799 15.2902 20.0917 15.5488C20.1063 15.871 20.0422 16.1954 19.9002 16.5149C19.8973 16.5214 19.6028 17.1779 18.7917 17.542C18.6346 17.6125 18.5637 17.7985 18.6334 17.9574C18.8744 18.5071 19.7693 17.6807 19.9902 17.4492C20.1775 17.2529 20.3586 17.0231 20.4687 16.7713C20.6503 16.3628 20.7327 15.9417 20.7135 15.5199C20.7113 15.473 20.7071 15.4243 20.7014 15.3747H21.439C21.2697 15.6159 21.1697 15.9102 21.1697 16.2278C21.1697 16.8393 21.5389 17.3651 22.0638 17.5892C21.8432 17.848 21.7093 18.1844 21.7093 18.5522C21.7093 18.9198 21.8432 19.2563 22.0637 19.5151C21.5389 19.7392 21.1697 20.265 21.1697 20.8764C21.1697 21.2282 21.2921 21.5515 21.4958 21.8054C20.9247 22.0061 20.5135 22.5556 20.5135 23.2007C20.5135 23.5157 20.6118 23.8078 20.7787 24.0479ZM24.6301 24.048L21.9721 24.0479C21.5109 24.047 21.136 23.6673 21.136 23.2007C21.136 22.7334 21.5118 22.3534 21.9737 22.3534H24.6302C25.0921 22.3534 25.4679 22.7334 25.4679 23.2007C25.4679 23.6679 25.092 24.048 24.6301 24.048ZM25.2863 21.7237H22.6298C22.1679 21.7237 21.7921 21.3436 21.7921 20.8763C21.7921 20.4092 22.1679 20.029 22.6298 20.029H25.2863C25.7483 20.029 26.1241 20.4092 26.1241 20.8763C26.124 21.3436 25.7482 21.7237 25.2863 21.7237ZM25.8259 19.3995H23.1694C22.7075 19.3995 22.3317 19.0193 22.3317 18.5521C22.3317 18.0849 22.7075 17.7048 23.1694 17.7048H25.8259C26.2879 17.7048 26.6637 18.0849 26.6637 18.5521C26.6637 19.0193 26.2879 19.3995 25.8259 19.3995Z" stroke="#FF674B" stroke-width="0.5"></path></svg> 