<?xml version="1.0" encoding="UTF-8"?> <svg xmlns="http://www.w3.org/2000/svg" width="40" height="40" viewBox="0 0 40 40" fill="none"><path d="M39.3655 22.2514C39.4713 22.0409 39.5324 21.804 39.5324 21.5527V20.4357C39.5324 19.714 39.0401 19.1069 38.3742 18.9281C38.4163 18.7869 38.4398 18.6376 38.4398 18.4828V17.3657C38.4398 16.5042 37.739 15.8033 36.8777 15.8033H34.2848C33.9612 15.8033 33.699 16.0656 33.699 16.3893C33.699 16.7129 33.9612 16.9752 34.2848 16.9752H36.8777C37.0931 16.9752 37.2682 17.1504 37.2682 17.3657V18.4828C37.2682 18.6981 37.0931 18.8733 36.8777 18.8733H31.8537C31.4691 18.2472 31.0445 17.6156 30.5779 16.9752H31.9444C32.268 16.9752 32.5302 16.7129 32.5302 16.3893C32.5302 16.0656 32.268 15.8033 31.9444 15.8033H29.6849C29.4819 15.5476 29.2727 15.2904 29.0562 15.0312H29.3219C30.5127 15.0312 31.4815 14.0622 31.4815 12.8712C31.4815 11.6801 30.5127 10.7111 29.3219 10.7111H28.2908L30.3716 5.7901C30.6631 5.10048 30.5903 4.31619 30.1769 3.69212C29.7633 3.06806 29.0695 2.69548 28.3211 2.69548H25.5581L25.5622 2.67938C25.7282 2.03227 25.5885 1.35836 25.1791 0.830549C24.7697 0.302735 24.1516 0 23.4836 0H16.5066C15.8386 0 15.2207 0.302735 14.8113 0.830549C14.4019 1.35836 14.2622 2.03227 14.4282 2.67938L14.4323 2.69548H11.6693C10.9209 2.69548 10.2271 3.06806 9.81354 3.69212C9.40005 4.31611 9.32718 5.10041 9.61882 5.7901L10.1634 7.07783C10.2894 7.37588 10.6331 7.51518 10.9311 7.38916C11.229 7.26315 11.3685 6.91932 11.2423 6.62127L10.6978 5.33353C10.5576 5.00197 10.5912 4.63962 10.7901 4.33955C10.989 4.03947 11.3094 3.86736 11.6693 3.86736H14.7328L15.6816 7.56854C15.7619 7.88198 16.0811 8.0712 16.3946 7.99049C16.708 7.91018 16.8969 7.59088 16.8164 7.27737C16.5517 6.24471 15.8413 3.4736 15.563 2.38821C15.4877 2.09438 15.5511 1.78852 15.737 1.54891C15.9229 1.3093 16.2034 1.17188 16.5067 1.17188H23.4837C23.787 1.17188 24.0675 1.3093 24.2534 1.54891C24.4393 1.78852 24.5026 2.09438 24.4274 2.38821C24.1497 3.47142 23.4399 6.23994 23.174 7.27737C23.0936 7.59088 23.2825 7.91018 23.5958 7.99049C23.9103 8.07112 24.2287 7.88088 24.3088 7.56854L25.2576 3.86736H28.3211C28.6809 3.86736 29.0014 4.03947 29.2003 4.33955C29.3992 4.63962 29.4328 5.00197 29.2926 5.33353L27.0188 10.7111H22.4686L22.6599 10.0017C22.7442 9.68925 22.5593 9.36769 22.2469 9.28339C21.9346 9.19893 21.6131 9.38401 21.5288 9.69652L21.2551 10.7111H18.7356L18.4619 9.69652C18.3776 9.38401 18.056 9.19901 17.7438 9.28339C17.4314 9.36769 17.2465 9.68925 17.3308 10.0017L17.5221 10.7111H12.9719L12.1549 8.77901C12.0289 8.48096 11.6852 8.34167 11.3872 8.46768C11.0893 8.5937 10.9498 8.93753 11.076 9.23558L11.7 10.7112H10.6688C9.47808 10.7112 8.50933 11.6802 8.50933 12.8713C8.50933 14.0623 9.47808 15.0313 10.6688 15.0313H10.9346C9.83151 16.3518 8.90486 17.6235 8.137 18.8733H1.56204C0.700766 18.8733 0 19.5741 0 20.4357V21.5527C0 22.0667 0.250486 22.5221 0.634611 22.807C0.528777 23.0176 0.467698 23.2544 0.467698 23.5057V24.6227C0.467698 24.8741 0.528699 25.1109 0.634611 25.3214C0.250486 25.6063 0 26.0617 0 26.5757V27.6927C0 28.0621 0.1295 28.4015 0.344603 28.6692C0.1295 28.937 0 29.2763 0 29.6456V30.7627C0 31.6242 0.700766 32.3251 1.56204 32.3251H5.2941C5.36166 32.874 5.44625 33.4353 5.54872 34.0113C5.57997 34.1871 5.50741 34.3676 5.36393 34.4711L4.88271 34.8184C4.20155 35.3099 3.77228 36.0721 3.70496 36.9095C3.63771 37.7469 3.93966 38.5679 4.5335 39.162C5.78046 40.4093 7.84605 40.2408 8.87604 38.8127L9.72708 37.6329C9.82963 37.4906 10.0133 37.4307 10.1839 37.4836C10.6857 37.6396 11.2269 37.7843 11.7928 37.9139C12.1081 37.9861 12.4224 37.789 12.4945 37.4736C12.5668 37.1582 12.3696 36.8439 12.0542 36.7717C11.5173 36.6487 11.005 36.5117 10.5316 36.3646C9.87962 36.1619 9.1744 36.3961 8.77692 36.9474L7.92596 38.1272C7.31236 38.9777 6.09133 39.0627 5.36205 38.3334C5.01143 37.9826 4.83312 37.4979 4.8728 37.0035C4.91255 36.5091 5.166 36.059 5.56809 35.7689L6.04938 35.4216C6.55551 35.0562 6.81177 34.4221 6.70211 33.806C6.03689 30.0672 6.13795 26.978 7.02001 24.0842C8.0578 20.6794 10.14 17.7038 12.476 15.0313H17.562C17.4447 15.8871 16.9826 17.4737 15.1829 18.1366C11.9805 19.3161 11.5991 21.5694 11.5844 21.6648C11.5352 21.9847 11.7546 22.2839 12.0743 22.3331C12.1045 22.3378 12.1345 22.34 12.1641 22.34C12.4483 22.34 12.6978 22.1327 12.7424 21.8431C12.7449 21.8266 13.067 20.1647 15.5877 19.2364C17.6408 18.4801 18.4587 16.718 18.6951 15.3929C18.8951 15.52 19.1178 15.6758 19.3403 15.8584C20.2049 16.5684 20.6374 17.3195 20.6259 18.091C20.6211 18.4146 20.8794 18.6808 21.2029 18.6856C21.5279 18.6928 21.7925 18.4321 21.7973 18.1085C21.8173 16.774 21.0092 15.7397 20.1782 15.0313H27.5141C29.8537 17.708 31.9333 20.6828 32.9701 24.0842C33.8521 26.978 33.9532 30.0672 33.288 33.806C33.1784 34.4221 33.4346 35.0562 33.9408 35.4217L34.422 35.7688C34.8242 36.0591 35.0777 36.5091 35.1174 37.0036C35.157 37.4979 34.9788 37.9826 34.628 38.3333C33.8986 39.0631 32.6773 38.9771 32.0641 38.1272L31.2132 36.9474C30.8157 36.3961 30.1105 36.1619 29.4585 36.3646C25.4962 37.5961 19.4134 37.9279 14.3224 37.1901C14.0028 37.1433 13.705 37.3657 13.6586 37.6861C13.6122 38.0064 13.8342 38.3036 14.1544 38.35C19.4025 39.1102 25.6924 38.7622 29.8062 37.4836C29.977 37.4304 30.1604 37.4906 30.2632 37.6329L31.1141 38.8127C32.1455 40.2427 34.2117 40.407 35.4567 39.162C36.0506 38.5679 36.3525 37.747 36.2852 36.9096C36.2179 36.0721 35.7887 35.31 35.1074 34.8183L34.6263 34.4712C34.4828 34.3676 34.4101 34.1871 34.4414 34.0114C34.5439 33.4353 34.6285 32.874 34.6961 32.3251H37.9703C38.8316 32.3251 39.5323 31.6242 39.5323 30.7627V29.6456C39.5323 29.2763 39.4028 28.9369 39.1878 28.6692C39.4029 28.4014 39.5323 28.062 39.5323 27.6927V26.5756C39.5323 26.3243 39.4713 26.0875 39.3654 25.877C39.7495 25.592 40 25.1366 40 24.6227V23.5056C40.0001 22.9917 39.7496 22.5363 39.3655 22.2514ZM1.17159 20.4357C1.17159 20.2203 1.3467 20.0451 1.56204 20.0451H7.45982C7.11678 20.6801 6.81365 21.3116 6.54942 21.9433H2.02966H1.56204C1.3467 21.9433 1.17159 21.7681 1.17159 21.5527V20.4357ZM1.56204 28.0832C1.3467 28.0832 1.17159 27.9081 1.17159 27.6927V26.5756C1.17159 26.3602 1.3467 26.1851 1.56204 26.1851H2.02966H5.3362C5.23755 26.805 5.16975 27.4367 5.13258 28.0832H1.56204ZM5.89942 23.7423C5.77148 24.1621 5.65948 24.5854 5.56224 25.0133H2.02966C1.8144 25.0133 1.63929 24.8381 1.63929 24.6227V23.5057C1.63929 23.2903 1.8144 23.1152 2.02966 23.1152H6.10312C6.03134 23.3239 5.96331 23.5329 5.89942 23.7423ZM1.56204 31.1532C1.3467 31.1532 1.17159 30.9781 1.17159 30.7627V29.6456C1.17159 29.4303 1.3467 29.2551 1.56204 29.2551H5.09829C5.09751 29.8722 5.12289 30.5039 5.1746 31.1532H1.56204ZM9.68045 12.8712C9.68045 12.3263 10.1236 11.883 10.6683 11.883C33.8743 11.8988 25.1079 11.8832 29.3217 11.883C29.8665 11.883 30.3097 12.3264 30.3097 12.8712C30.3097 13.4161 29.8665 13.8593 29.3217 13.8593H10.6684C10.1236 13.8593 9.68045 13.4161 9.68045 12.8712ZM38.438 23.1152C38.6534 23.1152 38.8285 23.2903 38.8285 23.5057V24.6227C38.8285 24.8381 38.6534 25.0133 38.438 25.0133H37.9704H34.428C34.3308 24.5855 34.2188 24.1621 34.0908 23.7423C34.027 23.5329 33.959 23.3239 33.8871 23.1152H37.9704H38.438ZM38.3608 26.5757V27.6927C38.3608 27.9081 38.1857 28.0833 37.9704 28.0833H34.8577C34.8205 27.4367 34.7527 26.8051 34.6541 26.1852H37.9704C38.1857 26.1852 38.3608 26.3603 38.3608 26.5757ZM36.8776 20.0451H37.9703C38.1856 20.0451 38.3607 20.2203 38.3607 20.4357V21.5527C38.3607 21.7681 38.1856 21.9433 37.9703 21.9433H33.4407C33.1765 21.3116 32.8735 20.6801 32.5303 20.0451H36.8776ZM38.3608 30.7627C38.3608 30.9781 38.1857 31.1532 37.9704 31.1532H34.8157C34.8674 30.5039 34.8927 29.8722 34.892 29.2551H37.9705C38.1858 29.2551 38.3609 29.4303 38.3609 29.6456V30.7627H38.3608Z" fill="#393533"></path><path d="M17.9554 30.971C17.6846 30.7939 17.3217 30.8697 17.1445 31.1406C16.9673 31.4114 17.0433 31.7745 17.3141 31.9517C18.1088 32.4717 18.6489 32.6216 19.3548 32.658V33.3572C19.3548 33.6808 19.617 33.9431 19.9406 33.9431C20.2642 33.9431 20.5264 33.6808 20.5264 33.3572V32.6126C21.9136 32.3525 22.7238 31.214 22.9024 30.1508C23.1304 28.7938 22.4205 27.6138 21.0938 27.1447C20.9075 27.0788 20.7166 27.0095 20.5264 26.9373V23.917C21.2291 24.0023 21.7338 24.3048 21.7482 24.3136C22.0216 24.4843 22.3819 24.4023 22.5539 24.1293C22.7266 23.8555 22.6447 23.4937 22.3711 23.3211C22.3269 23.2932 21.5766 22.8299 20.5264 22.7378V22.1375C20.5264 21.8138 20.2642 21.5515 19.9406 21.5515C19.617 21.5515 19.3548 21.8138 19.3548 22.1375V22.8072C19.2549 22.8286 19.154 22.8539 19.0521 22.8846C18.1797 23.1475 17.5278 23.8947 17.3507 24.8345C17.1895 25.6904 17.4629 26.5153 18.0643 26.9872C18.3897 27.2424 18.796 27.4761 19.3548 27.7236V31.4855C18.8533 31.4533 18.5167 31.3382 17.9554 30.971ZM18.7873 26.065C18.5314 25.8643 18.4221 25.476 18.502 25.0516C18.5754 24.6622 18.8384 24.192 19.3548 24.0191V26.4231C19.1403 26.3092 18.9466 26.19 18.7873 26.065ZM20.7033 28.2495C21.8687 28.6615 21.7969 29.6602 21.747 29.9565C21.6482 30.5447 21.2329 31.1704 20.5264 31.4024V28.1861C20.5847 28.2072 20.6427 28.2281 20.7033 28.2495Z" fill="#795824"></path><path d="M17.9554 30.971C17.6846 30.7939 17.3217 30.8697 17.1445 31.1406C16.9673 31.4114 17.0433 31.7745 17.3141 31.9517C18.1088 32.4717 18.6489 32.6216 19.3548 32.658V33.3572C19.3548 33.6808 19.617 33.9431 19.9406 33.9431C20.2642 33.9431 20.5264 33.6808 20.5264 33.3572V32.6126C21.9136 32.3525 22.7238 31.214 22.9024 30.1508C23.1304 28.7938 22.4205 27.6138 21.0938 27.1447C20.9075 27.0788 20.7166 27.0095 20.5264 26.9373V23.917C21.2291 24.0023 21.7338 24.3048 21.7482 24.3136C22.0216 24.4843 22.3819 24.4023 22.5539 24.1293C22.7266 23.8555 22.6447 23.4937 22.3711 23.3211C22.3269 23.2932 21.5766 22.8299 20.5264 22.7378V22.1375C20.5264 21.8138 20.2642 21.5515 19.9406 21.5515C19.617 21.5515 19.3548 21.8138 19.3548 22.1375V22.8072C19.2549 22.8286 19.154 22.8539 19.0521 22.8846C18.1797 23.1475 17.5278 23.8947 17.3507 24.8345C17.1895 25.6904 17.4629 26.5153 18.0643 26.9872C18.3897 27.2424 18.796 27.4761 19.3548 27.7236V31.4855C18.8533 31.4533 18.5167 31.3382 17.9554 30.971ZM18.7873 26.065C18.5314 25.8643 18.4221 25.476 18.502 25.0516C18.5754 24.6622 18.8384 24.192 19.3548 24.0191V26.4231C19.1403 26.3092 18.9466 26.19 18.7873 26.065ZM20.7033 28.2495C21.8687 28.6615 21.7969 29.6602 21.747 29.9565C21.6482 30.5447 21.2329 31.1704 20.5264 31.4024V28.1861C20.5847 28.2072 20.6427 28.2281 20.7033 28.2495Z" fill="#FFB64C"></path><path d="M17.9554 30.971C17.6846 30.7939 17.3217 30.8697 17.1445 31.1406C16.9673 31.4114 17.0433 31.7745 17.3141 31.9517C18.1088 32.4717 18.6489 32.6216 19.3548 32.658V33.3572C19.3548 33.6808 19.617 33.9431 19.9406 33.9431C20.2642 33.9431 20.5264 33.6808 20.5264 33.3572V32.6126C21.9136 32.3525 22.7238 31.214 22.9024 30.1508C23.1304 28.7938 22.4205 27.6138 21.0938 27.1447C20.9075 27.0788 20.7166 27.0095 20.5264 26.9373V23.917C21.2291 24.0023 21.7338 24.3048 21.7482 24.3136C22.0216 24.4843 22.3819 24.4023 22.5539 24.1293C22.7266 23.8555 22.6447 23.4937 22.3711 23.3211C22.3269 23.2932 21.5766 22.8299 20.5264 22.7378V22.1375C20.5264 21.8138 20.2642 21.5515 19.9406 21.5515C19.617 21.5515 19.3548 21.8138 19.3548 22.1375V22.8072C19.2549 22.8286 19.154 22.8539 19.0521 22.8846C18.1797 23.1475 17.5278 23.8947 17.3507 24.8345C17.1895 25.6904 17.4629 26.5153 18.0643 26.9872C18.3897 27.2424 18.796 27.4761 19.3548 27.7236V31.4855C18.8533 31.4533 18.5167 31.3382 17.9554 30.971ZM18.7873 26.065C18.5314 25.8643 18.4221 25.476 18.502 25.0516C18.5754 24.6622 18.8384 24.192 19.3548 24.0191V26.4231C19.1403 26.3092 18.9466 26.19 18.7873 26.065ZM20.7033 28.2495C21.8687 28.6615 21.7969 29.6602 21.747 29.9565C21.6482 30.5447 21.2329 31.1704 20.5264 31.4024V28.1861C20.5847 28.2072 20.6427 28.2281 20.7033 28.2495Z" fill="#FFA727"></path><path d="M17.9554 30.971C17.6846 30.7939 17.3217 30.8697 17.1445 31.1406C16.9673 31.4114 17.0433 31.7745 17.3141 31.9517C18.1088 32.4717 18.6489 32.6216 19.3548 32.658V33.3572C19.3548 33.6808 19.617 33.9431 19.9406 33.9431C20.2642 33.9431 20.5264 33.6808 20.5264 33.3572V32.6126C21.9136 32.3525 22.7238 31.214 22.9024 30.1508C23.1304 28.7938 22.4205 27.6138 21.0938 27.1447C20.9075 27.0788 20.7166 27.0095 20.5264 26.9373V23.917C21.2291 24.0023 21.7338 24.3048 21.7482 24.3136C22.0216 24.4843 22.3819 24.4023 22.5539 24.1293C22.7266 23.8555 22.6447 23.4937 22.3711 23.3211C22.3269 23.2932 21.5766 22.8299 20.5264 22.7378V22.1375C20.5264 21.8138 20.2642 21.5515 19.9406 21.5515C19.617 21.5515 19.3548 21.8138 19.3548 22.1375V22.8072C19.2549 22.8286 19.154 22.8539 19.0521 22.8846C18.1797 23.1475 17.5278 23.8947 17.3507 24.8345C17.1895 25.6904 17.4629 26.5153 18.0643 26.9872C18.3897 27.2424 18.796 27.4761 19.3548 27.7236V31.4855C18.8533 31.4533 18.5167 31.3382 17.9554 30.971ZM18.7873 26.065C18.5314 25.8643 18.4221 25.476 18.502 25.0516C18.5754 24.6622 18.8384 24.192 19.3548 24.0191V26.4231C19.1403 26.3092 18.9466 26.19 18.7873 26.065ZM20.7033 28.2495C21.8687 28.6615 21.7969 29.6602 21.747 29.9565C21.6482 30.5447 21.2329 31.1704 20.5264 31.4024V28.1861C20.5847 28.2072 20.6427 28.2281 20.7033 28.2495Z" fill="#FFA900"></path><path d="M17.9554 30.971C17.6846 30.7939 17.3217 30.8697 17.1445 31.1406C16.9673 31.4114 17.0433 31.7745 17.3141 31.9517C18.1088 32.4717 18.6489 32.6216 19.3548 32.658V33.3572C19.3548 33.6808 19.617 33.9431 19.9406 33.9431C20.2642 33.9431 20.5264 33.6808 20.5264 33.3572V32.6126C21.9136 32.3525 22.7238 31.214 22.9024 30.1508C23.1304 28.7938 22.4205 27.6138 21.0938 27.1447C20.9075 27.0788 20.7166 27.0095 20.5264 26.9373V23.917C21.2291 24.0023 21.7338 24.3048 21.7482 24.3136C22.0216 24.4843 22.3819 24.4023 22.5539 24.1293C22.7266 23.8555 22.6447 23.4937 22.3711 23.3211C22.3269 23.2932 21.5766 22.8299 20.5264 22.7378V22.1375C20.5264 21.8138 20.2642 21.5515 19.9406 21.5515C19.617 21.5515 19.3548 21.8138 19.3548 22.1375V22.8072C19.2549 22.8286 19.154 22.8539 19.0521 22.8846C18.1797 23.1475 17.5278 23.8947 17.3507 24.8345C17.1895 25.6904 17.4629 26.5153 18.0643 26.9872C18.3897 27.2424 18.796 27.4761 19.3548 27.7236V31.4855C18.8533 31.4533 18.5167 31.3382 17.9554 30.971ZM18.7873 26.065C18.5314 25.8643 18.4221 25.476 18.502 25.0516C18.5754 24.6622 18.8384 24.192 19.3548 24.0191V26.4231C19.1403 26.3092 18.9466 26.19 18.7873 26.065ZM20.7033 28.2495C21.8687 28.6615 21.7969 29.6602 21.747 29.9565C21.6482 30.5447 21.2329 31.1704 20.5264 31.4024V28.1861C20.5847 28.2072 20.6427 28.2281 20.7033 28.2495Z" fill="#FF674B"></path><path d="M13.0666 7.31876C13.1147 7.31876 13.1637 7.31274 13.2125 7.30024C13.526 7.21985 13.715 6.90055 13.6345 6.58712L13.4329 5.80125C13.3525 5.48782 13.0337 5.29906 12.7198 5.3793C12.4063 5.45969 12.2174 5.77899 12.2978 6.09243L12.4994 6.87829C12.5674 7.1429 12.8054 7.31876 13.0666 7.31876Z" fill="#795824"></path><path d="M13.0666 7.31876C13.1147 7.31876 13.1637 7.31274 13.2125 7.30024C13.526 7.21985 13.715 6.90055 13.6345 6.58712L13.4329 5.80125C13.3525 5.48782 13.0337 5.29906 12.7198 5.3793C12.4063 5.45969 12.2174 5.77899 12.2978 6.09243L12.4994 6.87829C12.5674 7.1429 12.8054 7.31876 13.0666 7.31876Z" fill="#FFB64C"></path><path d="M13.0666 7.31876C13.1147 7.31876 13.1637 7.31274 13.2125 7.30024C13.526 7.21985 13.715 6.90055 13.6345 6.58712L13.4329 5.80125C13.3525 5.48782 13.0337 5.29906 12.7198 5.3793C12.4063 5.45969 12.2174 5.77899 12.2978 6.09243L12.4994 6.87829C12.5674 7.1429 12.8054 7.31876 13.0666 7.31876Z" fill="#FFA727"></path><path d="M13.0666 7.31876C13.1147 7.31876 13.1637 7.31274 13.2125 7.30024C13.526 7.21985 13.715 6.90055 13.6345 6.58712L13.4329 5.80125C13.3525 5.48782 13.0337 5.29906 12.7198 5.3793C12.4063 5.45969 12.2174 5.77899 12.2978 6.09243L12.4994 6.87829C12.5674 7.1429 12.8054 7.31876 13.0666 7.31876Z" fill="#FFA900"></path><path d="M13.0666 7.31876C13.1147 7.31876 13.1637 7.31274 13.2125 7.30024C13.526 7.21985 13.715 6.90055 13.6345 6.58712L13.4329 5.80125C13.3525 5.48782 13.0337 5.29906 12.7198 5.3793C12.4063 5.45969 12.2174 5.77899 12.2978 6.09243L12.4994 6.87829C12.5674 7.1429 12.8054 7.31876 13.0666 7.31876Z" fill="#FF674B"></path><path d="M26.9243 7.31888C27.1855 7.31888 27.4237 7.14295 27.4915 6.87834L27.693 6.09247C27.7734 5.77896 27.5844 5.45966 27.271 5.37935C26.9573 5.29896 26.6382 5.48794 26.5579 5.8013L26.3564 6.58716C26.276 6.90068 26.465 7.21998 26.7784 7.30029C26.8272 7.31287 26.8762 7.31888 26.9243 7.31888Z" fill="#795824"></path><path d="M26.9243 7.31888C27.1855 7.31888 27.4237 7.14295 27.4915 6.87834L27.693 6.09247C27.7734 5.77896 27.5844 5.45966 27.271 5.37935C26.9573 5.29896 26.6382 5.48794 26.5579 5.8013L26.3564 6.58716C26.276 6.90068 26.465 7.21998 26.7784 7.30029C26.8272 7.31287 26.8762 7.31888 26.9243 7.31888Z" fill="#FFB64C"></path><path d="M26.9243 7.31888C27.1855 7.31888 27.4237 7.14295 27.4915 6.87834L27.693 6.09247C27.7734 5.77896 27.5844 5.45966 27.271 5.37935C26.9573 5.29896 26.6382 5.48794 26.5579 5.8013L26.3564 6.58716C26.276 6.90068 26.465 7.21998 26.7784 7.30029C26.8272 7.31287 26.8762 7.31888 26.9243 7.31888Z" fill="#FFA727"></path><path d="M26.9243 7.31888C27.1855 7.31888 27.4237 7.14295 27.4915 6.87834L27.693 6.09247C27.7734 5.77896 27.5844 5.45966 27.271 5.37935C26.9573 5.29896 26.6382 5.48794 26.5579 5.8013L26.3564 6.58716C26.276 6.90068 26.465 7.21998 26.7784 7.30029C26.8272 7.31287 26.8762 7.31888 26.9243 7.31888Z" fill="#FFA900"></path><path d="M26.9243 7.31888C27.1855 7.31888 27.4237 7.14295 27.4915 6.87834L27.693 6.09247C27.7734 5.77896 27.5844 5.45966 27.271 5.37935C26.9573 5.29896 26.6382 5.48794 26.5579 5.8013L26.3564 6.58716C26.276 6.90068 26.465 7.21998 26.7784 7.30029C26.8272 7.31287 26.8762 7.31888 26.9243 7.31888Z" fill="#FF674B"></path><path d="M18.7557 5.4563H21.2359C21.5595 5.4563 21.8217 5.19404 21.8217 4.87036C21.8217 4.54669 21.5595 4.28442 21.2359 4.28442H18.7557C18.4321 4.28442 18.1699 4.54669 18.1699 4.87036C18.1699 5.19404 18.4321 5.4563 18.7557 5.4563Z" fill="#795824"></path><path d="M18.7557 5.4563H21.2359C21.5595 5.4563 21.8217 5.19404 21.8217 4.87036C21.8217 4.54669 21.5595 4.28442 21.2359 4.28442H18.7557C18.4321 4.28442 18.1699 4.54669 18.1699 4.87036C18.1699 5.19404 18.4321 5.4563 18.7557 5.4563Z" fill="#FFB64C"></path><path d="M18.7557 5.4563H21.2359C21.5595 5.4563 21.8217 5.19404 21.8217 4.87036C21.8217 4.54669 21.5595 4.28442 21.2359 4.28442H18.7557C18.4321 4.28442 18.1699 4.54669 18.1699 4.87036C18.1699 5.19404 18.4321 5.4563 18.7557 5.4563Z" fill="#FFA727"></path><path d="M18.7557 5.4563H21.2359C21.5595 5.4563 21.8217 5.19404 21.8217 4.87036C21.8217 4.54669 21.5595 4.28442 21.2359 4.28442H18.7557C18.4321 4.28442 18.1699 4.54669 18.1699 4.87036C18.1699 5.19404 18.4321 5.4563 18.7557 5.4563Z" fill="#FFA900"></path><path d="M18.7557 5.4563H21.2359C21.5595 5.4563 21.8217 5.19404 21.8217 4.87036C21.8217 4.54669 21.5595 4.28442 21.2359 4.28442H18.7557C18.4321 4.28442 18.1699 4.54669 18.1699 4.87036C18.1699 5.19404 18.4321 5.4563 18.7557 5.4563Z" fill="#FF674B"></path></svg> 