<?xml version="1.0" encoding="UTF-8"?> <svg xmlns="http://www.w3.org/2000/svg" width="48" height="30" viewBox="0 0 48 30" fill="none"><path d="M44.106 12.718L42.8778 7.80547C43.2136 7.73414 43.4656 7.43625 43.4656 7.07935V6.28728C43.4656 4.56753 42.0664 3.16847 40.3467 3.16847H34.7527V1.53468C34.7527 0.688418 34.0643 0 33.218 0H4.70295C3.8567 0 3.16828 0.688418 3.16828 1.53468V15.0001C3.16828 15.4102 3.50072 15.7427 3.91088 15.7427C4.32095 15.7427 4.65349 15.4103 4.65349 15.0001V1.53468C4.65349 1.50735 4.67563 1.48521 4.70295 1.48521H33.2179C33.2453 1.48521 33.2674 1.50735 33.2674 1.53468V15.0003C33.2674 15.4104 33.5998 15.7429 34.01 15.7429C34.4201 15.7429 34.7526 15.4105 34.7526 15.0003V14.1585H43.5124C43.5132 14.1585 43.5137 14.1587 43.5144 14.1587C43.5151 14.1587 43.5158 14.1586 43.5164 14.1586C44.5943 14.1593 45.5096 14.8668 45.824 15.8418H43.5149C43.1049 15.8418 42.7723 16.1742 42.7723 16.5844V18.1685C42.7723 19.4515 43.8161 20.4953 45.0991 20.4953H45.9407V23.7626H43.999C43.3612 21.9208 41.6104 20.5942 39.5545 20.5942C37.4986 20.5942 35.7477 21.9208 35.11 23.7626H34.7524V18.1684C34.7524 17.7584 34.42 17.4258 34.0098 17.4258C33.5997 17.4258 33.2672 17.7583 33.2672 18.1684V23.7624H17.8604C17.2226 21.9206 15.4718 20.594 13.4159 20.594C11.36 20.594 9.60914 21.9206 8.97139 23.7624H4.70295C4.67563 23.7624 4.65349 23.7402 4.65349 23.7129V22.0792H7.87133C8.28139 22.0792 8.61393 21.7468 8.61393 21.3366C8.61393 20.9264 8.28149 20.594 7.87133 20.594H0.742606C0.332538 20.594 0 20.9264 0 21.3366C0 21.7468 0.332445 22.0792 0.742606 22.0792H3.16837V23.7129C3.16837 24.5592 3.85679 25.2476 4.70305 25.2476H8.71425C8.71406 25.2641 8.71295 25.2805 8.71295 25.297C8.71295 27.8903 10.8228 30 13.4159 30C16.0091 30 18.1189 27.8903 18.1189 25.297C18.1189 25.2804 18.1177 25.2641 18.1176 25.2476H34.8528C34.8526 25.2641 34.8515 25.2805 34.8515 25.297C34.8515 27.8903 36.9613 30 39.5545 30C42.1476 30 44.2574 27.8903 44.2574 25.297C44.2574 25.2804 44.2563 25.2641 44.2561 25.2476H46.6833C47.0934 25.2476 47.4259 24.9151 47.4259 24.505V16.5842C47.426 14.6286 45.9831 13.0038 44.106 12.718ZM34.7527 4.65358H40.3467C41.2476 4.65358 41.9804 5.38646 41.9804 6.28728V6.33674H34.7527V4.65358ZM34.7527 12.6734V7.82186H41.3511L42.564 12.6734H34.7527ZM13.4159 28.5151C11.6416 28.5151 10.1981 27.0716 10.1981 25.2972C10.1981 23.5228 11.6416 22.0794 13.4159 22.0794C15.1902 22.0794 16.6337 23.5228 16.6337 25.2972C16.6337 27.0716 15.1902 28.5151 13.4159 28.5151ZM39.5547 28.5151C37.7804 28.5151 36.3368 27.0716 36.3368 25.2972C36.3368 23.5228 37.7804 22.0794 39.5547 22.0794C41.329 22.0794 42.7725 23.5228 42.7725 25.2972C42.7725 27.0716 41.329 28.5151 39.5547 28.5151ZM45.9409 19.01H45.0993C44.6352 19.01 44.2576 18.6325 44.2576 18.1684V17.3268H45.9408V19.01H45.9409Z" fill="white"></path><path d="M13.4165 23.7627C12.5703 23.7627 11.8818 24.4511 11.8818 25.2974C11.8818 26.1436 12.5703 26.832 13.4165 26.832C14.2628 26.832 14.9512 26.1436 14.9512 25.2974C14.9512 24.4511 14.2628 23.7627 13.4165 23.7627Z" fill="white"></path><path d="M39.5542 23.7627C38.708 23.7627 38.0195 24.4511 38.0195 25.2974C38.0195 26.1436 38.708 26.832 39.5542 26.832C40.4005 26.832 41.0889 26.1436 41.0889 25.2974C41.0889 24.4511 40.4005 23.7627 39.5542 23.7627Z" fill="white"></path><path d="M30.8425 20.5947H19.7533C19.3433 20.5947 19.0107 20.9272 19.0107 21.3373C19.0107 21.7475 19.3432 22.0799 19.7533 22.0799H30.8425C31.2526 22.0799 31.5851 21.7475 31.5851 21.3373C31.5851 20.9272 31.2527 20.5947 30.8425 20.5947Z" fill="white"></path><path d="M11.8326 17.4258H2.32757C1.9175 17.4258 1.58496 17.7582 1.58496 18.1684C1.58496 18.5785 1.91741 18.911 2.32757 18.911H11.8326C12.2426 18.911 12.5752 18.5785 12.5752 18.1684C12.5752 17.7582 12.2426 17.4258 11.8326 17.4258Z" fill="white"></path><path d="M25.8217 7.34634C25.5317 7.05641 25.0615 7.05641 24.7715 7.34643L18.1678 13.95L14.7325 10.5147C14.4425 10.2247 13.9723 10.2247 13.6824 10.5147C13.3923 10.8047 13.3923 11.2748 13.6824 11.5648L17.6428 15.5253C17.7878 15.6703 17.9778 15.7428 18.1678 15.7428C18.3578 15.7428 18.548 15.6703 18.6928 15.5253L25.8216 8.39657C26.1116 8.10645 26.1116 7.63636 25.8217 7.34634Z" fill="#795824"></path><path d="M25.8217 7.34634C25.5317 7.05641 25.0615 7.05641 24.7715 7.34643L18.1678 13.95L14.7325 10.5147C14.4425 10.2247 13.9723 10.2247 13.6824 10.5147C13.3923 10.8047 13.3923 11.2748 13.6824 11.5648L17.6428 15.5253C17.7878 15.6703 17.9778 15.7428 18.1678 15.7428C18.3578 15.7428 18.548 15.6703 18.6928 15.5253L25.8216 8.39657C26.1116 8.10645 26.1116 7.63636 25.8217 7.34634Z" fill="#FFB64C"></path><path d="M25.8217 7.34634C25.5317 7.05641 25.0615 7.05641 24.7715 7.34643L18.1678 13.95L14.7325 10.5147C14.4425 10.2247 13.9723 10.2247 13.6824 10.5147C13.3923 10.8047 13.3923 11.2748 13.6824 11.5648L17.6428 15.5253C17.7878 15.6703 17.9778 15.7428 18.1678 15.7428C18.3578 15.7428 18.548 15.6703 18.6928 15.5253L25.8216 8.39657C26.1116 8.10645 26.1116 7.63636 25.8217 7.34634Z" fill="#FFA727"></path><path d="M25.8217 7.34634C25.5317 7.05641 25.0615 7.05641 24.7715 7.34643L18.1678 13.95L14.7325 10.5147C14.4425 10.2247 13.9723 10.2247 13.6824 10.5147C13.3923 10.8047 13.3923 11.2748 13.6824 11.5648L17.6428 15.5253C17.7878 15.6703 17.9778 15.7428 18.1678 15.7428C18.3578 15.7428 18.548 15.6703 18.6928 15.5253L25.8216 8.39657C26.1116 8.10645 26.1116 7.63636 25.8217 7.34634Z" fill="#FFA900"></path><path d="M25.8217 7.34634C25.5317 7.05641 25.0615 7.05641 24.7715 7.34643L18.1678 13.95L14.7325 10.5147C14.4425 10.2247 13.9723 10.2247 13.6824 10.5147C13.3923 10.8047 13.3923 11.2748 13.6824 11.5648L17.6428 15.5253C17.7878 15.6703 17.9778 15.7428 18.1678 15.7428C18.3578 15.7428 18.548 15.6703 18.6928 15.5253L25.8216 8.39657C26.1116 8.10645 26.1116 7.63636 25.8217 7.34634Z" fill="#FF674B"></path></svg> 