<?xml version="1.0" encoding="UTF-8"?> <svg xmlns="http://www.w3.org/2000/svg" width="33" height="40" viewBox="0 0 33 40" fill="none"><path d="M32.2534 6.30837C32.1694 5.36548 31.3921 4.65444 30.4454 4.65444H25.9602V4.1024H25.9899C26.6712 4.1024 27.2254 3.54817 27.2254 2.86688V1.23551C27.2254 0.554228 26.6711 0 25.9899 0H11.897C11.5735 0 11.3113 0.262237 11.3113 0.5857C11.3113 0.909162 11.5735 1.1714 11.897 1.1714H25.9899C26.0252 1.1714 26.054 1.20014 26.054 1.23551V2.86688C26.054 2.90226 26.0252 2.931 25.9899 2.931H6.29026C6.25497 2.931 6.22623 2.90226 6.22623 2.86688V1.23551C6.22623 1.20014 6.25497 1.1714 6.29026 1.1714H9.17027C9.49381 1.1714 9.75597 0.909162 9.75597 0.5857C9.75597 0.262237 9.49381 0 9.17027 0H6.29026C5.60898 0 5.05483 0.554228 5.05483 1.23551V2.86688C5.05483 3.54817 5.60906 4.1024 6.29026 4.1024H6.32002V4.65444H1.83481C0.888161 4.65444 0.110899 5.36548 0.0268702 6.3083C0.0161715 6.42817 -0.221622 9.28076 0.945872 12.4384C2.01395 15.3273 4.46327 19.0153 10.072 20.4658C10.9698 21.1734 11.9936 21.7282 13.1037 22.0901L13.3576 22.5092C13.8534 23.3275 14.1154 24.2951 14.1154 25.3077C14.1154 25.9263 14.0167 26.5306 13.8224 27.1036L13.4676 28.1492H8.00894C7.44105 28.1492 6.97897 28.6113 6.97897 29.1792V35.749H5.75493C5.18704 35.749 4.72496 36.2111 4.72496 36.779V38.97C4.72496 39.5378 5.18704 39.9999 5.75493 39.9999H26.5253C27.0932 39.9999 27.5553 39.5378 27.5553 38.97V36.779C27.5553 36.2111 27.0932 35.749 26.5253 35.749H25.3014V34.1763C25.3014 33.8529 25.0393 33.5907 24.7157 33.5907C24.3922 33.5907 24.13 33.8529 24.13 34.1763V35.749H8.15021V29.3206H24.13V31.4496C24.13 31.773 24.3922 32.0353 24.7157 32.0353C25.0393 32.0353 25.3014 31.773 25.3014 31.4496V29.1792C25.3014 28.6113 24.8394 28.1493 24.2715 28.1493H18.8128L18.4581 27.1037C18.2637 26.5306 18.165 25.9263 18.165 25.3077C18.165 24.2951 18.4271 23.3274 18.9228 22.5092L19.1767 22.0901C20.2868 21.7283 21.3105 21.1735 22.2084 20.4658C27.8171 19.0154 30.2664 15.3273 31.3345 12.4384C32.5019 9.28076 32.2641 6.42817 32.2534 6.30837ZM26.3839 36.9205V38.8287H5.89628V36.9205H26.3839ZM25.9602 12.7511V8.28468H28.5872C28.4805 9.33496 28.2499 10.3338 27.9012 11.255C27.4133 12.544 26.7093 13.6341 25.7977 14.5249C25.9032 13.9492 25.9602 13.3568 25.9602 12.7511ZM6.48315 14.5282C5.57087 13.6366 4.86725 12.5448 4.37901 11.255C4.03024 10.3338 3.79963 9.33496 3.69296 8.28468H6.32002V12.7511C6.32002 13.3579 6.37726 13.9514 6.48315 14.5282ZM2.04441 12.0321C0.967504 9.11919 1.18382 6.52157 1.19358 6.41232C1.22334 6.078 1.49901 5.82584 1.83473 5.82584H6.32002V7.11328H3.58449C3.28336 7.11328 2.99434 7.24089 2.79161 7.46345C2.58864 7.68625 2.48829 7.98629 2.51633 8.28656C2.62769 9.48068 2.88579 10.6189 3.28352 11.6696C4.06757 13.7414 5.33628 15.3592 7.07065 16.513C7.38357 17.2643 7.78669 17.9689 8.26735 18.6126C4.61017 17.0225 2.86986 14.2647 2.04441 12.0321ZM17.3487 27.48L17.5757 28.149H14.7045L14.9315 27.4799C15.1671 26.7854 15.2866 26.0546 15.2866 25.3077C15.2866 24.3018 15.0707 23.3292 14.6586 22.4595C15.1419 22.5329 15.6365 22.5711 16.14 22.5711C16.6435 22.5711 17.1382 22.5329 17.6214 22.4595C17.2093 23.3292 16.9934 24.3018 16.9934 25.3077C16.9936 26.0546 17.1131 26.7854 17.3487 27.48ZM16.1401 21.3997C11.3712 21.3997 7.49142 17.5199 7.49142 12.751V4.10232H24.7888V12.7511C24.7888 17.52 20.909 21.3997 16.1401 21.3997ZM30.2358 12.0321C29.4102 14.2649 27.6702 17.0235 24.0123 18.6135C24.4933 17.9694 24.8967 17.2645 25.2097 16.5127C26.9439 15.3589 28.2127 13.7413 28.9967 11.6696C29.3945 10.6188 29.6526 9.4806 29.7639 8.28656C29.7919 7.98621 29.6915 7.68617 29.4887 7.46337C29.2858 7.24081 28.9969 7.1132 28.6958 7.1132H25.9602V5.82584H30.4455C30.7813 5.82584 31.0569 6.078 31.0867 6.4124C31.0964 6.52157 31.3127 9.11919 30.2358 12.0321Z" fill="#393533"></path><path d="M15.9667 16C15.3519 16 14.8222 15.895 14.3778 15.685C13.9407 15.4749 13.6037 15.1974 13.3667 14.8523C13.137 14.5073 13.0148 14.136 13 13.7384V13.7159C13 13.6559 13.0222 13.6071 13.0667 13.5696C13.1111 13.5321 13.1667 13.5134 13.2333 13.5134H14.2667C14.437 13.5134 14.5481 13.5884 14.6 13.7384C14.7037 14.0684 14.8741 14.3122 15.1111 14.4698C15.3556 14.6273 15.6407 14.706 15.9667 14.706C16.3815 14.706 16.7259 14.5785 17 14.3235C17.2815 14.0684 17.4222 13.7121 17.4222 13.2546C17.4222 12.8495 17.2815 12.5195 17 12.2644C16.7259 12.0094 16.3815 11.8819 15.9667 11.8819C15.7444 11.8819 15.563 11.9119 15.4222 11.9719C15.2815 12.0319 15.1444 12.1144 15.0111 12.2194C14.9222 12.2869 14.8519 12.3357 14.8 12.3657C14.7556 12.3882 14.7 12.3994 14.6333 12.3994H13.6111C13.5444 12.3994 13.4852 12.3769 13.4333 12.3319C13.3889 12.2794 13.3667 12.2194 13.3667 12.1519L13.7556 8.3038C13.763 8.21378 13.7926 8.14252 13.8444 8.09001C13.9037 8.03 13.9778 8 14.0667 8H18.2444C18.3185 8 18.3815 8.02625 18.4333 8.07876C18.4852 8.13127 18.5111 8.19503 18.5111 8.27004V9.02391C18.5111 9.09892 18.4852 9.16268 18.4333 9.21519C18.3815 9.2677 18.3185 9.29395 18.2444 9.29395H15.0333L14.8556 11.128C15.2185 10.8729 15.7037 10.7454 16.3111 10.7454C16.7926 10.7454 17.237 10.8504 17.6444 11.0605C18.0593 11.263 18.3889 11.5593 18.6333 11.9494C18.8778 12.3319 19 12.7782 19 13.2883C19 13.8359 18.8741 14.316 18.6222 14.7286C18.3704 15.1336 18.0148 15.4487 17.5556 15.6737C17.1037 15.8912 16.5741 16 15.9667 16Z" fill="#795824"></path><path d="M15.9667 16C15.3519 16 14.8222 15.895 14.3778 15.685C13.9407 15.4749 13.6037 15.1974 13.3667 14.8523C13.137 14.5073 13.0148 14.136 13 13.7384V13.7159C13 13.6559 13.0222 13.6071 13.0667 13.5696C13.1111 13.5321 13.1667 13.5134 13.2333 13.5134H14.2667C14.437 13.5134 14.5481 13.5884 14.6 13.7384C14.7037 14.0684 14.8741 14.3122 15.1111 14.4698C15.3556 14.6273 15.6407 14.706 15.9667 14.706C16.3815 14.706 16.7259 14.5785 17 14.3235C17.2815 14.0684 17.4222 13.7121 17.4222 13.2546C17.4222 12.8495 17.2815 12.5195 17 12.2644C16.7259 12.0094 16.3815 11.8819 15.9667 11.8819C15.7444 11.8819 15.563 11.9119 15.4222 11.9719C15.2815 12.0319 15.1444 12.1144 15.0111 12.2194C14.9222 12.2869 14.8519 12.3357 14.8 12.3657C14.7556 12.3882 14.7 12.3994 14.6333 12.3994H13.6111C13.5444 12.3994 13.4852 12.3769 13.4333 12.3319C13.3889 12.2794 13.3667 12.2194 13.3667 12.1519L13.7556 8.3038C13.763 8.21378 13.7926 8.14252 13.8444 8.09001C13.9037 8.03 13.9778 8 14.0667 8H18.2444C18.3185 8 18.3815 8.02625 18.4333 8.07876C18.4852 8.13127 18.5111 8.19503 18.5111 8.27004V9.02391C18.5111 9.09892 18.4852 9.16268 18.4333 9.21519C18.3815 9.2677 18.3185 9.29395 18.2444 9.29395H15.0333L14.8556 11.128C15.2185 10.8729 15.7037 10.7454 16.3111 10.7454C16.7926 10.7454 17.237 10.8504 17.6444 11.0605C18.0593 11.263 18.3889 11.5593 18.6333 11.9494C18.8778 12.3319 19 12.7782 19 13.2883C19 13.8359 18.8741 14.316 18.6222 14.7286C18.3704 15.1336 18.0148 15.4487 17.5556 15.6737C17.1037 15.8912 16.5741 16 15.9667 16Z" fill="#FFB64C"></path><path d="M15.9667 16C15.3519 16 14.8222 15.895 14.3778 15.685C13.9407 15.4749 13.6037 15.1974 13.3667 14.8523C13.137 14.5073 13.0148 14.136 13 13.7384V13.7159C13 13.6559 13.0222 13.6071 13.0667 13.5696C13.1111 13.5321 13.1667 13.5134 13.2333 13.5134H14.2667C14.437 13.5134 14.5481 13.5884 14.6 13.7384C14.7037 14.0684 14.8741 14.3122 15.1111 14.4698C15.3556 14.6273 15.6407 14.706 15.9667 14.706C16.3815 14.706 16.7259 14.5785 17 14.3235C17.2815 14.0684 17.4222 13.7121 17.4222 13.2546C17.4222 12.8495 17.2815 12.5195 17 12.2644C16.7259 12.0094 16.3815 11.8819 15.9667 11.8819C15.7444 11.8819 15.563 11.9119 15.4222 11.9719C15.2815 12.0319 15.1444 12.1144 15.0111 12.2194C14.9222 12.2869 14.8519 12.3357 14.8 12.3657C14.7556 12.3882 14.7 12.3994 14.6333 12.3994H13.6111C13.5444 12.3994 13.4852 12.3769 13.4333 12.3319C13.3889 12.2794 13.3667 12.2194 13.3667 12.1519L13.7556 8.3038C13.763 8.21378 13.7926 8.14252 13.8444 8.09001C13.9037 8.03 13.9778 8 14.0667 8H18.2444C18.3185 8 18.3815 8.02625 18.4333 8.07876C18.4852 8.13127 18.5111 8.19503 18.5111 8.27004V9.02391C18.5111 9.09892 18.4852 9.16268 18.4333 9.21519C18.3815 9.2677 18.3185 9.29395 18.2444 9.29395H15.0333L14.8556 11.128C15.2185 10.8729 15.7037 10.7454 16.3111 10.7454C16.7926 10.7454 17.237 10.8504 17.6444 11.0605C18.0593 11.263 18.3889 11.5593 18.6333 11.9494C18.8778 12.3319 19 12.7782 19 13.2883C19 13.8359 18.8741 14.316 18.6222 14.7286C18.3704 15.1336 18.0148 15.4487 17.5556 15.6737C17.1037 15.8912 16.5741 16 15.9667 16Z" fill="#FFA727"></path><path d="M15.9667 16C15.3519 16 14.8222 15.895 14.3778 15.685C13.9407 15.4749 13.6037 15.1974 13.3667 14.8523C13.137 14.5073 13.0148 14.136 13 13.7384V13.7159C13 13.6559 13.0222 13.6071 13.0667 13.5696C13.1111 13.5321 13.1667 13.5134 13.2333 13.5134H14.2667C14.437 13.5134 14.5481 13.5884 14.6 13.7384C14.7037 14.0684 14.8741 14.3122 15.1111 14.4698C15.3556 14.6273 15.6407 14.706 15.9667 14.706C16.3815 14.706 16.7259 14.5785 17 14.3235C17.2815 14.0684 17.4222 13.7121 17.4222 13.2546C17.4222 12.8495 17.2815 12.5195 17 12.2644C16.7259 12.0094 16.3815 11.8819 15.9667 11.8819C15.7444 11.8819 15.563 11.9119 15.4222 11.9719C15.2815 12.0319 15.1444 12.1144 15.0111 12.2194C14.9222 12.2869 14.8519 12.3357 14.8 12.3657C14.7556 12.3882 14.7 12.3994 14.6333 12.3994H13.6111C13.5444 12.3994 13.4852 12.3769 13.4333 12.3319C13.3889 12.2794 13.3667 12.2194 13.3667 12.1519L13.7556 8.3038C13.763 8.21378 13.7926 8.14252 13.8444 8.09001C13.9037 8.03 13.9778 8 14.0667 8H18.2444C18.3185 8 18.3815 8.02625 18.4333 8.07876C18.4852 8.13127 18.5111 8.19503 18.5111 8.27004V9.02391C18.5111 9.09892 18.4852 9.16268 18.4333 9.21519C18.3815 9.2677 18.3185 9.29395 18.2444 9.29395H15.0333L14.8556 11.128C15.2185 10.8729 15.7037 10.7454 16.3111 10.7454C16.7926 10.7454 17.237 10.8504 17.6444 11.0605C18.0593 11.263 18.3889 11.5593 18.6333 11.9494C18.8778 12.3319 19 12.7782 19 13.2883C19 13.8359 18.8741 14.316 18.6222 14.7286C18.3704 15.1336 18.0148 15.4487 17.5556 15.6737C17.1037 15.8912 16.5741 16 15.9667 16Z" fill="#FFA900"></path><path d="M15.9667 16C15.3519 16 14.8222 15.895 14.3778 15.685C13.9407 15.4749 13.6037 15.1974 13.3667 14.8523C13.137 14.5073 13.0148 14.136 13 13.7384V13.7159C13 13.6559 13.0222 13.6071 13.0667 13.5696C13.1111 13.5321 13.1667 13.5134 13.2333 13.5134H14.2667C14.437 13.5134 14.5481 13.5884 14.6 13.7384C14.7037 14.0684 14.8741 14.3122 15.1111 14.4698C15.3556 14.6273 15.6407 14.706 15.9667 14.706C16.3815 14.706 16.7259 14.5785 17 14.3235C17.2815 14.0684 17.4222 13.7121 17.4222 13.2546C17.4222 12.8495 17.2815 12.5195 17 12.2644C16.7259 12.0094 16.3815 11.8819 15.9667 11.8819C15.7444 11.8819 15.563 11.9119 15.4222 11.9719C15.2815 12.0319 15.1444 12.1144 15.0111 12.2194C14.9222 12.2869 14.8519 12.3357 14.8 12.3657C14.7556 12.3882 14.7 12.3994 14.6333 12.3994H13.6111C13.5444 12.3994 13.4852 12.3769 13.4333 12.3319C13.3889 12.2794 13.3667 12.2194 13.3667 12.1519L13.7556 8.3038C13.763 8.21378 13.7926 8.14252 13.8444 8.09001C13.9037 8.03 13.9778 8 14.0667 8H18.2444C18.3185 8 18.3815 8.02625 18.4333 8.07876C18.4852 8.13127 18.5111 8.19503 18.5111 8.27004V9.02391C18.5111 9.09892 18.4852 9.16268 18.4333 9.21519C18.3815 9.2677 18.3185 9.29395 18.2444 9.29395H15.0333L14.8556 11.128C15.2185 10.8729 15.7037 10.7454 16.3111 10.7454C16.7926 10.7454 17.237 10.8504 17.6444 11.0605C18.0593 11.263 18.3889 11.5593 18.6333 11.9494C18.8778 12.3319 19 12.7782 19 13.2883C19 13.8359 18.8741 14.316 18.6222 14.7286C18.3704 15.1336 18.0148 15.4487 17.5556 15.6737C17.1037 15.8912 16.5741 16 15.9667 16Z" fill="#FF674B"></path></svg> 