<svg width="27" height="30" viewBox="0 0 27 30" fill="none" xmlns="http://www.w3.org/2000/svg">
<path d="M25.622 13.2H23.0293V4.8C23.0293 2.14875 20.8446 0 18.1489 0H8.69318C5.99753 0 3.8128 2.14875 3.8128 4.8V13.2H1.2201C0.54523 13.2 0 13.7363 0 14.4V28.8C0 29.4638 0.54523 30 1.2201 30H25.622C26.2969 30 26.8421 29.4638 26.8421 28.8V14.4C26.8421 13.7363 26.2969 13.2 25.622 13.2ZM14.4886 22.0875V24.075C14.4886 24.24 14.3514 24.375 14.1836 24.375H12.6585C12.4907 24.375 12.3535 24.24 12.3535 24.075V22.0875C12.0387 21.8653 11.8038 21.5505 11.6825 21.1886C11.5612 20.8267 11.5598 20.4363 11.6785 20.0735C11.7972 19.7108 12.0299 19.3944 12.343 19.17C12.6561 18.9456 13.0336 18.8246 13.4211 18.8246C13.8085 18.8246 14.186 18.9456 14.4991 19.17C14.8122 19.3944 15.0449 19.7108 15.1636 20.0735C15.2823 20.4363 15.2809 20.8267 15.1596 21.1886C15.0383 21.5505 14.8034 21.8653 14.4886 22.0875ZM20.2841 13.2H6.55801V4.8C6.55801 3.64125 7.51503 2.7 8.69318 2.7H18.1489C19.3271 2.7 20.2841 3.64125 20.2841 4.8V13.2Z" fill="white"/>
</svg>
