<svg width="177" height="34" viewBox="0 0 177 34" fill="none" xmlns="http://www.w3.org/2000/svg">
<path d="M49.4702 13.1326H53.1677V22.6101H55.2502V13.1326H58.9902V11.3901H49.4702V13.1326Z" fill="white"/>
<path d="M63.4951 17.7651H68.9351V16.0651H63.4951V13.1326H69.6151V11.3901H61.4126V22.6101H69.8701V20.8675H63.4951V17.7651Z" fill="white"/>
<path d="M79.9852 11.8576C79.2627 11.5176 78.4127 11.3901 77.4352 11.3901H72.8027V22.6526H74.8852V19.4226H77.4352C78.4127 19.4226 79.2627 19.2526 79.9852 18.9551C80.7077 18.6576 81.2602 18.1901 81.6427 17.5526C82.0252 16.9576 82.2377 16.2351 82.2377 15.4276C82.2377 14.6201 82.0252 13.8976 81.6427 13.3026C81.2602 12.6226 80.7077 12.1976 79.9852 11.8576ZM79.4327 17.0426C78.9652 17.4251 78.2852 17.6376 77.3502 17.6376H74.9277V13.1326H77.3502C78.2427 13.1326 78.9652 13.3451 79.4327 13.7276C79.9002 14.1101 80.1552 14.6626 80.1552 15.3851C80.1552 16.1076 79.9002 16.6601 79.4327 17.0426Z" fill="white"/>
<path d="M95.4551 11.3901L91.0351 18.8276L86.6151 11.3901H84.8726V22.6101H86.8701V15.2576L90.5251 21.3351H91.4601L95.1576 15.1726L95.2001 22.6101H97.1976L97.1551 11.3901H95.4551Z" fill="white"/>
<path d="M111.435 14.0251C110.925 13.1326 110.203 12.4526 109.268 11.9426C108.333 11.4326 107.313 11.1776 106.165 11.1776C105.018 11.1776 103.998 11.4326 103.063 11.9426C102.128 12.4526 101.405 13.1326 100.895 14.0251C100.385 14.9176 100.088 15.8951 100.088 17.0001C100.088 18.1051 100.343 19.0826 100.895 19.9751C101.405 20.8676 102.128 21.5476 103.063 22.0576C103.998 22.5676 105.018 22.8226 106.165 22.8226C107.313 22.8226 108.333 22.5676 109.268 22.0576C110.203 21.5476 110.925 20.8676 111.435 19.9751C111.945 19.0826 112.243 18.1051 112.243 17.0001C112.243 15.8951 111.988 14.9176 111.435 14.0251ZM109.608 19.0401C109.268 19.6351 108.8 20.1026 108.205 20.4426C107.61 20.7826 106.93 20.9526 106.165 20.9526C105.4 20.9526 104.72 20.7826 104.125 20.4426C103.53 20.1026 103.063 19.6351 102.723 19.0401C102.383 18.4451 102.213 17.7651 102.213 17.0001C102.213 16.2351 102.383 15.5551 102.723 14.9601C103.063 14.3651 103.53 13.8976 104.125 13.5576C104.72 13.2176 105.4 13.0476 106.165 13.0476C106.93 13.0476 107.61 13.2176 108.205 13.5576C108.8 13.8976 109.268 14.3651 109.608 14.9601C109.948 15.5551 110.118 16.2351 110.118 17.0001C110.118 17.7651 109.948 18.4451 109.608 19.0401Z" fill="white"/>
<path d="M118.405 13.5575C119 13.2175 119.723 13.0475 120.488 13.0475C121.678 13.0475 122.698 13.4725 123.505 14.365L124.865 13.09C124.355 12.495 123.718 12.0275 122.953 11.6875C122.188 11.3475 121.338 11.22 120.445 11.22C119.298 11.22 118.278 11.475 117.385 11.985C116.45 12.495 115.77 13.175 115.218 14.0675C114.708 14.96 114.41 15.9375 114.41 17.0425C114.41 18.1475 114.665 19.125 115.175 20.0175C115.685 20.91 116.408 21.59 117.343 22.1C118.278 22.61 119.298 22.865 120.403 22.865C121.338 22.865 122.188 22.695 122.953 22.3975C123.718 22.0575 124.355 21.59 124.908 20.995L123.548 19.72C122.74 20.6125 121.72 21.0375 120.53 21.0375C119.765 21.0375 119.085 20.8675 118.448 20.5275C117.81 20.1875 117.343 19.72 117.003 19.125C116.663 18.53 116.493 17.85 116.493 17.085C116.493 16.32 116.663 15.64 117.003 15.045C117.3 14.365 117.768 13.8975 118.405 13.5575Z" fill="#795824"/>
<path d="M118.405 13.5575C119 13.2175 119.723 13.0475 120.488 13.0475C121.678 13.0475 122.698 13.4725 123.505 14.365L124.865 13.09C124.355 12.495 123.718 12.0275 122.953 11.6875C122.188 11.3475 121.338 11.22 120.445 11.22C119.298 11.22 118.278 11.475 117.385 11.985C116.45 12.495 115.77 13.175 115.218 14.0675C114.708 14.96 114.41 15.9375 114.41 17.0425C114.41 18.1475 114.665 19.125 115.175 20.0175C115.685 20.91 116.408 21.59 117.343 22.1C118.278 22.61 119.298 22.865 120.403 22.865C121.338 22.865 122.188 22.695 122.953 22.3975C123.718 22.0575 124.355 21.59 124.908 20.995L123.548 19.72C122.74 20.6125 121.72 21.0375 120.53 21.0375C119.765 21.0375 119.085 20.8675 118.448 20.5275C117.81 20.1875 117.343 19.72 117.003 19.125C116.663 18.53 116.493 17.85 116.493 17.085C116.493 16.32 116.663 15.64 117.003 15.045C117.3 14.365 117.768 13.8975 118.405 13.5575Z" fill="#FFB64C"/>
<path d="M118.405 13.5575C119 13.2175 119.723 13.0475 120.488 13.0475C121.678 13.0475 122.698 13.4725 123.505 14.365L124.865 13.09C124.355 12.495 123.718 12.0275 122.953 11.6875C122.188 11.3475 121.338 11.22 120.445 11.22C119.298 11.22 118.278 11.475 117.385 11.985C116.45 12.495 115.77 13.175 115.218 14.0675C114.708 14.96 114.41 15.9375 114.41 17.0425C114.41 18.1475 114.665 19.125 115.175 20.0175C115.685 20.91 116.408 21.59 117.343 22.1C118.278 22.61 119.298 22.865 120.403 22.865C121.338 22.865 122.188 22.695 122.953 22.3975C123.718 22.0575 124.355 21.59 124.908 20.995L123.548 19.72C122.74 20.6125 121.72 21.0375 120.53 21.0375C119.765 21.0375 119.085 20.8675 118.448 20.5275C117.81 20.1875 117.343 19.72 117.003 19.125C116.663 18.53 116.493 17.85 116.493 17.085C116.493 16.32 116.663 15.64 117.003 15.045C117.3 14.365 117.768 13.8975 118.405 13.5575Z" fill="#FFA727"/>
<path d="M118.405 13.5575C119 13.2175 119.723 13.0475 120.488 13.0475C121.678 13.0475 122.698 13.4725 123.505 14.365L124.865 13.09C124.355 12.495 123.718 12.0275 122.953 11.6875C122.188 11.3475 121.338 11.22 120.445 11.22C119.298 11.22 118.278 11.475 117.385 11.985C116.45 12.495 115.77 13.175 115.218 14.0675C114.708 14.96 114.41 15.9375 114.41 17.0425C114.41 18.1475 114.665 19.125 115.175 20.0175C115.685 20.91 116.408 21.59 117.343 22.1C118.278 22.61 119.298 22.865 120.403 22.865C121.338 22.865 122.188 22.695 122.953 22.3975C123.718 22.0575 124.355 21.59 124.908 20.995L123.548 19.72C122.74 20.6125 121.72 21.0375 120.53 21.0375C119.765 21.0375 119.085 20.8675 118.448 20.5275C117.81 20.1875 117.343 19.72 117.003 19.125C116.663 18.53 116.493 17.85 116.493 17.085C116.493 16.32 116.663 15.64 117.003 15.045C117.3 14.365 117.768 13.8975 118.405 13.5575Z" fill="#FFA900"/>
<path d="M118.405 13.5575C119 13.2175 119.723 13.0475 120.488 13.0475C121.678 13.0475 122.698 13.4725 123.505 14.365L124.865 13.09C124.355 12.495 123.718 12.0275 122.953 11.6875C122.188 11.3475 121.338 11.22 120.445 11.22C119.298 11.22 118.278 11.475 117.385 11.985C116.45 12.495 115.77 13.175 115.218 14.0675C114.708 14.96 114.41 15.9375 114.41 17.0425C114.41 18.1475 114.665 19.125 115.175 20.0175C115.685 20.91 116.408 21.59 117.343 22.1C118.278 22.61 119.298 22.865 120.403 22.865C121.338 22.865 122.188 22.695 122.953 22.3975C123.718 22.0575 124.355 21.59 124.908 20.995L123.548 19.72C122.74 20.6125 121.72 21.0375 120.53 21.0375C119.765 21.0375 119.085 20.8675 118.448 20.5275C117.81 20.1875 117.343 19.72 117.003 19.125C116.663 18.53 116.493 17.85 116.493 17.085C116.493 16.32 116.663 15.64 117.003 15.045C117.3 14.365 117.768 13.8975 118.405 13.5575Z" fill="#FF674B"/>
<path d="M138.465 13.4725C137.445 12.6225 135.958 12.155 134.088 12.07V10.9225H132.175V12.07C130.263 12.155 128.818 12.6225 127.798 13.4725C126.778 14.3225 126.268 15.47 126.268 16.9575C126.268 18.445 126.778 19.5925 127.798 20.4425C128.818 21.2925 130.305 21.76 132.175 21.845V23.035H134.088V21.845C136 21.76 137.445 21.2925 138.465 20.4425C139.485 19.5925 139.995 18.4025 139.995 16.9575C139.995 15.5125 139.485 14.3225 138.465 13.4725ZM132.175 20.23C130.9 20.1025 129.965 19.805 129.285 19.2525C128.605 18.7 128.265 17.935 128.265 16.9575C128.265 14.96 129.583 13.8975 132.175 13.685V20.23ZM137.02 19.2525C136.34 19.805 135.363 20.145 134.088 20.23V13.7275C135.363 13.8125 136.34 14.11 137.02 14.6625C137.7 15.215 138.04 15.98 138.04 16.9575C137.998 17.935 137.658 18.7425 137.02 19.2525Z" fill="#795824"/>
<path d="M138.465 13.4725C137.445 12.6225 135.958 12.155 134.088 12.07V10.9225H132.175V12.07C130.263 12.155 128.818 12.6225 127.798 13.4725C126.778 14.3225 126.268 15.47 126.268 16.9575C126.268 18.445 126.778 19.5925 127.798 20.4425C128.818 21.2925 130.305 21.76 132.175 21.845V23.035H134.088V21.845C136 21.76 137.445 21.2925 138.465 20.4425C139.485 19.5925 139.995 18.4025 139.995 16.9575C139.995 15.5125 139.485 14.3225 138.465 13.4725ZM132.175 20.23C130.9 20.1025 129.965 19.805 129.285 19.2525C128.605 18.7 128.265 17.935 128.265 16.9575C128.265 14.96 129.583 13.8975 132.175 13.685V20.23ZM137.02 19.2525C136.34 19.805 135.363 20.145 134.088 20.23V13.7275C135.363 13.8125 136.34 14.11 137.02 14.6625C137.7 15.215 138.04 15.98 138.04 16.9575C137.998 17.935 137.658 18.7425 137.02 19.2525Z" fill="#FFB64C"/>
<path d="M138.465 13.4725C137.445 12.6225 135.958 12.155 134.088 12.07V10.9225H132.175V12.07C130.263 12.155 128.818 12.6225 127.798 13.4725C126.778 14.3225 126.268 15.47 126.268 16.9575C126.268 18.445 126.778 19.5925 127.798 20.4425C128.818 21.2925 130.305 21.76 132.175 21.845V23.035H134.088V21.845C136 21.76 137.445 21.2925 138.465 20.4425C139.485 19.5925 139.995 18.4025 139.995 16.9575C139.995 15.5125 139.485 14.3225 138.465 13.4725ZM132.175 20.23C130.9 20.1025 129.965 19.805 129.285 19.2525C128.605 18.7 128.265 17.935 128.265 16.9575C128.265 14.96 129.583 13.8975 132.175 13.685V20.23ZM137.02 19.2525C136.34 19.805 135.363 20.145 134.088 20.23V13.7275C135.363 13.8125 136.34 14.11 137.02 14.6625C137.7 15.215 138.04 15.98 138.04 16.9575C137.998 17.935 137.658 18.7425 137.02 19.2525Z" fill="#FFA727"/>
<path d="M138.465 13.4725C137.445 12.6225 135.958 12.155 134.088 12.07V10.9225H132.175V12.07C130.263 12.155 128.818 12.6225 127.798 13.4725C126.778 14.3225 126.268 15.47 126.268 16.9575C126.268 18.445 126.778 19.5925 127.798 20.4425C128.818 21.2925 130.305 21.76 132.175 21.845V23.035H134.088V21.845C136 21.76 137.445 21.2925 138.465 20.4425C139.485 19.5925 139.995 18.4025 139.995 16.9575C139.995 15.5125 139.485 14.3225 138.465 13.4725ZM132.175 20.23C130.9 20.1025 129.965 19.805 129.285 19.2525C128.605 18.7 128.265 17.935 128.265 16.9575C128.265 14.96 129.583 13.8975 132.175 13.685V20.23ZM137.02 19.2525C136.34 19.805 135.363 20.145 134.088 20.23V13.7275C135.363 13.8125 136.34 14.11 137.02 14.6625C137.7 15.215 138.04 15.98 138.04 16.9575C137.998 17.935 137.658 18.7425 137.02 19.2525Z" fill="#FFA900"/>
<path d="M138.465 13.4725C137.445 12.6225 135.958 12.155 134.088 12.07V10.9225H132.175V12.07C130.263 12.155 128.818 12.6225 127.798 13.4725C126.778 14.3225 126.268 15.47 126.268 16.9575C126.268 18.445 126.778 19.5925 127.798 20.4425C128.818 21.2925 130.305 21.76 132.175 21.845V23.035H134.088V21.845C136 21.76 137.445 21.2925 138.465 20.4425C139.485 19.5925 139.995 18.4025 139.995 16.9575C139.995 15.5125 139.485 14.3225 138.465 13.4725ZM132.175 20.23C130.9 20.1025 129.965 19.805 129.285 19.2525C128.605 18.7 128.265 17.935 128.265 16.9575C128.265 14.96 129.583 13.8975 132.175 13.685V20.23ZM137.02 19.2525C136.34 19.805 135.363 20.145 134.088 20.23V13.7275C135.363 13.8125 136.34 14.11 137.02 14.6625C137.7 15.215 138.04 15.98 138.04 16.9575C137.998 17.935 137.658 18.7425 137.02 19.2525Z" fill="#FF674B"/>
<path d="M144.968 17.765H150.365V16.065H144.968V13.1325H151.088V11.39H142.843V22.61H151.3V20.8675H144.968V17.765Z" fill="#795824"/>
<path d="M144.968 17.765H150.365V16.065H144.968V13.1325H151.088V11.39H142.843V22.61H151.3V20.8675H144.968V17.765Z" fill="#FFB64C"/>
<path d="M144.968 17.765H150.365V16.065H144.968V13.1325H151.088V11.39H142.843V22.61H151.3V20.8675H144.968V17.765Z" fill="#FFA727"/>
<path d="M144.968 17.765H150.365V16.065H144.968V13.1325H151.088V11.39H142.843V22.61H151.3V20.8675H144.968V17.765Z" fill="#FFA900"/>
<path d="M144.968 17.765H150.365V16.065H144.968V13.1325H151.088V11.39H142.843V22.61H151.3V20.8675H144.968V17.765Z" fill="#FF674B"/>
<path d="M161.415 11.8575C160.692 11.5175 159.842 11.39 158.865 11.39H154.275V22.6525H156.357V19.4225H158.907C159.885 19.4225 160.735 19.2525 161.457 18.955C162.18 18.615 162.732 18.19 163.115 17.5525C163.497 16.9575 163.71 16.235 163.71 15.4275C163.71 14.62 163.497 13.8975 163.115 13.3025C162.732 12.6225 162.137 12.1975 161.415 11.8575ZM160.862 17.0425C160.395 17.425 159.715 17.6375 158.78 17.6375H156.357V13.1325H158.78C159.672 13.1325 160.395 13.345 160.862 13.7275C161.33 14.11 161.585 14.6625 161.585 15.385C161.585 16.1075 161.33 16.66 160.862 17.0425Z" fill="#795824"/>
<path d="M161.415 11.8575C160.692 11.5175 159.842 11.39 158.865 11.39H154.275V22.6525H156.357V19.4225H158.907C159.885 19.4225 160.735 19.2525 161.457 18.955C162.18 18.615 162.732 18.19 163.115 17.5525C163.497 16.9575 163.71 16.235 163.71 15.4275C163.71 14.62 163.497 13.8975 163.115 13.3025C162.732 12.6225 162.137 12.1975 161.415 11.8575ZM160.862 17.0425C160.395 17.425 159.715 17.6375 158.78 17.6375H156.357V13.1325H158.78C159.672 13.1325 160.395 13.345 160.862 13.7275C161.33 14.11 161.585 14.6625 161.585 15.385C161.585 16.1075 161.33 16.66 160.862 17.0425Z" fill="#FFB64C"/>
<path d="M161.415 11.8575C160.692 11.5175 159.842 11.39 158.865 11.39H154.275V22.6525H156.357V19.4225H158.907C159.885 19.4225 160.735 19.2525 161.457 18.955C162.18 18.615 162.732 18.19 163.115 17.5525C163.497 16.9575 163.71 16.235 163.71 15.4275C163.71 14.62 163.497 13.8975 163.115 13.3025C162.732 12.6225 162.137 12.1975 161.415 11.8575ZM160.862 17.0425C160.395 17.425 159.715 17.6375 158.78 17.6375H156.357V13.1325H158.78C159.672 13.1325 160.395 13.345 160.862 13.7275C161.33 14.11 161.585 14.6625 161.585 15.385C161.585 16.1075 161.33 16.66 160.862 17.0425Z" fill="#FFA727"/>
<path d="M161.415 11.8575C160.692 11.5175 159.842 11.39 158.865 11.39H154.275V22.6525H156.357V19.4225H158.907C159.885 19.4225 160.735 19.2525 161.457 18.955C162.18 18.615 162.732 18.19 163.115 17.5525C163.497 16.9575 163.71 16.235 163.71 15.4275C163.71 14.62 163.497 13.8975 163.115 13.3025C162.732 12.6225 162.137 12.1975 161.415 11.8575ZM160.862 17.0425C160.395 17.425 159.715 17.6375 158.78 17.6375H156.357V13.1325H158.78C159.672 13.1325 160.395 13.345 160.862 13.7275C161.33 14.11 161.585 14.6625 161.585 15.385C161.585 16.1075 161.33 16.66 160.862 17.0425Z" fill="#FFA900"/>
<path d="M161.415 11.8575C160.692 11.5175 159.842 11.39 158.865 11.39H154.275V22.6525H156.357V19.4225H158.907C159.885 19.4225 160.735 19.2525 161.457 18.955C162.18 18.615 162.732 18.19 163.115 17.5525C163.497 16.9575 163.71 16.235 163.71 15.4275C163.71 14.62 163.497 13.8975 163.115 13.3025C162.732 12.6225 162.137 12.1975 161.415 11.8575ZM160.862 17.0425C160.395 17.425 159.715 17.6375 158.78 17.6375H156.357V13.1325H158.78C159.672 13.1325 160.395 13.345 160.862 13.7275C161.33 14.11 161.585 14.6625 161.585 15.385C161.585 16.1075 161.33 16.66 160.862 17.0425Z" fill="#FF674B"/>
<path d="M171.403 11.39H169.363L164.305 22.6525H166.473L167.578 20.06H173.188L174.293 22.6525H176.46L171.403 11.39ZM168.258 18.4025L170.383 13.4725L172.508 18.4025H168.258Z" fill="#795824"/>
<path d="M171.403 11.39H169.363L164.305 22.6525H166.473L167.578 20.06H173.188L174.293 22.6525H176.46L171.403 11.39ZM168.258 18.4025L170.383 13.4725L172.508 18.4025H168.258Z" fill="#FFB64C"/>
<path d="M171.403 11.39H169.363L164.305 22.6525H166.473L167.578 20.06H173.188L174.293 22.6525H176.46L171.403 11.39ZM168.258 18.4025L170.383 13.4725L172.508 18.4025H168.258Z" fill="#FFA727"/>
<path d="M171.403 11.39H169.363L164.305 22.6525H166.473L167.578 20.06H173.188L174.293 22.6525H176.46L171.403 11.39ZM168.258 18.4025L170.383 13.4725L172.508 18.4025H168.258Z" fill="#FFA900"/>
<path d="M171.403 11.39H169.363L164.305 22.6525H166.473L167.578 20.06H173.188L174.293 22.6525H176.46L171.403 11.39ZM168.258 18.4025L170.383 13.4725L172.508 18.4025H168.258Z" fill="#FF674B"/>
<path d="M13.4723 34H29.0273L36.7623 20.5275L29.0273 7.09748H13.4723L5.7373 20.5275L13.4723 34Z" fill="#795824"/>
<path d="M13.4723 34H29.0273L36.7623 20.5275L29.0273 7.09748H13.4723L5.7373 20.5275L13.4723 34Z" fill="#FFB64C"/>
<path d="M13.4723 34H29.0273L36.7623 20.5275L29.0273 7.09748H13.4723L5.7373 20.5275L13.4723 34Z" fill="#FFA727"/>
<path d="M13.4723 34H29.0273L36.7623 20.5275L29.0273 7.09748H13.4723L5.7373 20.5275L13.4723 34Z" fill="#FFA900"/>
<path d="M13.4723 34H29.0273L36.7623 20.5275L29.0273 7.09748H13.4723L5.7373 20.5275L13.4723 34Z" fill="#FF674B"/>
<path d="M24.7773 14.1526H27.7948L26.9873 15.5976L26.1373 17.0001H31.0673L32.6823 14.1526L33.4898 12.7501L34.3398 11.3476L35.1473 9.90258H24.7773V14.1526Z" fill="white"/>
<path d="M2.46484 1.40252L3.27234 2.84752L4.07984 4.25002L4.88734 5.65252H19.1248V18.4025H23.3748V5.65252H37.6123L38.4198 4.25002L39.2273 2.84752L40.0348 1.40252H2.46484Z" fill="white"/>
<path d="M23.375 21.8026L22.865 22.6526L22.0575 24.0976H20.4425L19.635 22.6526L19.125 21.8026L18.785 21.2501L17.9775 19.8476L17.7225 19.3801L17.17 18.4026L16.3625 17.0001L15.5125 15.5976L14.705 14.1526H17.7225V9.90258H7.35254L8.16004 11.3476L9.01004 12.7501L9.81754 14.1526L11.4325 17.0001L12.24 18.4026L13.09 19.8476L13.8975 21.2501L14.705 22.6526L15.5125 24.0976L16.3625 25.5001L17.17 26.9026L17.7225 27.8801L17.9775 28.3476H24.5225L24.7775 27.8801L25.33 26.9026L26.1375 25.5001L26.9875 24.0976L27.795 22.6526L28.6025 21.2501H23.715L23.375 21.8026Z" fill="white"/>
<path d="M0 0L0.8075 1.4025L1.615 2.805L2.465 4.25L3.2725 5.6525L4.08 7.055H17.7225V8.5H4.8875L5.695 9.9025L6.5025 11.305L7.31 12.7075L8.1175 14.11L8.925 15.5125L9.7325 16.915L10.54 18.3175L11.3475 19.72L12.9625 22.5675L13.77 23.97L14.5775 25.3725L15.385 26.775L16.1925 28.1775L17 29.58H25.16L25.9675 28.1775L26.775 26.775L27.5825 25.3725L28.39 23.97L29.1975 22.5675L30.8125 19.72H24.5225L24.7775 19.2525L25.33 18.3175H31.875L32.6825 16.915L33.49 15.5125L34.2975 14.11L35.105 12.7075L35.9125 11.305L36.72 9.9025L37.5275 8.5H24.7775V7.0975H38.42L39.2275 5.695L40.035 4.2925L40.8425 2.89L41.65 1.4875L42.5 0H0ZM28.6025 21.25L27.795 22.6525L26.9875 24.055L26.1375 25.5L25.33 26.9025L24.7775 27.8375L24.5225 28.305H17.9775L17.7225 27.8375L17.17 26.9025L16.3625 25.5L15.555 24.0975L14.7475 22.695L13.8975 21.25L13.09 19.8475L12.2825 18.445L11.4325 17L9.8175 14.1525L9.01 12.75L8.2025 11.3475L7.395 9.945H17.765V14.195H14.7475L15.555 15.5975L16.3625 17L17.17 18.4025L17.7225 19.3375L17.9775 19.805L18.785 21.2075L19.125 21.76L19.635 22.61L20.4425 24.0125H22.0575L22.865 22.61L23.375 21.76L23.715 21.2075H28.6025V21.25ZM35.1475 9.9025L34.34 11.305L33.49 12.75L32.6825 14.1525L31.0675 17H26.1375L26.945 15.5975L27.7525 14.195H24.735V9.945H35.1475V9.9025ZM39.2275 2.8475L38.42 4.25L37.6125 5.6525H23.375V18.4025H19.125V5.6525H4.8875L4.08 4.25L3.2725 2.8475L2.465 1.4025H40.0775L39.2275 2.8475Z" fill="#393533"/>
</svg>
