<svg width="20" height="20" viewBox="0 0 20 20" fill="none" xmlns="http://www.w3.org/2000/svg">
<path d="M19.9044 15.9875C19.8651 15.8724 19.7732 15.695 19.7076 15.5931C19.2941 14.9687 17.0726 13.2302 15.9634 12.6616C15.3301 12.3363 14.8609 12.2278 14.513 12.3297C14.1389 12.4349 13.942 12.609 13.3153 13.3879C13.0626 13.7001 12.8034 13.9926 12.7345 14.0386C12.5638 14.1569 12.2291 14.2523 11.9929 14.2523C11.4448 14.2489 10.4506 13.894 9.68597 13.4273C9.09203 13.0659 8.33077 12.4184 7.74664 11.7776C7.0575 11.025 6.58831 10.3611 6.21746 9.61181C5.73839 8.64889 5.61698 8.0606 5.81712 7.63006C5.86635 7.52162 5.93199 7.40662 5.96149 7.37042C5.99104 7.33761 6.29952 7.08452 6.64075 6.80845C7.3102 6.27608 7.41848 6.15448 7.54317 5.78968C7.70067 5.32627 7.65804 4.85303 7.41521 4.37651C7.22814 4.01499 6.73921 3.22625 6.38483 2.71687C5.91558 2.04646 4.74737 0.613573 4.51435 0.419619C4.09433 0.0778637 3.55622 0.018671 2.96222 0.248768C2.33552 0.49197 1.16072 1.43845 0.658641 2.09904C0.205797 2.69715 0.0319357 3.12108 0.00565707 3.67978C-0.0172971 4.13986 0.022066 4.33048 0.2649 4.91877C2.16487 9.53291 5.00001 13.217 8.89515 16.142C10.9297 17.6701 13.0396 18.8335 15.2284 19.6289C16.5048 20.0922 17.0594 20.1152 17.7124 19.7341C17.988 19.5697 18.6706 18.8697 19.0512 18.3603C19.6813 17.5124 19.9143 17.1213 19.9799 16.8091C20.0259 16.5955 19.9898 16.2241 19.9044 15.9875Z" fill="#393533"/>
</svg>
