<svg width="25" height="20" viewBox="0 0 25 20" fill="none" xmlns="http://www.w3.org/2000/svg">
<path d="M9.39198 18.7893C8.68159 18.7893 8.8023 18.521 8.5573 17.8446L6.46826 10.9694L22.5487 1.42969" fill="#9AE0FF"/>
<path d="M9.39258 18.7886C9.94078 18.7886 10.183 18.5379 10.489 18.2404L13.4127 15.3974L9.76572 13.1982" fill="#299DCF"/>
<path d="M9.76485 13.1987L18.6018 19.7276C19.6102 20.284 20.338 19.9959 20.5892 18.7913L24.1863 1.84053C24.5546 0.364012 23.6235 -0.305666 22.6588 0.132307L1.5367 8.27688C0.0949208 8.85517 0.103326 9.65954 1.27389 10.018L6.69429 11.7097L19.2431 3.79286C19.8355 3.43363 20.3792 3.62676 19.9329 4.02281" fill="#37AEE2"/>
</svg>
