<svg width="24" height="24" viewBox="0 0 24 24" fill="none" xmlns="http://www.w3.org/2000/svg">
<path d="M22.4456 7.02944C22.9161 8.25522 23.1418 9.35465 23.1913 10.695C23.1991 10.9598 23.1955 11.445 23.1784 11.7736C23.1426 12.4035 23.1084 12.5287 22.9271 12.6954C22.6356 12.9689 22.0673 12.9037 21.8519 12.5741C21.7393 12.3973 21.7236 12.2677 21.7453 11.5317C21.8078 9.35449 21.3675 7.64978 20.3067 5.9452C19.0391 3.90014 17.1431 2.52249 14.6776 1.84851C14.0488 1.67696 13.519 1.5724 12.6949 1.46146C12.1581 1.39119 12.0405 1.36149 11.908 1.27994C11.5078 1.0236 11.5025 0.374493 11.9015 0.11425C12.1074 -0.0231275 12.2592 -0.0292665 12.9303 0.0566793C14.8981 0.302595 16.6541 0.887332 18.097 1.77094C19.1312 2.40513 19.7832 2.97486 20.6228 3.97267C21.5108 5.03687 21.981 5.82368 22.4456 7.02944Z" fill="#3B87CD"/>
<path d="M23.4331 19.2762C23.3867 19.1407 23.2786 18.9318 23.2013 18.8118C22.7145 18.0768 20.0992 16.03 18.7934 15.3606C18.0478 14.9777 17.4954 14.85 17.0859 14.9699C16.6455 15.0937 16.4136 15.2987 15.6758 16.2157C15.3783 16.5833 15.0731 16.9277 14.992 16.9818C14.7911 17.1211 14.3971 17.2333 14.1189 17.2333C13.4738 17.2294 12.3032 16.8116 11.4031 16.2621C10.7038 15.8366 9.80763 15.0744 9.11994 14.3199C8.30864 13.4339 7.75627 12.6524 7.31968 11.7702C6.75568 10.6366 6.61274 9.94401 6.84836 9.43714C6.90632 9.30948 6.9836 9.1741 7.01833 9.13148C7.05312 9.09285 7.41628 8.7949 7.81801 8.46989C8.60614 7.84313 8.73361 7.69998 8.8804 7.27051C9.06583 6.72494 9.01564 6.16781 8.72976 5.60682C8.50954 5.1812 7.93393 4.25264 7.51672 3.65295C6.96428 2.8637 5.58898 1.17679 5.31465 0.948453C4.82017 0.546111 4.18666 0.476426 3.48736 0.747315C2.74955 1.03363 1.36649 2.1479 0.775403 2.92559C0.24228 3.62974 0.0375972 4.12883 0.00665994 4.78657C-0.0203635 5.32821 0.0259778 5.55262 0.311861 6.24521C2.54865 11.6773 5.88641 16.0145 10.4721 19.458C12.8672 21.2571 15.3513 22.6268 17.928 23.5631C19.4308 24.1086 20.0837 24.1357 20.8524 23.6869C21.1769 23.4934 21.9805 22.6693 22.4286 22.0696C23.1704 21.0714 23.4447 20.611 23.5219 20.2434C23.576 19.9919 23.5335 19.5548 23.4331 19.2762Z" fill="#3B87CD"/>
<path d="M17.686 4.53342C19.3448 5.87476 20.2716 7.78121 20.4094 10.1508C20.4674 11.0841 20.3904 11.3881 20.0611 11.5612C19.764 11.7217 19.4273 11.6688 19.1964 11.4273C19.0434 11.2702 18.9846 11.0554 18.9869 10.6749C18.9936 9.62298 18.7512 8.44827 18.3572 7.63314C17.9012 6.68443 17.1962 5.87708 16.3094 5.28681C15.5326 4.76839 14.5046 4.4182 13.5078 4.331C12.8613 4.27443 12.6304 4.16493 12.5063 3.85498C12.4294 3.66958 12.4497 3.34904 12.5399 3.20548C12.6251 3.0731 12.8163 2.92671 12.9515 2.888C13.0948 2.84621 13.9299 2.91928 14.3835 3.00942C15.6218 3.26146 16.7515 3.77973 17.686 4.53342Z" fill="#3B87CD"/>
<path d="M16.9213 7.36001C17.3435 7.89793 17.5812 8.50523 17.6764 9.27867C17.6973 9.43968 17.7059 9.73953 17.6999 9.94098C17.6909 10.2664 17.6778 10.3274 17.5918 10.4675C17.3576 10.8393 16.8056 10.8997 16.4954 10.589C16.328 10.4191 16.2866 10.2717 16.2703 9.79254C16.2355 8.77195 15.9106 8.14155 15.213 7.7387C14.8842 7.55075 14.5229 7.4259 14 7.32969C13.6074 7.25262 13.4662 7.182 13.3438 6.98487C13.1698 6.71328 13.2143 6.29387 13.442 6.08466C13.6864 5.86135 13.9595 5.84253 14.6354 6.00652C15.6726 6.25257 16.3731 6.66735 16.9213 7.36001Z" fill="#3B87CD"/>
</svg>
