<svg width="24" height="24" viewBox="0 0 24 24" fill="none" xmlns="http://www.w3.org/2000/svg">
<path d="M17.5771 14.4621C17.7844 14.5622 17.9243 14.6299 17.9841 14.7296C18.0584 14.8535 18.0584 15.4485 17.8109 16.1427C17.5631 16.8368 16.376 17.4703 15.805 17.5556C15.2931 17.6322 14.6452 17.6641 13.9334 17.4379C13.5018 17.3009 12.9483 17.1181 12.2394 16.8119C9.45358 15.609 7.57096 12.909 7.21516 12.3987C7.19023 12.363 7.1728 12.338 7.16307 12.325L7.16068 12.3218C7.00342 12.1119 5.94971 10.706 5.94971 9.251C5.94971 7.88222 6.62207 7.16477 6.93156 6.83453C6.95277 6.81191 6.97227 6.7911 6.98973 6.77202C7.26211 6.47452 7.58406 6.40015 7.78215 6.40015C7.98022 6.40015 8.17854 6.40198 8.35168 6.41067C8.37304 6.41175 8.39526 6.41162 8.41823 6.41148C8.5914 6.41047 8.80729 6.4092 9.02026 6.92077C9.1022 7.11766 9.22209 7.40955 9.34855 7.7174C9.60424 8.3399 9.88674 9.02766 9.93645 9.12719C10.0108 9.27594 10.0603 9.44941 9.96122 9.64782C9.94635 9.67756 9.9326 9.70564 9.91946 9.73246C9.84507 9.88434 9.79034 9.99607 9.66407 10.1435C9.61442 10.2015 9.56311 10.264 9.51179 10.3265C9.40956 10.451 9.30734 10.5754 9.21833 10.6641C9.06957 10.8123 8.91471 10.9731 9.08804 11.2706C9.26138 11.5681 9.85776 12.5411 10.7411 13.3291C11.6908 14.1761 12.5161 14.5341 12.9344 14.7156C13.0161 14.751 13.0823 14.7797 13.1308 14.804C13.4279 14.9528 13.6012 14.9279 13.7746 14.7296C13.9479 14.5313 14.5174 13.8619 14.7155 13.5645C14.9136 13.2671 15.1117 13.3166 15.3841 13.4157C15.6565 13.515 17.1175 14.2338 17.4146 14.3825C17.4726 14.4116 17.5268 14.4378 17.5771 14.4621Z" fill="#37C757"/>
<path fill-rule="evenodd" clip-rule="evenodd" d="M11.9926 23.7938C18.5496 23.7911 23.8825 18.4569 23.8851 11.9013C23.8864 8.72361 22.6505 5.73568 20.4052 3.48784C18.1598 1.23989 15.1739 0.00137307 11.9924 0C5.43735 0 0.102317 5.33474 0.0997082 11.8919C0.0988157 13.9879 0.646444 16.0338 1.68718 17.8374L0 24L6.30446 22.3462C8.0415 23.2937 9.99725 23.7931 11.9876 23.7938H11.9926ZM6.59666 20.1934L2.8555 21.1748L3.85407 17.5272L3.61905 17.1532C2.62957 15.5794 2.10698 13.7605 2.10775 11.8927C2.10991 6.44276 6.5442 2.00887 11.9966 2.00887C14.6367 2.00979 17.1186 3.03925 18.9848 4.90766C20.8511 6.77608 21.8782 9.25951 21.8772 11.9007C21.875 17.3511 17.4408 21.7855 11.9927 21.7855H11.9887C10.2149 21.7848 8.47525 21.3082 6.9576 20.4076L6.59666 20.1934Z" fill="#37C757"/>
</svg>
