<svg width="20" height="18" viewBox="0 0 20 18" fill="none" xmlns="http://www.w3.org/2000/svg">
<path d="M15.6464 17.3536C15.8417 17.5488 16.1583 17.5488 16.3536 17.3536L19.5355 14.1716C19.7308 13.9763 19.7308 13.6597 19.5355 13.4645C19.3403 13.2692 19.0237 13.2692 18.8284 13.4645L16 16.2929L13.1716 13.4645C12.9763 13.2692 12.6597 13.2692 12.4645 13.4645C12.2692 13.6597 12.2692 13.9763 12.4645 14.1716L15.6464 17.3536ZM0.92722 1.49467C3.3559 1.852 7.01755 3.06429 10.0605 5.52662C13.0877 7.97623 15.5 11.6571 15.5 17H16.5C16.5 11.3084 13.9123 7.3571 10.6895 4.74925C7.48245 2.1541 3.6441 0.883634 1.07278 0.505325L0.92722 1.49467Z" fill="white"/>
</svg>
