<svg width="107" height="20" viewBox="0 0 107 20" fill="none" xmlns="http://www.w3.org/2000/svg">
<path d="M29.9971 7.7252H32.2391V13.3002H33.5019V7.7252H35.7697V6.7002H29.9971V7.7252Z" fill="#393533"/>
<path d="M38.5015 10.4502H41.8002V9.45019H38.5015V7.7252H42.2125V6.7002H37.2388V13.3002H42.3671V12.2752H38.5015V10.4502Z" fill="#393533"/>
<path d="M48.5003 6.9752C48.0622 6.7752 47.5468 6.7002 46.954 6.7002H44.145V13.3252H45.4078V11.4252H46.954C47.5468 11.4252 48.0622 11.3252 48.5003 11.1502C48.9384 10.9752 49.2734 10.7002 49.5053 10.3252C49.7373 9.9752 49.8661 9.5502 49.8661 9.0752C49.8661 8.6002 49.7373 8.1752 49.5053 7.8252C49.2734 7.4252 48.9384 7.1752 48.5003 6.9752ZM48.1652 10.0252C47.8818 10.2502 47.4694 10.3752 46.9025 10.3752H45.4336V7.7252H46.9025C47.4437 7.7252 47.8818 7.8502 48.1652 8.0752C48.4487 8.3002 48.6034 8.6252 48.6034 9.0502C48.6034 9.4752 48.4487 9.8002 48.1652 10.0252Z" fill="#393533"/>
<path d="M57.8808 6.7002L55.2006 11.0752L52.5205 6.7002H51.4639V13.3002H52.6751V8.9752L54.8914 12.5502H55.4583L57.7004 8.9252L57.7262 13.3002H58.9374L58.9116 6.7002H57.8808Z" fill="#393533"/>
<path d="M67.5707 8.2502C67.2615 7.7252 66.8234 7.3252 66.2564 7.0252C65.6895 6.7252 65.071 6.5752 64.3752 6.5752C63.6793 6.5752 63.0608 6.7252 62.4939 7.0252C61.9269 7.3252 61.4888 7.7252 61.1796 8.2502C60.8703 8.7752 60.6899 9.3502 60.6899 10.0002C60.6899 10.6502 60.8446 11.2252 61.1796 11.7502C61.4888 12.2752 61.9269 12.6752 62.4939 12.9752C63.0608 13.2752 63.6793 13.4252 64.3752 13.4252C65.071 13.4252 65.6895 13.2752 66.2564 12.9752C66.8234 12.6752 67.2615 12.2752 67.5707 11.7502C67.88 11.2252 68.0604 10.6502 68.0604 10.0002C68.0604 9.3502 67.9057 8.7752 67.5707 8.2502ZM66.4626 11.2002C66.2564 11.5502 65.9729 11.8252 65.6122 12.0252C65.2514 12.2252 64.839 12.3252 64.3752 12.3252C63.9113 12.3252 63.499 12.2252 63.1382 12.0252C62.7774 11.8252 62.4939 11.5502 62.2877 11.2002C62.0816 10.8502 61.9785 10.4502 61.9785 10.0002C61.9785 9.5502 62.0816 9.1502 62.2877 8.8002C62.4939 8.4502 62.7774 8.1752 63.1382 7.9752C63.499 7.7752 63.9113 7.6752 64.3752 7.6752C64.839 7.6752 65.2514 7.7752 65.6122 7.9752C65.9729 8.1752 66.2564 8.4502 66.4626 8.8002C66.6687 9.1502 66.7718 9.5502 66.7718 10.0002C66.7718 10.4502 66.6687 10.8502 66.4626 11.2002Z" fill="#393533"/>
<path d="M71.7974 7.97461C72.1582 7.77461 72.5963 7.67461 73.0602 7.67461C73.7818 7.67461 74.4003 7.92461 74.8899 8.44961L75.7146 7.69961C75.4053 7.34961 75.0188 7.07461 74.5549 6.87461C74.091 6.67461 73.5756 6.59961 73.0344 6.59961C72.3386 6.59961 71.7201 6.74961 71.179 7.04961C70.612 7.34961 70.1997 7.74961 69.8646 8.27461C69.5554 8.79961 69.375 9.37461 69.375 10.0246C69.375 10.6746 69.5296 11.2496 69.8389 11.7746C70.1481 12.2996 70.5862 12.6996 71.1532 12.9996C71.7201 13.2996 72.3386 13.4496 73.0087 13.4496C73.5756 13.4496 74.091 13.3496 74.5549 13.1746C75.0188 12.9746 75.4053 12.6996 75.7404 12.3496L74.9157 11.5996C74.4261 12.1246 73.8076 12.3746 73.086 12.3746C72.6221 12.3746 72.2098 12.2746 71.8232 12.0746C71.4367 11.8746 71.1532 11.5996 70.947 11.2496C70.7408 10.8996 70.6378 10.4996 70.6378 10.0496C70.6378 9.59961 70.7408 9.19961 70.947 8.84961C71.1274 8.44961 71.4109 8.17461 71.7974 7.97461Z" fill="#795824"/>
<path d="M71.7974 7.97461C72.1582 7.77461 72.5963 7.67461 73.0602 7.67461C73.7818 7.67461 74.4003 7.92461 74.8899 8.44961L75.7146 7.69961C75.4053 7.34961 75.0188 7.07461 74.5549 6.87461C74.091 6.67461 73.5756 6.59961 73.0344 6.59961C72.3386 6.59961 71.7201 6.74961 71.179 7.04961C70.612 7.34961 70.1997 7.74961 69.8646 8.27461C69.5554 8.79961 69.375 9.37461 69.375 10.0246C69.375 10.6746 69.5296 11.2496 69.8389 11.7746C70.1481 12.2996 70.5862 12.6996 71.1532 12.9996C71.7201 13.2996 72.3386 13.4496 73.0087 13.4496C73.5756 13.4496 74.091 13.3496 74.5549 13.1746C75.0188 12.9746 75.4053 12.6996 75.7404 12.3496L74.9157 11.5996C74.4261 12.1246 73.8076 12.3746 73.086 12.3746C72.6221 12.3746 72.2098 12.2746 71.8232 12.0746C71.4367 11.8746 71.1532 11.5996 70.947 11.2496C70.7408 10.8996 70.6378 10.4996 70.6378 10.0496C70.6378 9.59961 70.7408 9.19961 70.947 8.84961C71.1274 8.44961 71.4109 8.17461 71.7974 7.97461Z" fill="#FFB64C"/>
<path d="M71.7974 7.97461C72.1582 7.77461 72.5963 7.67461 73.0602 7.67461C73.7818 7.67461 74.4003 7.92461 74.8899 8.44961L75.7146 7.69961C75.4053 7.34961 75.0188 7.07461 74.5549 6.87461C74.091 6.67461 73.5756 6.59961 73.0344 6.59961C72.3386 6.59961 71.7201 6.74961 71.179 7.04961C70.612 7.34961 70.1997 7.74961 69.8646 8.27461C69.5554 8.79961 69.375 9.37461 69.375 10.0246C69.375 10.6746 69.5296 11.2496 69.8389 11.7746C70.1481 12.2996 70.5862 12.6996 71.1532 12.9996C71.7201 13.2996 72.3386 13.4496 73.0087 13.4496C73.5756 13.4496 74.091 13.3496 74.5549 13.1746C75.0188 12.9746 75.4053 12.6996 75.7404 12.3496L74.9157 11.5996C74.4261 12.1246 73.8076 12.3746 73.086 12.3746C72.6221 12.3746 72.2098 12.2746 71.8232 12.0746C71.4367 11.8746 71.1532 11.5996 70.947 11.2496C70.7408 10.8996 70.6378 10.4996 70.6378 10.0496C70.6378 9.59961 70.7408 9.19961 70.947 8.84961C71.1274 8.44961 71.4109 8.17461 71.7974 7.97461Z" fill="#FFA727"/>
<path d="M71.7974 7.97461C72.1582 7.77461 72.5963 7.67461 73.0602 7.67461C73.7818 7.67461 74.4003 7.92461 74.8899 8.44961L75.7146 7.69961C75.4053 7.34961 75.0188 7.07461 74.5549 6.87461C74.091 6.67461 73.5756 6.59961 73.0344 6.59961C72.3386 6.59961 71.7201 6.74961 71.179 7.04961C70.612 7.34961 70.1997 7.74961 69.8646 8.27461C69.5554 8.79961 69.375 9.37461 69.375 10.0246C69.375 10.6746 69.5296 11.2496 69.8389 11.7746C70.1481 12.2996 70.5862 12.6996 71.1532 12.9996C71.7201 13.2996 72.3386 13.4496 73.0087 13.4496C73.5756 13.4496 74.091 13.3496 74.5549 13.1746C75.0188 12.9746 75.4053 12.6996 75.7404 12.3496L74.9157 11.5996C74.4261 12.1246 73.8076 12.3746 73.086 12.3746C72.6221 12.3746 72.2098 12.2746 71.8232 12.0746C71.4367 11.8746 71.1532 11.5996 70.947 11.2496C70.7408 10.8996 70.6378 10.4996 70.6378 10.0496C70.6378 9.59961 70.7408 9.19961 70.947 8.84961C71.1274 8.44961 71.4109 8.17461 71.7974 7.97461Z" fill="#FFA900"/>
<path d="M71.7974 7.97461C72.1582 7.77461 72.5963 7.67461 73.0602 7.67461C73.7818 7.67461 74.4003 7.92461 74.8899 8.44961L75.7146 7.69961C75.4053 7.34961 75.0188 7.07461 74.5549 6.87461C74.091 6.67461 73.5756 6.59961 73.0344 6.59961C72.3386 6.59961 71.7201 6.74961 71.179 7.04961C70.612 7.34961 70.1997 7.74961 69.8646 8.27461C69.5554 8.79961 69.375 9.37461 69.375 10.0246C69.375 10.6746 69.5296 11.2496 69.8389 11.7746C70.1481 12.2996 70.5862 12.6996 71.1532 12.9996C71.7201 13.2996 72.3386 13.4496 73.0087 13.4496C73.5756 13.4496 74.091 13.3496 74.5549 13.1746C75.0188 12.9746 75.4053 12.6996 75.7404 12.3496L74.9157 11.5996C74.4261 12.1246 73.8076 12.3746 73.086 12.3746C72.6221 12.3746 72.2098 12.2746 71.8232 12.0746C71.4367 11.8746 71.1532 11.5996 70.947 11.2496C70.7408 10.8996 70.6378 10.4996 70.6378 10.0496C70.6378 9.59961 70.7408 9.19961 70.947 8.84961C71.1274 8.44961 71.4109 8.17461 71.7974 7.97461Z" fill="#FF674B"/>
<path d="M83.9611 7.92481C83.3426 7.4248 82.4407 7.1498 81.3068 7.0998V6.4248H80.1471V7.0998C78.9874 7.1498 78.1112 7.4248 77.4927 7.92481C76.8742 8.42481 76.5649 9.09981 76.5649 9.97481C76.5649 10.8498 76.8742 11.5248 77.4927 12.0248C78.1112 12.5248 79.0132 12.7998 80.1471 12.8498V13.5498H81.3068V12.8498C82.4664 12.7998 83.3426 12.5248 83.9611 12.0248C84.5796 11.5248 84.8889 10.8248 84.8889 9.97481C84.8889 9.12481 84.5796 8.42481 83.9611 7.92481ZM80.1471 11.8998C79.3739 11.8248 78.807 11.6498 78.3947 11.3248C77.9823 10.9998 77.7762 10.5498 77.7762 9.97481C77.7762 8.79981 78.5751 8.17481 80.1471 8.04981V11.8998ZM83.0849 11.3248C82.6726 11.6498 82.0799 11.8498 81.3068 11.8998V8.0748C82.0799 8.1248 82.6726 8.2998 83.0849 8.6248C83.4973 8.94981 83.7034 9.39981 83.7034 9.97481C83.6777 10.5498 83.4715 11.0248 83.0849 11.3248Z" fill="#795824"/>
<path d="M83.9611 7.92481C83.3426 7.4248 82.4407 7.1498 81.3068 7.0998V6.4248H80.1471V7.0998C78.9874 7.1498 78.1112 7.4248 77.4927 7.92481C76.8742 8.42481 76.5649 9.09981 76.5649 9.97481C76.5649 10.8498 76.8742 11.5248 77.4927 12.0248C78.1112 12.5248 79.0132 12.7998 80.1471 12.8498V13.5498H81.3068V12.8498C82.4664 12.7998 83.3426 12.5248 83.9611 12.0248C84.5796 11.5248 84.8889 10.8248 84.8889 9.97481C84.8889 9.12481 84.5796 8.42481 83.9611 7.92481ZM80.1471 11.8998C79.3739 11.8248 78.807 11.6498 78.3947 11.3248C77.9823 10.9998 77.7762 10.5498 77.7762 9.97481C77.7762 8.79981 78.5751 8.17481 80.1471 8.04981V11.8998ZM83.0849 11.3248C82.6726 11.6498 82.0799 11.8498 81.3068 11.8998V8.0748C82.0799 8.1248 82.6726 8.2998 83.0849 8.6248C83.4973 8.94981 83.7034 9.39981 83.7034 9.97481C83.6777 10.5498 83.4715 11.0248 83.0849 11.3248Z" fill="#FFB64C"/>
<path d="M83.9611 7.92481C83.3426 7.4248 82.4407 7.1498 81.3068 7.0998V6.4248H80.1471V7.0998C78.9874 7.1498 78.1112 7.4248 77.4927 7.92481C76.8742 8.42481 76.5649 9.09981 76.5649 9.97481C76.5649 10.8498 76.8742 11.5248 77.4927 12.0248C78.1112 12.5248 79.0132 12.7998 80.1471 12.8498V13.5498H81.3068V12.8498C82.4664 12.7998 83.3426 12.5248 83.9611 12.0248C84.5796 11.5248 84.8889 10.8248 84.8889 9.97481C84.8889 9.12481 84.5796 8.42481 83.9611 7.92481ZM80.1471 11.8998C79.3739 11.8248 78.807 11.6498 78.3947 11.3248C77.9823 10.9998 77.7762 10.5498 77.7762 9.97481C77.7762 8.79981 78.5751 8.17481 80.1471 8.04981V11.8998ZM83.0849 11.3248C82.6726 11.6498 82.0799 11.8498 81.3068 11.8998V8.0748C82.0799 8.1248 82.6726 8.2998 83.0849 8.6248C83.4973 8.94981 83.7034 9.39981 83.7034 9.97481C83.6777 10.5498 83.4715 11.0248 83.0849 11.3248Z" fill="#FFA727"/>
<path d="M83.9611 7.92481C83.3426 7.4248 82.4407 7.1498 81.3068 7.0998V6.4248H80.1471V7.0998C78.9874 7.1498 78.1112 7.4248 77.4927 7.92481C76.8742 8.42481 76.5649 9.09981 76.5649 9.97481C76.5649 10.8498 76.8742 11.5248 77.4927 12.0248C78.1112 12.5248 79.0132 12.7998 80.1471 12.8498V13.5498H81.3068V12.8498C82.4664 12.7998 83.3426 12.5248 83.9611 12.0248C84.5796 11.5248 84.8889 10.8248 84.8889 9.97481C84.8889 9.12481 84.5796 8.42481 83.9611 7.92481ZM80.1471 11.8998C79.3739 11.8248 78.807 11.6498 78.3947 11.3248C77.9823 10.9998 77.7762 10.5498 77.7762 9.97481C77.7762 8.79981 78.5751 8.17481 80.1471 8.04981V11.8998ZM83.0849 11.3248C82.6726 11.6498 82.0799 11.8498 81.3068 11.8998V8.0748C82.0799 8.1248 82.6726 8.2998 83.0849 8.6248C83.4973 8.94981 83.7034 9.39981 83.7034 9.97481C83.6777 10.5498 83.4715 11.0248 83.0849 11.3248Z" fill="#FFA900"/>
<path d="M83.9611 7.92481C83.3426 7.4248 82.4407 7.1498 81.3068 7.0998V6.4248H80.1471V7.0998C78.9874 7.1498 78.1112 7.4248 77.4927 7.92481C76.8742 8.42481 76.5649 9.09981 76.5649 9.97481C76.5649 10.8498 76.8742 11.5248 77.4927 12.0248C78.1112 12.5248 79.0132 12.7998 80.1471 12.8498V13.5498H81.3068V12.8498C82.4664 12.7998 83.3426 12.5248 83.9611 12.0248C84.5796 11.5248 84.8889 10.8248 84.8889 9.97481C84.8889 9.12481 84.5796 8.42481 83.9611 7.92481ZM80.1471 11.8998C79.3739 11.8248 78.807 11.6498 78.3947 11.3248C77.9823 10.9998 77.7762 10.5498 77.7762 9.97481C77.7762 8.79981 78.5751 8.17481 80.1471 8.04981V11.8998ZM83.0849 11.3248C82.6726 11.6498 82.0799 11.8498 81.3068 11.8998V8.0748C82.0799 8.1248 82.6726 8.2998 83.0849 8.6248C83.4973 8.94981 83.7034 9.39981 83.7034 9.97481C83.6777 10.5498 83.4715 11.0248 83.0849 11.3248Z" fill="#FF674B"/>
<path d="M87.9038 10.4502H91.1766V9.4502H87.9038V7.7252H91.6147V6.7002H86.6152V13.3002H91.7436V12.2752H87.9038V10.4502Z" fill="#795824"/>
<path d="M87.9038 10.4502H91.1766V9.4502H87.9038V7.7252H91.6147V6.7002H86.6152V13.3002H91.7436V12.2752H87.9038V10.4502Z" fill="#FFB64C"/>
<path d="M87.9038 10.4502H91.1766V9.4502H87.9038V7.7252H91.6147V6.7002H86.6152V13.3002H91.7436V12.2752H87.9038V10.4502Z" fill="#FFA727"/>
<path d="M87.9038 10.4502H91.1766V9.4502H87.9038V7.7252H91.6147V6.7002H86.6152V13.3002H91.7436V12.2752H87.9038V10.4502Z" fill="#FFA900"/>
<path d="M87.9038 10.4502H91.1766V9.4502H87.9038V7.7252H91.6147V6.7002H86.6152V13.3002H91.7436V12.2752H87.9038V10.4502Z" fill="#FF674B"/>
<path d="M97.8773 6.9752C97.4392 6.7752 96.9238 6.7002 96.3311 6.7002H93.5479V13.3252H94.8106V11.4252H96.3569C96.9496 11.4252 97.465 11.3252 97.9031 11.1502C98.3412 10.9502 98.6762 10.7002 98.9082 10.3252C99.1401 9.9752 99.269 9.5502 99.269 9.0752C99.269 8.6002 99.1401 8.1752 98.9082 7.8252C98.6762 7.4252 98.3154 7.1752 97.8773 6.9752ZM97.5423 10.0252C97.2588 10.2502 96.8465 10.3752 96.2796 10.3752H94.8106V7.7252H96.2796C96.8207 7.7252 97.2588 7.8502 97.5423 8.0752C97.8258 8.3002 97.9804 8.6252 97.9804 9.0502C97.9804 9.4752 97.8258 9.8002 97.5423 10.0252Z" fill="#795824"/>
<path d="M97.8773 6.9752C97.4392 6.7752 96.9238 6.7002 96.3311 6.7002H93.5479V13.3252H94.8106V11.4252H96.3569C96.9496 11.4252 97.465 11.3252 97.9031 11.1502C98.3412 10.9502 98.6762 10.7002 98.9082 10.3252C99.1401 9.9752 99.269 9.5502 99.269 9.0752C99.269 8.6002 99.1401 8.1752 98.9082 7.8252C98.6762 7.4252 98.3154 7.1752 97.8773 6.9752ZM97.5423 10.0252C97.2588 10.2502 96.8465 10.3752 96.2796 10.3752H94.8106V7.7252H96.2796C96.8207 7.7252 97.2588 7.8502 97.5423 8.0752C97.8258 8.3002 97.9804 8.6252 97.9804 9.0502C97.9804 9.4752 97.8258 9.8002 97.5423 10.0252Z" fill="#FFB64C"/>
<path d="M97.8773 6.9752C97.4392 6.7752 96.9238 6.7002 96.3311 6.7002H93.5479V13.3252H94.8106V11.4252H96.3569C96.9496 11.4252 97.465 11.3252 97.9031 11.1502C98.3412 10.9502 98.6762 10.7002 98.9082 10.3252C99.1401 9.9752 99.269 9.5502 99.269 9.0752C99.269 8.6002 99.1401 8.1752 98.9082 7.8252C98.6762 7.4252 98.3154 7.1752 97.8773 6.9752ZM97.5423 10.0252C97.2588 10.2502 96.8465 10.3752 96.2796 10.3752H94.8106V7.7252H96.2796C96.8207 7.7252 97.2588 7.8502 97.5423 8.0752C97.8258 8.3002 97.9804 8.6252 97.9804 9.0502C97.9804 9.4752 97.8258 9.8002 97.5423 10.0252Z" fill="#FFA727"/>
<path d="M97.8773 6.9752C97.4392 6.7752 96.9238 6.7002 96.3311 6.7002H93.5479V13.3252H94.8106V11.4252H96.3569C96.9496 11.4252 97.465 11.3252 97.9031 11.1502C98.3412 10.9502 98.6762 10.7002 98.9082 10.3252C99.1401 9.9752 99.269 9.5502 99.269 9.0752C99.269 8.6002 99.1401 8.1752 98.9082 7.8252C98.6762 7.4252 98.3154 7.1752 97.8773 6.9752ZM97.5423 10.0252C97.2588 10.2502 96.8465 10.3752 96.2796 10.3752H94.8106V7.7252H96.2796C96.8207 7.7252 97.2588 7.8502 97.5423 8.0752C97.8258 8.3002 97.9804 8.6252 97.9804 9.0502C97.9804 9.4752 97.8258 9.8002 97.5423 10.0252Z" fill="#FFA900"/>
<path d="M97.8773 6.9752C97.4392 6.7752 96.9238 6.7002 96.3311 6.7002H93.5479V13.3252H94.8106V11.4252H96.3569C96.9496 11.4252 97.465 11.3252 97.9031 11.1502C98.3412 10.9502 98.6762 10.7002 98.9082 10.3252C99.1401 9.9752 99.269 9.5502 99.269 9.0752C99.269 8.6002 99.1401 8.1752 98.9082 7.8252C98.6762 7.4252 98.3154 7.1752 97.8773 6.9752ZM97.5423 10.0252C97.2588 10.2502 96.8465 10.3752 96.2796 10.3752H94.8106V7.7252H96.2796C96.8207 7.7252 97.2588 7.8502 97.5423 8.0752C97.8258 8.3002 97.9804 8.6252 97.9804 9.0502C97.9804 9.4752 97.8258 9.8002 97.5423 10.0252Z" fill="#FF674B"/>
<path d="M103.934 6.7002H102.697L99.6299 13.3252H100.944L101.614 11.8002H105.016L105.686 13.3252H107L103.934 6.7002ZM102.027 10.8252L103.315 7.9252L104.604 10.8252H102.027Z" fill="#795824"/>
<path d="M103.934 6.7002H102.697L99.6299 13.3252H100.944L101.614 11.8002H105.016L105.686 13.3252H107L103.934 6.7002ZM102.027 10.8252L103.315 7.9252L104.604 10.8252H102.027Z" fill="#FFB64C"/>
<path d="M103.934 6.7002H102.697L99.6299 13.3252H100.944L101.614 11.8002H105.016L105.686 13.3252H107L103.934 6.7002ZM102.027 10.8252L103.315 7.9252L104.604 10.8252H102.027Z" fill="#FFA727"/>
<path d="M103.934 6.7002H102.697L99.6299 13.3252H100.944L101.614 11.8002H105.016L105.686 13.3252H107L103.934 6.7002ZM102.027 10.8252L103.315 7.9252L104.604 10.8252H102.027Z" fill="#FFA900"/>
<path d="M103.934 6.7002H102.697L99.6299 13.3252H100.944L101.614 11.8002H105.016L105.686 13.3252H107L103.934 6.7002ZM102.027 10.8252L103.315 7.9252L104.604 10.8252H102.027Z" fill="#FF674B"/>
<path d="M8.16927 19.9998H17.6014L22.2916 12.0748L17.6014 4.1748H8.16927L3.479 12.0748L8.16927 19.9998Z" fill="#795824"/>
<path d="M8.16927 19.9998H17.6014L22.2916 12.0748L17.6014 4.1748H8.16927L3.479 12.0748L8.16927 19.9998Z" fill="#FFB64C"/>
<path d="M8.16927 19.9998H17.6014L22.2916 12.0748L17.6014 4.1748H8.16927L3.479 12.0748L8.16927 19.9998Z" fill="#FFA727"/>
<path d="M8.16927 19.9998H17.6014L22.2916 12.0748L17.6014 4.1748H8.16927L3.479 12.0748L8.16927 19.9998Z" fill="#FFA900"/>
<path d="M8.16927 19.9998H17.6014L22.2916 12.0748L17.6014 4.1748H8.16927L3.479 12.0748L8.16927 19.9998Z" fill="#FF674B"/>
<path d="M15.0244 8.32519H16.8541L16.3645 9.17519L15.8491 10.0002H18.8385L19.8178 8.32519L20.3074 7.5002L20.8228 6.6752L21.3125 5.8252H15.0244V8.32519Z" fill="white"/>
<path d="M1.49463 0.825195L1.98427 1.6752L2.47392 2.5002L2.96356 3.3252H11.5967V10.8252H14.1738V3.3252H22.807L23.2966 2.5002L23.7863 1.6752L24.2759 0.825195H1.49463Z" fill="white"/>
<path d="M14.1741 12.8252L13.8648 13.3252L13.3752 14.1752H12.3959L11.9062 13.3252L11.597 12.8252L11.3908 12.5002L10.9012 11.6752L10.7466 11.4002L10.4115 10.8252L9.92189 10.0002L9.40647 9.1752L8.91683 8.3252H10.7466V5.8252H4.4585L4.94814 6.6752L5.46355 7.5002L5.9532 8.3252L6.93248 10.0002L7.42213 10.8252L7.93754 11.6752L8.42719 12.5002L8.91683 13.3252L9.40647 14.1752L9.92189 15.0002L10.4115 15.8252L10.7466 16.4002L10.9012 16.6752H14.8699L15.0245 16.4002L15.3595 15.8252L15.8492 15.0002L16.3646 14.1752L16.8542 13.3252L17.3439 12.5002H14.3802L14.1741 12.8252Z" fill="white"/>
<path d="M0 0L0.489644 0.825L0.979287 1.65L1.4947 2.5L1.98434 3.325L2.47399 4.15H10.7464V5H2.96363L3.45328 5.825L3.94292 6.65L4.43256 7.475L4.92221 8.3L5.41185 9.125L5.90149 9.95L6.39114 10.775L6.88078 11.6L7.86007 13.275L8.34971 14.1L8.83935 14.925L9.329 15.75L9.81864 16.575L10.3083 17.4H15.2563L15.7459 16.575L16.2355 15.75L16.7252 14.925L17.2148 14.1L17.7045 13.275L18.6838 11.6H14.8697L15.0243 11.325L15.3593 10.775H19.328L19.8177 9.95L20.3073 9.125L20.797 8.3L21.2866 7.475L21.7763 6.65L22.2659 5.825L22.7555 5H15.0243V4.175H23.2967L23.7864 3.35L24.276 2.525L24.7657 1.7L25.2553 0.875L25.7707 0H0ZM17.3437 12.5L16.854 13.325L16.3644 14.15L15.849 15L15.3593 15.825L15.0243 16.375L14.8697 16.65H10.901L10.7464 16.375L10.4114 15.825L9.92172 15L9.43208 14.175L8.94244 13.35L8.42702 12.5L7.93738 11.675L7.44774 10.85L6.93232 10L5.95303 8.325L5.46339 7.5L4.97375 6.675L4.4841 5.85H10.7722V8.35H8.94244L9.43208 9.175L9.92172 10L10.4114 10.825L10.7464 11.375L10.901 11.65L11.3907 12.475L11.5968 12.8L11.9061 13.3L12.3957 14.125H13.375L13.8646 13.3L14.1739 12.8L14.3801 12.475H17.3437V12.5ZM21.3124 5.825L20.8227 6.65L20.3073 7.5L19.8177 8.325L18.8384 10H15.849L16.3386 9.175L16.8283 8.35H14.9986V5.85H21.3124V5.825ZM23.7864 1.675L23.2967 2.5L22.8071 3.325H14.1739V10.825H11.5968V3.325H2.96363L2.47399 2.5L1.98434 1.675L1.4947 0.825H24.3018L23.7864 1.675Z" fill="#393533"/>
</svg>
